# Blender v2.93.2 OBJ File: 'untitled.blend'
# www.blender.org
mtllib pit.mtl
o Pit_Cylinder
v 16.250000 -2.650501 80.000000
v 16.250000 7.150501 81.364204
v 21.250000 -2.650501 81.339745
v 20.567898 7.150501 82.521179
v 24.910255 -2.650501 85.000000
v 23.728821 7.150501 85.682098
v 26.250000 -2.650501 90.000000
v 24.885798 7.150501 90.000000
v 24.910254 -2.650501 95.000000
v 23.728819 7.150501 94.317902
v 21.250000 -2.650501 98.660255
v 20.567900 7.150501 97.478821
v 16.250000 -2.650501 100.000000
v 16.250000 7.150501 98.635796
v 11.250000 -2.650501 98.660255
v 11.932102 7.150501 97.478821
v 7.589746 -2.650501 95.000000
v 8.771179 7.150501 94.317902
v 6.250000 -2.650501 90.000000
v 7.614202 7.150501 90.000000
v 7.589746 -2.650501 85.000000
v 8.771179 7.150501 85.682098
v 11.249998 -2.650501 81.339745
v 11.932099 7.150501 82.521179
v 21.100000 7.150501 81.599556
v 16.250000 7.150501 80.300003
v 24.650448 7.150501 85.150002
v 25.950001 7.150501 90.000000
v 24.650446 7.150501 94.849998
v 21.100000 7.150501 98.400444
v 16.250000 7.150501 99.699997
v 11.400001 7.150501 98.400444
v 7.849553 7.150501 94.849998
v 6.550000 7.150501 90.000000
v 7.849553 7.150501 85.150002
v 11.399998 7.150501 81.599556
v 16.250000 7.150501 81.364204
v 20.567898 7.150501 82.521179
v 23.728821 7.150501 85.682098
v 24.885798 7.150501 90.000000
v 23.728819 7.150501 94.317902
v 20.567900 7.150501 97.478821
v 16.250000 7.150501 98.635796
v 11.932102 7.150501 97.478821
v 8.771179 7.150501 94.317902
v 7.614202 7.150501 90.000000
v 8.771179 7.150501 85.682098
v 11.932099 7.150501 82.521179
v 16.250000 -2.650501 81.364204
v 20.567898 -2.650501 82.521179
v 23.728821 -2.650501 85.682098
v 24.885798 -2.650501 90.000000
v 23.728819 -2.650501 94.317902
v 20.567900 -2.650501 97.478821
v 16.250000 -2.650501 98.635796
v 11.932102 -2.650501 97.478821
v 8.771179 -2.650501 94.317902
v 7.614202 -2.650501 90.000000
v 8.771179 -2.650501 85.682098
v 11.932099 -2.650501 82.521179
v 22.980938 6.807467 86.113892
v 24.022217 6.807467 90.000000
v 8.477782 6.807467 90.000000
v 9.519062 6.807467 86.113892
v 16.250000 6.807467 97.772217
v 12.363892 6.807467 96.730934
v 22.980938 6.807467 93.886108
v 12.363890 6.807467 83.269058
v 16.250000 6.807467 82.227783
v 20.136108 6.807467 83.269058
v 9.519062 6.807467 93.886108
v 20.136108 6.807467 96.730934
v 16.250000 6.905476 80.000000
v 21.250000 6.905476 81.339745
v 24.910255 6.905476 85.000000
v 26.250000 6.905476 90.000000
v 24.910254 6.905476 95.000000
v 21.250000 6.905476 98.660255
v 16.250000 6.905476 100.000000
v 11.250000 6.905476 98.660255
v 7.589746 6.905476 95.000000
v 6.250000 6.905476 90.000000
v 7.589746 6.905476 85.000000
v 11.249998 6.905476 81.339745
v 21.250000 5.949878 81.339745
v 24.910255 5.949878 85.000000
v 26.250000 5.949878 90.000000
v 24.910254 5.949878 95.000000
v 21.250000 5.949878 98.660255
v 16.250000 5.949878 100.000000
v 11.250000 5.949878 98.660255
v 7.589746 5.949878 95.000000
v 6.250000 5.949878 90.000000
v 7.589746 5.949878 85.000000
v 11.249998 5.949878 81.339745
v 16.250000 5.949878 80.000000
vt 1.000000 0.987500
vt 1.000000 1.000000
vt 0.916667 1.000000
vt 0.916667 0.987500
vt 0.833333 1.000000
vt 0.833333 0.987500
vt 0.750000 1.000000
vt 0.750000 0.987500
vt 0.666667 1.000000
vt 0.666667 0.987500
vt 0.583333 1.000000
vt 0.583333 0.987500
vt 0.500000 1.000000
vt 0.500000 0.987500
vt 0.416667 1.000000
vt 0.416667 0.987500
vt 0.333333 1.000000
vt 0.333333 0.987500
vt 0.250000 1.000000
vt 0.250000 0.987500
vt 0.166667 1.000000
vt 0.166667 0.987500
vt 0.250000 0.457259
vt 0.146370 0.429492
vt 0.146370 0.429492
vt 0.250000 0.457259
vt 0.083333 1.000000
vt 0.083333 0.987500
vt 0.000000 1.000000
vt 0.000000 0.987500
vt 0.750000 0.490000
vt 0.870000 0.457846
vt 0.957846 0.370000
vt 0.990000 0.250000
vt 0.957846 0.130000
vt 0.870000 0.042154
vt 0.750000 0.010000
vt 0.630000 0.042154
vt 0.542154 0.130000
vt 0.510000 0.250000
vt 0.542154 0.370000
vt 0.630000 0.457846
vt 0.353630 0.429492
vt 0.370000 0.457846
vt 0.250000 0.490000
vt 0.429492 0.353630
vt 0.457846 0.370000
vt 0.457259 0.250000
vt 0.490000 0.250000
vt 0.429492 0.146370
vt 0.457846 0.130000
vt 0.353630 0.070508
vt 0.370000 0.042154
vt 0.250000 0.042741
vt 0.250000 0.010000
vt 0.146370 0.070508
vt 0.130000 0.042154
vt 0.070508 0.146370
vt 0.042154 0.130000
vt 0.042741 0.250000
vt 0.010000 0.250000
vt 0.070508 0.353630
vt 0.042154 0.370000
vt 0.130000 0.457846
vt 0.353630 0.429492
vt 0.429492 0.353630
vt 0.070508 0.146370
vt 0.042741 0.250000
vt 0.353630 0.070508
vt 0.250000 0.042741
vt 0.457259 0.250000
vt 0.070508 0.353630
vt 0.146370 0.070508
vt 0.429492 0.146370
vt 0.457259 0.250000
vt 0.429492 0.353630
vt 0.429492 0.353630
vt 0.457259 0.250000
vt 0.070508 0.353630
vt 0.042741 0.250000
vt 0.042741 0.250000
vt 0.070508 0.353630
vt 0.146370 0.070508
vt 0.250000 0.042741
vt 0.250000 0.042741
vt 0.146370 0.070508
vt 0.429492 0.146370
vt 0.429492 0.146370
vt 0.146370 0.429492
vt 0.146370 0.429492
vt 0.353630 0.429492
vt 0.250000 0.457259
vt 0.250000 0.457259
vt 0.353630 0.429492
vt 0.070508 0.146370
vt 0.070508 0.146370
vt 0.353630 0.070508
vt 0.353630 0.070508
vt 0.083333 0.938750
vt 0.000000 0.938750
vt 0.166667 0.938750
vt 0.250000 0.938750
vt 0.333333 0.938750
vt 0.416667 0.938750
vt 0.500000 0.938750
vt 0.583333 0.938750
vt 0.666667 0.938750
vt 0.750000 0.938750
vt 0.833333 0.938750
vt 0.916667 0.938750
vt 1.000000 0.938750
vt 1.000000 0.500000
vt 0.916667 0.500000
vt 0.833333 0.500000
vt 0.750000 0.500000
vt 0.666667 0.500000
vt 0.583333 0.500000
vt 0.500000 0.500000
vt 0.416667 0.500000
vt 0.333333 0.500000
vt 0.250000 0.500000
vt 0.166667 0.500000
vt 0.083333 0.500000
vt 0.000000 0.500000
vn 0.0000 0.4034 -0.9150
vn 0.0000 0.9236 -0.3835
vn 0.1917 0.9236 -0.3321
vn 0.4575 0.4034 -0.7924
vn 0.3321 0.9236 -0.1917
vn 0.7924 0.4034 -0.4575
vn 0.3835 0.9236 0.0000
vn 0.9150 0.4034 0.0000
vn 0.3321 0.9236 0.1917
vn 0.7924 0.4034 0.4575
vn 0.1917 0.9236 0.3321
vn 0.4575 0.4034 0.7924
vn 0.0000 0.9236 0.3835
vn 0.0000 0.4034 0.9150
vn -0.1917 0.9236 0.3321
vn -0.4575 0.4034 0.7924
vn -0.3321 0.9236 0.1917
vn -0.7924 0.4034 0.4575
vn -0.3835 0.9236 0.0000
vn -0.9150 0.4034 0.0000
vn -0.3321 0.9236 -0.1917
vn -0.7924 0.4034 -0.4575
vn 0.0000 0.7592 0.6508
vn 0.1036 0.5217 0.8468
vn 0.0000 0.5123 0.8588
vn -0.1917 0.9236 -0.3321
vn -0.4575 0.4034 -0.7924
vn 0.0000 -0.6532 -0.7571
vn 0.3786 -0.6532 -0.6557
vn 0.6557 -0.6532 -0.3786
vn 0.7571 -0.6532 0.0000
vn 0.6557 -0.6532 0.3786
vn 0.3786 -0.6532 0.6557
vn 0.0000 -0.6532 0.7571
vn -0.3786 -0.6532 0.6557
vn -0.6557 -0.6532 0.3786
vn -0.7571 -0.6532 0.0000
vn -0.6557 -0.6532 -0.3786
vn -0.3786 -0.6532 -0.6557
vn -0.1036 0.5217 0.8468
vn -0.1893 0.5503 0.8132
vn 0.2275 0.6614 0.7146
vn 0.2376 0.5983 0.7652
vn -0.1436 0.7228 0.6759
vn 0.0000 0.7500 0.6614
vn -0.2376 0.5983 0.7652
vn 0.1893 0.5503 0.8132
vn 0.1436 0.7228 0.6759
vn -0.2275 0.6614 0.7146
vn -0.8197 0.5727 0.0000
vn -0.7099 0.5727 0.4099
vn -0.8624 -0.0909 0.4979
vn -0.9958 -0.0909 0.0000
vn 0.7099 0.5727 0.4099
vn 0.8197 0.5727 0.0000
vn 0.9958 -0.0909 0.0000
vn 0.8624 -0.0909 0.4979
vn 0.4099 0.5727 -0.7099
vn 0.0000 0.5727 -0.8197
vn 0.0000 -0.0909 -0.9958
vn 0.4979 -0.0909 -0.8624
vn -0.7099 0.5727 -0.4099
vn -0.8624 -0.0909 -0.4979
vn 0.4099 0.5727 0.7099
vn 0.4979 -0.0909 0.8624
vn -0.4099 0.5727 0.7099
vn 0.0000 0.5727 0.8197
vn 0.0000 -0.0909 0.9958
vn -0.4979 -0.0909 0.8624
vn 0.7099 0.5727 -0.4099
vn 0.8624 -0.0909 -0.4979
vn -0.4099 0.5727 -0.7099
vn -0.4979 -0.0909 -0.8624
vn -0.5000 0.0000 -0.8660
vn 0.0000 0.0000 -1.0000
vn -0.8660 0.0000 -0.5000
vn -1.0000 0.0000 0.0000
vn -0.8660 0.0000 0.5000
vn -0.5000 0.0000 0.8660
vn 0.0000 0.0000 1.0000
vn 0.5000 0.0000 0.8660
vn 0.8660 0.0000 0.5000
vn 1.0000 0.0000 0.0000
vn 0.8660 0.0000 -0.5000
vn 0.5000 0.0000 -0.8660
usemtl vertex_colour
s 1
f 73/1/1 26/2/2 25/3/3 74/4/4
f 74/4/4 25/3/3 27/5/5 75/6/6
f 75/6/6 27/5/5 28/7/7 76/8/8
f 76/8/8 28/7/7 29/9/9 77/10/10
f 77/10/10 29/9/9 30/11/11 78/12/12
f 78/12/12 30/11/11 31/13/13 79/14/14
f 79/14/14 31/13/13 32/15/15 80/16/16
f 80/16/16 32/15/15 33/17/17 81/18/18
f 81/18/18 33/17/17 34/19/19 82/20/20
f 82/20/20 34/19/19 35/21/21 83/22/22
f 2/23/23 24/24/23 48/25/24 37/26/25
f 83/22/22 35/21/21 36/27/26 84/28/27
f 84/28/27 36/27/26 26/29/2 73/30/1
f 1/31/28 3/32/29 5/33/30 7/34/31 9/35/32 11/36/33 13/37/34 15/38/35 17/39/36 19/40/37 21/41/38 23/42/39
f 2/23/23 4/43/23 25/44/3 26/45/2
f 4/43/23 6/46/23 27/47/5 25/44/3
f 6/46/23 8/48/23 28/49/7 27/47/5
f 8/48/23 10/50/23 29/51/9 28/49/7
f 10/50/23 12/52/23 30/53/11 29/51/9
f 12/52/23 14/54/23 31/55/13 30/53/11
f 14/54/23 16/56/23 32/57/15 31/55/13
f 16/56/23 18/58/23 33/59/17 32/57/15
f 18/58/23 20/60/23 34/61/19 33/59/17
f 20/60/23 22/62/23 35/63/21 34/61/19
f 22/62/23 24/24/23 36/64/26 35/63/21
f 24/24/23 2/23/23 26/45/2 36/64/26
f 6/46/23 4/43/23 38/65/40 39/66/41
f 20/60/23 18/58/23 45/67/42 46/68/43
f 14/54/23 12/52/23 42/69/44 43/70/45
f 8/48/23 6/46/23 39/66/41 40/71/46
f 22/62/23 20/60/23 46/68/43 47/72/47
f 16/56/23 14/54/23 43/70/45 44/73/48
f 10/50/23 8/48/23 40/71/46 41/74/49
f 24/24/23 22/62/23 47/72/47 48/25/24
f 4/43/23 2/23/23 37/26/25 38/65/40
f 18/58/23 16/56/23 44/73/48 45/67/42
f 12/52/23 10/50/23 41/74/49 42/69/44
f 62/75/50 61/76/51 51/77/52 52/78/53
f 64/79/54 63/80/55 58/81/56 59/82/57
f 66/83/58 65/84/59 55/85/60 56/86/61
f 67/87/62 62/75/50 52/78/53 53/88/63
f 68/89/64 64/79/54 59/82/57 60/90/65
f 70/91/66 69/92/67 49/93/68 50/94/69
f 71/95/70 66/83/58 56/86/61 57/96/71
f 72/97/72 67/87/62 53/88/63 54/98/73
f 69/92/67 68/89/64 60/90/65 49/93/68
f 61/76/51 70/91/66 50/94/69 51/77/52
f 63/80/55 71/95/70 57/96/71 58/81/56
f 65/84/59 72/97/72 54/98/73 55/85/60
f 43/70/45 42/69/44 72/97/72 65/84/59
f 46/68/43 45/67/42 71/95/70 63/80/55
f 39/66/41 38/65/40 70/91/66 61/76/51
f 37/26/25 48/25/24 68/89/64 69/92/67
f 42/69/44 41/74/49 67/87/62 72/97/72
f 45/67/42 44/73/48 66/83/58 71/95/70
f 38/65/40 37/26/25 69/92/67 70/91/66
f 48/25/24 47/72/47 64/79/54 68/89/64
f 41/74/49 40/71/46 62/75/50 67/87/62
f 44/73/48 43/70/45 65/84/59 66/83/58
f 47/72/47 46/68/43 63/80/55 64/79/54
f 40/71/46 39/66/41 61/76/51 62/75/50
f 95/99/74 84/28/27 73/30/1 96/100/75
f 94/101/76 83/22/22 84/28/27 95/99/74
f 93/102/77 82/20/20 83/22/22 94/101/76
f 92/103/78 81/18/18 82/20/20 93/102/77
f 91/104/79 80/16/16 81/18/18 92/103/78
f 90/105/80 79/14/14 80/16/16 91/104/79
f 89/106/81 78/12/12 79/14/14 90/105/80
f 88/107/82 77/10/10 78/12/12 89/106/81
f 87/108/83 76/8/8 77/10/10 88/107/82
f 86/109/84 75/6/6 76/8/8 87/108/83
f 85/110/85 74/4/4 75/6/6 86/109/84
f 96/111/75 73/1/1 74/4/4 85/110/85
f 1/112/28 96/111/75 85/110/85 3/113/29
f 3/113/29 85/110/85 86/109/84 5/114/30
f 5/114/30 86/109/84 87/108/83 7/115/31
f 7/115/31 87/108/83 88/107/82 9/116/32
f 9/116/32 88/107/82 89/106/81 11/117/33
f 11/117/33 89/106/81 90/105/80 13/118/34
f 13/118/34 90/105/80 91/104/79 15/119/35
f 15/119/35 91/104/79 92/103/78 17/120/36
f 17/120/36 92/103/78 93/102/77 19/121/37
f 19/121/37 93/102/77 94/101/76 21/122/38
f 21/122/38 94/101/76 95/99/74 23/123/39
f 23/123/39 95/99/74 96/100/75 1/124/28
