mtllib CSGCombiner.mtl
o CSGCombiner
v -12 16 -25
v -12 16 -151
v -12 10 -151
v -12 10 -151
v -12 10 -25
v -12 16 -25
v -12 16 -25
v -118 16 -25
v -83.580559 16 -88.701233
v -118 16 -25
v -118 16 -151
v -83.580559 16 -88.701233
v -60.354324 16 -82.477783
v -12 16 -25
v -83.580559 16 -88.701233
v -83.580559 16 -88.701233
v -118 16 -151
v -79.234642 16 -104.920418
v -118 16 -151
v -12 16 -151
v -42.045441 16 -97.20076
v -12 16 -151
v -12 16 -25
v -42.045441 16 -97.20076
v -42.045441 16 -97.20076
v -12 16 -25
v -46.543716 16 -80.412971
v -46.543716 16 -80.412971
v -12 16 -25
v -46.952652 16 -78.88681
v -50.004974 16 -79.704681
v -12 16 -25
v -60.354324 16 -82.477783
v -46.952652 16 -78.88681
v -12 16 -25
v -50.004974 16 -79.704681
v -79.234642 16 -104.920418
v -118 16 -151
v -79.082283 16 -105.489021
v -79.082283 16 -105.489021
v -118 16 -151
v -78.673347 16 -107.015182
v -78.673347 16 -107.015182
v -118 16 -151
v -75.621017 16 -106.197311
v -42.045441 16 -97.20076
v -75.621017 16 -106.197311
v -118 16 -151
v -12 16 -25
v -12 10 -25
v -118 10 -25
v -118 10 -25
v -118 16 -25
v -12 16 -25
v -118 16 -151
v -118 16 -25
v -118 10 -25
v -118 10 -25
v -118 10 -151
v -118 16 -151
v -12 10 -25
v -12 10 -151
v -42.045441 10 -97.20076
v -12 10 -25
v -42.045441 10 -97.20076
v -42.454376 10 -95.674599
v -118 10 -25
v -12 10 -25
v -46.952652 10 -78.88681
v -12 10 -25
v -42.454376 10 -95.674599
v -46.952652 10 -78.88681
v -46.952652 10 -78.88681
v -67.936516 10 -84.509422
v -118 10 -25
v -42.045441 10 -97.20076
v -12 10 -151
v -45.097763 10 -98.018631
v -45.097763 10 -98.018631
v -12 10 -151
v -54.460991 10 -100.527496
v -80.528229 10 -87.883362
v -118 10 -25
v -67.936516 10 -84.509422
v -118 10 -151
v -118 10 -25
v -83.580559 10 -88.701233
v -118 10 -25
v -80.528229 10 -87.883362
v -83.580559 10 -88.701233
v -118 10 -151
v -83.580559 10 -88.701233
v -83.171623 10 -90.227394
v -12 10 -151
v -118 10 -151
v -78.673347 10 -107.015182
v -83.171623 10 -90.227394
v -78.673347 10 -107.015182
v -118 10 -151
v -54.460991 10 -100.527496
v -12 10 -151
v -78.673347 10 -107.015182
v -12 10 -151
v -12 16 -151
v -118 16 -151
v -118 16 -151
v -118 10 -151
v -12 10 -151
v -42.454376 10 -95.674599
v -42.045441 10 -97.20076
v -46.543716 16 -80.412971
v -46.543716 16 -80.412971
v -42.045441 10 -97.20076
v -42.045441 16 -97.20076
v -46.952652 16 -78.88681
v -42.454376 10 -95.674599
v -46.543716 16 -80.412971
v -42.454376 10 -95.674599
v -46.952652 16 -78.88681
v -46.952652 10 -78.88681
v -67.936516 10 -84.509422
v -46.952652 10 -78.88681
v -46.952652 16 -78.88681
v -80.528229 10 -87.883362
v -46.952652 16 -78.88681
v -50.004974 16 -79.704681
v -80.528229 10 -87.883362
v -67.936516 10 -84.509422
v -46.952652 16 -78.88681
v -60.354324 16 -82.477783
v -80.528229 10 -87.883362
v -50.004974 16 -79.704681
v -80.528229 10 -87.883362
v -83.580559 16 -88.701233
v -83.580559 10 -88.701233
v -80.528229 10 -87.883362
v -60.354324 16 -82.477783
v -83.580559 16 -88.701233
v -79.234642 16 -104.920418
v -83.580559 10 -88.701233
v -83.580559 16 -88.701233
v -83.171623 10 -90.227394
v -83.580559 10 -88.701233
v -79.234642 16 -104.920418
v -83.171623 10 -90.227394
v -79.234642 16 -104.920418
v -79.082283 16 -105.489021
v -78.673347 16 -107.015182
v -83.171623 10 -90.227394
v -79.082283 16 -105.489021
v -83.171623 10 -90.227394
v -78.673347 16 -107.015182
v -78.673347 10 -107.015182
v -42.045441 10 -97.20076
v -45.097763 10 -98.018631
v -42.045441 16 -97.20076
v -42.045441 16 -97.20076
v -45.097763 10 -98.018631
v -75.621017 16 -106.197311
v -54.460991 10 -100.527496
v -78.673347 10 -107.015182
v -78.673347 16 -107.015182
v -45.097763 10 -98.018631
v -78.673347 16 -107.015182
v -75.621017 16 -106.197311
v -45.097763 10 -98.018631
v -54.460991 10 -100.527496
v -78.673347 16 -107.015182
vt 0 0
vt 0 1
vt 1 1
vt 1 1
vt 1 0
vt 0 0
vt 0 0
vt 0 1
vt 0.505371 0.674805
vt 0 1
vt 1 1
vt 0.505371 0.674805
vt 0.456055 0.456055
vt 0 0
vt 0.505371 0.674805
vt 0.505371 0.674805
vt 1 1
vt 0.634277 0.634277
vt 1 1
vt 1 0
vt 0.572754 0.283447
vt 1 0
vt 0 0
vt 0.572754 0.283447
vt 0.572754 0.283447
vt 0 0
vt 0.439697 0.325684
vt 0.439697 0.325684
vt 0 0
vt 0.42749 0.32959
vt 0.434082 0.358398
vt 0 0
vt 0.456055 0.456055
vt 0.42749 0.32959
vt 0 0
vt 0.434082 0.358398
vt 0.634277 0.634277
vt 1 1
vt 0.638672 0.632812
vt 0.638672 0.632812
vt 1 1
vt 0.650879 0.628906
vt 0.650879 0.628906
vt 1 1
vt 0.644043 0.600098
vt 0.572754 0.283447
vt 0.644043 0.600098
vt 1 1
vt 0 0
vt 0 1
vt 1 1
vt 1 1
vt 1 0
vt 0 0
vt 0 0
vt 0 1
vt 1 1
vt 1 1
vt 1 0
vt 0 0
vt 0 1
vt 1 1
vt 0.572754 0.716309
vt 0 1
vt 0.572754 0.716309
vt 0.560547 0.712402
vt 0 0
vt 0 1
vt 0.42749 0.669922
vt 0 1
vt 0.560547 0.712402
vt 0.42749 0.669922
vt 0.42749 0.669922
vt 0.472168 0.472168
vt 0 0
vt 0.572754 0.716309
vt 1 1
vt 0.579102 0.6875
vt 0.579102 0.6875
vt 1 1
vt 0.599121 0.599121
vt 0.499023 0.353271
vt 0 0
vt 0.472168 0.472168
vt 1 0
vt 0 0
vt 0.505371 0.324707
vt 0 0
vt 0.499023 0.353271
vt 0.505371 0.324707
vt 1 0
vt 0.505371 0.324707
vt 0.517578 0.328369
vt 1 1
vt 1 0
vt 0.650879 0.37085
vt 0.517578 0.328369
vt 0.650879 0.37085
vt 1 0
vt 0.599121 0.599121
vt 1 1
vt 0.650879 0.37085
vt 0 0
vt 0 1
vt 1 1
vt 1 1
vt 1 0
vt 0 0
vt 0.916504 0.916504
vt 0.916504 1
vt 0.083313 0.083313
vt 0.083313 0.083313
vt 0.916504 1
vt 0.083313 1
vt 0.083313 0
vt 0.916504 0.916504
vt 0.083313 0.083313
vt 0.916504 0.916504
vt 0.083313 0
vt 0.916504 0
vt 0.572754 0.916504
vt 0 0.916504
vt 0 0.083313
vt 0.916504 0.916504
vt 0 0.083313
vt 0.083313 0.083313
vt 0.916504 0.916504
vt 0.572754 0.916504
vt 0 0.083313
vt 0.365723 0.083313
vt 0.916504 0.916504
vt 0.083313 0.083313
vt 0.916504 0.916504
vt 1 0.083313
vt 1 0.916504
vt 0.916504 0.916504
vt 0.365723 0.083313
vt 1 0.083313
vt 0.083313 0.11438
vt 0.916504 1
vt 0.083313 1
vt 0.916504 0.916504
vt 0.916504 1
vt 0.083313 0.11438
vt 0.916504 0.916504
vt 0.083313 0.11438
vt 0.083313 0.083313
vt 0.083313 0
vt 0.916504 0.916504
vt 0.083313 0.083313
vt 0.916504 0.916504
vt 0.083313 0
vt 0.916504 0
vt 0 0.083313
vt 0.083313 0.083313
vt 0 0.916504
vt 0 0.916504
vt 0.083313 0.083313
vt 0.916504 0.916504
vt 0.338867 0.083313
vt 1 0.083313
vt 1 0.916504
vt 0.083313 0.083313
vt 1 0.916504
vt 0.916504 0.916504
vt 0.083313 0.083313
vt 0.338867 0.083313
vt 1 0.916504
vn 1 0 0
vn 1 0 0
vn 1 0 0
vn 1 0 0
vn 1 0 0
vn 1 0 0
vn 0 1 0
vn 0 1 0
vn 0 1 0
vn 0 1 0
vn 0 1 0
vn 0 1 0
vn 0 1 0
vn 0 1 0
vn 0 1 0
vn 0 1 0
vn 0 1 0
vn 0 1 0
vn 0 1 0
vn 0 1 0
vn 0 1 0
vn 0 1 0
vn 0 1 0
vn 0 1 0
vn 0 1 0
vn 0 1 0
vn 0 1 0
vn 0 1 0
vn 0 1 0
vn 0 1 0
vn 0 1 0
vn 0 1 0
vn 0 1 0
vn 0 1 0
vn 0 1 0
vn 0 1 0
vn 0 1 0
vn 0 1 0
vn 0 1 0
vn 0 1 0
vn 0 1 0
vn 0 1 0
vn 0 1 0
vn 0 1 0
vn 0 1 0
vn 0 1 0
vn 0 1 0
vn 0 1 0
vn 0 0 1
vn 0 0 1
vn 0 0 1
vn 0 0 1
vn 0 0 1
vn 0 0 1
vn -1 0 0
vn -1 0 0
vn -1 0 0
vn -1 0 0
vn -1 0 0
vn -1 0 0
vn 0 -1 0
vn 0 -1 0
vn 0 -1 0
vn 0 -1 0
vn 0 -1 0
vn 0 -1 0
vn 0 -1 0
vn 0 -1 0
vn 0 -1 0
vn 0 -1 0
vn 0 -1 0
vn 0 -1 0
vn 0 -1 0
vn 0 -1 0
vn 0 -1 0
vn 0 -1 0
vn 0 -1 0
vn 0 -1 0
vn 0 -1 0
vn 0 -1 0
vn 0 -1 0
vn 0 -1 0
vn 0 -1 0
vn 0 -1 0
vn 0 -1 0
vn 0 -1 0
vn 0 -1 0
vn 0 -1 0
vn 0 -1 0
vn 0 -1 0
vn 0 -1 0
vn 0 -1 0
vn 0 -1 0
vn 0 -1 0
vn 0 -1 0
vn 0 -1 0
vn 0 -1 0
vn 0 -1 0
vn 0 -1 0
vn 0 -1 0
vn 0 -1 0
vn 0 -1 0
vn 0 0 -1
vn 0 0 -1
vn 0 0 -1
vn 0 0 -1
vn 0 0 -1
vn 0 0 -1
vn -0.96063 0 -0.251969
vn -0.96063 0 -0.251969
vn -0.96063 0 -0.251969
vn -0.96063 0 -0.251969
vn -0.96063 0 -0.251969
vn -0.96063 0 -0.251969
vn -0.96063 0 -0.251969
vn -0.96063 0 -0.251969
vn -0.96063 0 -0.251969
vn -0.96063 0 -0.251969
vn -0.96063 0 -0.251969
vn -0.96063 0 -0.251969
vn 0.251969 0 -0.96063
vn 0.251969 0 -0.96063
vn 0.251969 0 -0.96063
vn 0.251969 0 -0.96063
vn 0.251969 0 -0.96063
vn 0.251969 0 -0.96063
vn 0.251969 0 -0.96063
vn 0.251969 0 -0.96063
vn 0.251969 0 -0.96063
vn 0.251969 0 -0.96063
vn 0.251969 0 -0.96063
vn 0.251969 0 -0.96063
vn 0.251969 0 -0.96063
vn 0.251969 0 -0.96063
vn 0.251969 0 -0.96063
vn 0.251969 0 -0.96063
vn 0.251969 0 -0.96063
vn 0.251969 0 -0.96063
vn 0.96063 0 0.251969
vn 0.96063 0 0.251969
vn 0.96063 0 0.251969
vn 0.96063 0 0.251969
vn 0.96063 0 0.251969
vn 0.96063 0 0.251969
vn 0.96063 0 0.251969
vn 0.96063 0 0.251969
vn 0.96063 0 0.251969
vn 0.96063 0 0.251969
vn 0.96063 0 0.251969
vn 0.96063 0 0.251969
vn 0.96063 0 0.251969
vn 0.96063 0 0.251969
vn 0.96063 0 0.251969
vn -0.251969 0 0.96063
vn -0.251969 0 0.96063
vn -0.251969 0 0.96063
vn -0.251969 0 0.96063
vn -0.251969 0 0.96063
vn -0.251969 0 0.96063
vn -0.251969 0 0.96063
vn -0.251969 0 0.96063
vn -0.251969 0 0.96063
vn -0.251969 0 0.96063
vn -0.251969 0 0.96063
vn -0.251969 0 0.96063
vn -0.251969 0 0.96063
vn -0.251969 0 0.96063
vn -0.251969 0 0.96063
g surface0
usemtl [SpatialMaterial:1532009]
f 3/3/3 2/2/2 1/1/1
f 6/6/6 5/5/5 4/4/4
f 9/9/9 8/8/8 7/7/7
f 12/12/12 11/11/11 10/10/10
f 15/15/15 14/14/14 13/13/13
f 18/18/18 17/17/17 16/16/16
f 21/21/21 20/20/20 19/19/19
f 24/24/24 23/23/23 22/22/22
f 27/27/27 26/26/26 25/25/25
f 30/30/30 29/29/29 28/28/28
f 33/33/33 32/32/32 31/31/31
f 36/36/36 35/35/35 34/34/34
f 39/39/39 38/38/38 37/37/37
f 42/42/42 41/41/41 40/40/40
f 45/45/45 44/44/44 43/43/43
f 48/48/48 47/47/47 46/46/46
f 51/51/51 50/50/50 49/49/49
f 54/54/54 53/53/53 52/52/52
f 57/57/57 56/56/56 55/55/55
f 60/60/60 59/59/59 58/58/58
f 63/63/63 62/62/62 61/61/61
f 66/66/66 65/65/65 64/64/64
f 69/69/69 68/68/68 67/67/67
f 72/72/72 71/71/71 70/70/70
f 75/75/75 74/74/74 73/73/73
f 78/78/78 77/77/77 76/76/76
f 81/81/81 80/80/80 79/79/79
f 84/84/84 83/83/83 82/82/82
f 87/87/87 86/86/86 85/85/85
f 90/90/90 89/89/89 88/88/88
f 93/93/93 92/92/92 91/91/91
f 96/96/96 95/95/95 94/94/94
f 99/99/99 98/98/98 97/97/97
f 102/102/102 101/101/101 100/100/100
f 105/105/105 104/104/104 103/103/103
f 108/108/108 107/107/107 106/106/106
f 111/111/111 110/110/110 109/109/109
f 114/114/114 113/113/113 112/112/112
f 117/117/117 116/116/116 115/115/115
f 120/120/120 119/119/119 118/118/118
f 123/123/123 122/122/122 121/121/121
f 126/126/126 125/125/125 124/124/124
f 129/129/129 128/128/128 127/127/127
f 132/132/132 131/131/131 130/130/130
f 135/135/135 134/134/134 133/133/133
f 138/138/138 137/137/137 136/136/136
f 141/141/141 140/140/140 139/139/139
f 144/144/144 143/143/143 142/142/142
f 147/147/147 146/146/146 145/145/145
f 150/150/150 149/149/149 148/148/148
f 153/153/153 152/152/152 151/151/151
f 156/156/156 155/155/155 154/154/154
f 159/159/159 158/158/158 157/157/157
f 162/162/162 161/161/161 160/160/160
f 165/165/165 164/164/164 163/163/163
f 168/168/168 167/167/167 166/166/166
