mtllib PitFloor.mtl
o PitFloor
v -2 30 263
v -2 30 121
v -2 28 121
v -2 28 121
v -2 28 263
v -2 30 263
v -2 30 263
v -128 30 263
v -55 30 209.320511
v -52.155281 30 206.4758
v -2 30 263
v -53.169872 30 207.490387
v -2 30 263
v -55 30 209.320511
v -53.169872 30 207.490387
v -62.5 30 211.330124
v -55 30 209.320511
v -128 30 263
v -128 30 263
v -65 30 212
v -62.5 30 211.330124
v -72.5 30 209.990387
v -65 30 212
v -128 30 263
v -128 30 263
v -75 30 209.320511
v -72.5 30 209.990387
v -128 30 263
v -128 30 121
v -82.320511 30 202
v -80.490387 30 203.830124
v -75 30 209.320511
v -128 30 263
v -128 30 263
v -82.320511 30 202
v -80.490387 30 203.830124
v -85 30 192
v -84.330124 30 194.5
v -128 30 121
v -84.330124 30 194.5
v -82.320511 30 202
v -128 30 121
v -82.320511 30 182
v -82.990387 30 184.5
v -128 30 121
v -85 30 192
v -128 30 121
v -82.990387 30 184.5
v -82.320511 30 182
v -128 30 121
v -77.844719 30 177.5242
v -2 30 121
v -2 30 263
v -47.679489 30 202
v -47.679489 30 202
v -2 30 263
v -52.155281 30 206.4758
v -2 30 121
v -47.679489 30 202
v -47.009621 30 199.5
v -2 30 121
v -47.009621 30 199.5
v -45 30 192
v -77.844719 30 177.5242
v -128 30 121
v -76.830124 30 176.509613
v -128 30 121
v -75 30 174.679489
v -76.830124 30 176.509613
v -128 30 121
v -2 30 121
v -65 30 172
v -128 30 121
v -65 30 172
v -67.5 30 172.669876
v -67.5 30 172.669876
v -75 30 174.679489
v -128 30 121
v -57.5 30 174.009613
v -65 30 172
v -2 30 121
v -2 30 121
v -55 30 174.679489
v -57.5 30 174.009613
v -45.669876 30 189.5
v -47.679489 30 182
v -2 30 121
v -2 30 121
v -45 30 192
v -45.669876 30 189.5
v -49.509613 30 180.169876
v -55 30 174.679489
v -2 30 121
v -2 30 121
v -47.679489 30 182
v -49.509613 30 180.169876
v -2 30 263
v -2 28 263
v -128 28 263
v -128 28 263
v -128 30 263
v -2 30 263
v -128 30 121
v -128 30 263
v -128 28 263
v -128 28 263
v -128 28 121
v -128 30 121
v -2 28 263
v -2 28 121
v -47.679489 28 202
v -47.679489 28 202
v -2 28 121
v -45.669876 28 194.5
v -45.669876 28 194.5
v -2 28 121
v -45 28 192
v -128 28 263
v -2 28 263
v -55 28 209.320511
v -49.509621 28 203.830124
v -55 28 209.320511
v -2 28 263
v -2 28 263
v -47.679489 28 202
v -49.509621 28 203.830124
v -128 28 263
v -55 28 209.320511
v -57.5 28 209.990387
v -57.5 28 209.990387
v -65 28 212
v -128 28 263
v -75 28 209.320511
v -128 28 263
v -67.5 28 211.330124
v -67.5 28 211.330124
v -128 28 263
v -65 28 212
v -77.844719 28 206.4758
v -128 28 263
v -76.830124 28 207.490387
v -128 28 263
v -75 28 209.320511
v -76.830124 28 207.490387
v -47.009613 28 184.5
v -45 28 192
v -2 28 121
v -2 28 121
v -47.679489 28 182
v -47.009613 28 184.5
v -47.679489 28 182
v -2 28 121
v -52.155281 28 177.5242
v -128 28 121
v -128 28 263
v -82.320511 28 202
v -82.320511 28 202
v -128 28 263
v -77.844719 28 206.4758
v -82.990387 28 199.5
v -85 28 192
v -128 28 121
v -128 28 121
v -82.320511 28 202
v -82.990387 28 199.5
v -84.330124 28 189.5
v -82.320511 28 182
v -128 28 121
v -128 28 121
v -85 28 192
v -84.330124 28 189.5
v -2 28 121
v -128 28 121
v -75 28 174.679489
v -80.490387 28 180.169876
v -75 28 174.679489
v -128 28 121
v -128 28 121
v -82.320511 28 182
v -80.490387 28 180.169876
v -2 28 121
v -75 28 174.679489
v -72.5 28 174.009613
v -72.5 28 174.009613
v -65 28 172
v -2 28 121
v -62.5 28 172.669876
v -55 28 174.679489
v -2 28 121
v -62.5 28 172.669876
v -2 28 121
v -65 28 172
v -52.155281 28 177.5242
v -2 28 121
v -53.169872 28 176.509613
v -2 28 121
v -55 28 174.679489
v -53.169872 28 176.509613
v -2 28 121
v -2 30 121
v -128 30 121
v -128 30 121
v -128 28 121
v -2 28 121
v -47.679489 30 202
v -45.669876 28 194.5
v -47.009621 30 199.5
v -45.669876 28 194.5
v -47.679489 30 202
v -47.679489 28 202
v -45.669876 28 194.5
v -45 28 192
v -47.009621 30 199.5
v -47.009621 30 199.5
v -45 28 192
v -45 30 192
v -55 30 209.320511
v -49.509621 28 203.830124
v -53.169872 30 207.490387
v -49.509621 28 203.830124
v -55 30 209.320511
v -55 28 209.320511
v -52.155281 30 206.4758
v -47.679489 28 202
v -47.679489 30 202
v -49.509621 28 203.830124
v -47.679489 28 202
v -52.155281 30 206.4758
v -49.509621 28 203.830124
v -52.155281 30 206.4758
v -53.169872 30 207.490387
v -65 30 212
v -57.5 28 209.990387
v -62.5 30 211.330124
v -57.5 28 209.990387
v -65 30 212
v -65 28 212
v -57.5 28 209.990387
v -55 28 209.320511
v -62.5 30 211.330124
v -62.5 30 211.330124
v -55 28 209.320511
v -55 30 209.320511
v -75 30 209.320511
v -67.5 28 211.330124
v -72.5 30 209.990387
v -67.5 28 211.330124
v -75 30 209.320511
v -75 28 209.320511
v -67.5 28 211.330124
v -65 28 212
v -72.5 30 209.990387
v -72.5 30 209.990387
v -65 28 212
v -65 30 212
v -82.320511 30 202
v -76.830124 28 207.490387
v -80.490387 30 203.830124
v -82.320511 28 202
v -77.844719 28 206.4758
v -82.320511 30 202
v -76.830124 28 207.490387
v -82.320511 30 202
v -77.844719 28 206.4758
v -76.830124 28 207.490387
v -75 28 209.320511
v -80.490387 30 203.830124
v -80.490387 30 203.830124
v -75 28 209.320511
v -75 30 209.320511
v -85 30 192
v -82.990387 28 199.5
v -84.330124 30 194.5
v -82.990387 28 199.5
v -85 30 192
v -85 28 192
v -82.990387 28 199.5
v -82.320511 28 202
v -84.330124 30 194.5
v -84.330124 30 194.5
v -82.320511 28 202
v -82.320511 30 202
v -82.320511 30 182
v -84.330124 28 189.5
v -82.990387 30 184.5
v -84.330124 28 189.5
v -82.320511 30 182
v -82.320511 28 182
v -84.330124 28 189.5
v -85 28 192
v -82.990387 30 184.5
v -82.990387 30 184.5
v -85 28 192
v -85 30 192
v -75 30 174.679489
v -80.490387 28 180.169876
v -76.830124 30 176.509613
v -80.490387 28 180.169876
v -75 30 174.679489
v -75 28 174.679489
v -77.844719 30 177.5242
v -82.320511 28 182
v -82.320511 30 182
v -80.490387 28 180.169876
v -82.320511 28 182
v -77.844719 30 177.5242
v -80.490387 28 180.169876
v -77.844719 30 177.5242
v -76.830124 30 176.509613
v -65 30 172
v -72.5 28 174.009613
v -67.5 30 172.669876
v -72.5 28 174.009613
v -65 30 172
v -65 28 172
v -72.5 28 174.009613
v -75 28 174.679489
v -67.5 30 172.669876
v -67.5 30 172.669876
v -75 28 174.679489
v -75 30 174.679489
v -55 30 174.679489
v -62.5 28 172.669876
v -57.5 30 174.009613
v -62.5 28 172.669876
v -55 30 174.679489
v -55 28 174.679489
v -62.5 28 172.669876
v -65 28 172
v -57.5 30 174.009613
v -57.5 30 174.009613
v -65 28 172
v -65 30 172
v -47.679489 30 182
v -53.169872 28 176.509613
v -49.509613 30 180.169876
v -47.679489 28 182
v -52.155281 28 177.5242
v -47.679489 30 182
v -53.169872 28 176.509613
v -47.679489 30 182
v -52.155281 28 177.5242
v -53.169872 28 176.509613
v -55 28 174.679489
v -49.509613 30 180.169876
v -49.509613 30 180.169876
v -55 28 174.679489
v -55 30 174.679489
v -45 30 192
v -47.009613 28 184.5
v -45.669876 30 189.5
v -47.009613 28 184.5
v -45 30 192
v -45 28 192
v -47.009613 28 184.5
v -47.679489 28 182
v -45.669876 30 189.5
v -45.669876 30 189.5
v -47.679489 28 182
v -47.679489 30 182
vt 0 0
vt 0 1
vt 1 1
vt 1 1
vt 1 0
vt 0 0
vt 0 0
vt 0 1
vt 0.37793 0.42041
vt 0.397949 0.397949
vt 0 0
vt 0.390869 0.406006
vt 0 0
vt 0.37793 0.42041
vt 0.390869 0.406006
vt 0.36377 0.47998
vt 0.37793 0.42041
vt 0 1
vt 0 1
vt 0.359131 0.499756
vt 0.36377 0.47998
vt 0.373291 0.559082
vt 0.359131 0.499756
vt 0 1
vt 0 1
vt 0.37793 0.579102
vt 0.373291 0.559082
vt 0 1
vt 1 1
vt 0.429443 0.637207
vt 0.416504 0.622559
vt 0.37793 0.579102
vt 0 1
vt 0 1
vt 0.429443 0.637207
vt 0.416504 0.622559
vt 0.5 0.658691
vt 0.482178 0.65332
vt 1 1
vt 0.482178 0.65332
vt 0.429443 0.637207
vt 1 1
vt 0.570312 0.637207
vt 0.552734 0.642578
vt 1 1
vt 0.5 0.658691
vt 1 1
vt 0.552734 0.642578
vt 0.570312 0.637207
vt 1 1
vt 0.601562 0.601562
vt 1 0
vt 0 0
vt 0.429443 0.362305
vt 0.429443 0.362305
vt 0 0
vt 0.397949 0.397949
vt 1 0
vt 0.429443 0.362305
vt 0.447021 0.357178
vt 1 0
vt 0.447021 0.357178
vt 0.5 0.341064
vt 0.601562 0.601562
vt 1 1
vt 0.608887 0.59375
vt 1 1
vt 0.621582 0.579102
vt 0.608887 0.59375
vt 1 1
vt 1 0
vt 0.640625 0.5
vt 1 1
vt 0.640625 0.5
vt 0.635742 0.519531
vt 0.635742 0.519531
vt 0.621582 0.579102
vt 1 1
vt 0.626465 0.44043
vt 0.640625 0.5
vt 1 0
vt 1 0
vt 0.621582 0.42041
vt 0.626465 0.44043
vt 0.517578 0.346436
vt 0.570312 0.362305
vt 1 0
vt 1 0
vt 0.5 0.341064
vt 0.517578 0.346436
vt 0.583008 0.376953
vt 0.621582 0.42041
vt 1 0
vt 1 0
vt 0.570312 0.362305
vt 0.583008 0.376953
vt 0 0
vt 0 1
vt 1 1
vt 1 1
vt 1 0
vt 0 0
vt 0 0
vt 0 1
vt 1 1
vt 1 1
vt 1 0
vt 0 0
vt 0 1
vt 1 1
vt 0.429443 0.637207
vt 0.429443 0.637207
vt 1 1
vt 0.482178 0.65332
vt 0.482178 0.65332
vt 1 1
vt 0.5 0.658691
vt 0 0
vt 0 1
vt 0.37793 0.579102
vt 0.416504 0.622559
vt 0.37793 0.579102
vt 0 1
vt 0 1
vt 0.429443 0.637207
vt 0.416504 0.622559
vt 0 0
vt 0.37793 0.579102
vt 0.373291 0.55957
vt 0.373291 0.55957
vt 0.359131 0.5
vt 0 0
vt 0.37793 0.42041
vt 0 0
vt 0.36377 0.47998
vt 0.36377 0.47998
vt 0 0
vt 0.359131 0.5
vt 0.397949 0.397949
vt 0 0
vt 0.390869 0.406006
vt 0 0
vt 0.37793 0.42041
vt 0.390869 0.406006
vt 0.552734 0.642578
vt 0.5 0.658691
vt 1 1
vt 1 1
vt 0.570312 0.637207
vt 0.552734 0.642578
vt 0.570312 0.637207
vt 1 1
vt 0.601562 0.601562
vt 1 0
vt 0 0
vt 0.429443 0.362305
vt 0.429443 0.362305
vt 0 0
vt 0.397949 0.397949
vt 0.447021 0.357178
vt 0.499756 0.341064
vt 1 0
vt 1 0
vt 0.429443 0.362305
vt 0.447021 0.357178
vt 0.517578 0.346436
vt 0.570312 0.362305
vt 1 0
vt 1 0
vt 0.499756 0.341064
vt 0.517578 0.346436
vt 1 1
vt 1 0
vt 0.621582 0.42041
vt 0.583008 0.376953
vt 0.621582 0.42041
vt 1 0
vt 1 0
vt 0.570312 0.362305
vt 0.583008 0.376953
vt 1 1
vt 0.621582 0.42041
vt 0.626465 0.440186
vt 0.626465 0.440186
vt 0.640625 0.499756
vt 1 1
vt 0.635742 0.519531
vt 0.621582 0.579102
vt 1 1
vt 0.635742 0.519531
vt 1 1
vt 0.640625 0.499756
vt 0.601562 0.601562
vt 1 1
vt 0.608887 0.59375
vt 1 1
vt 0.621582 0.579102
vt 0.608887 0.59375
vt 0 0
vt 0 1
vt 1 1
vt 1 1
vt 1 0
vt 0 0
vt 0.083313 0.75
vt 0.020828 0.25
vt 0.0625 0.75
vt 0.020828 0.25
vt 0.083313 0.75
vt 0.083313 0.25
vt 0.020828 0.25
vt 0 0.25
vt 0.0625 0.75
vt 0.0625 0.75
vt 0 0.25
vt 0 0.75
vt 0.166626 0.75
vt 0.104126 0.249878
vt 0.145752 0.749512
vt 0.104126 0.249878
vt 0.166626 0.75
vt 0.166626 0.25
vt 0.134277 0.749512
vt 0.083313 0.25
vt 0.083313 0.75
vt 0.104126 0.249878
vt 0.083313 0.25
vt 0.134277 0.749512
vt 0.104126 0.249878
vt 0.134277 0.749512
vt 0.145752 0.749512
vt 0.25 0.75
vt 0.1875 0.25
vt 0.229126 0.75
vt 0.1875 0.25
vt 0.25 0.75
vt 0.25 0.25
vt 0.1875 0.25
vt 0.166626 0.25
vt 0.229126 0.75
vt 0.229126 0.75
vt 0.166626 0.25
vt 0.166626 0.75
vt 0.333252 0.75
vt 0.270752 0.249878
vt 0.312256 0.749512
vt 0.270752 0.249878
vt 0.333252 0.75
vt 0.333252 0.25
vt 0.270752 0.25
vt 0.25 0.25
vt 0.3125 0.749512
vt 0.3125 0.749512
vt 0.25 0.25
vt 0.25 0.75
vt 0.416504 0.75
vt 0.354004 0.249878
vt 0.395752 0.75
vt 0.416504 0.25
vt 0.365479 0.249878
vt 0.416504 0.75
vt 0.354004 0.249878
vt 0.416504 0.75
vt 0.365479 0.249878
vt 0.354004 0.249878
vt 0.333252 0.25
vt 0.395752 0.75
vt 0.395752 0.75
vt 0.333252 0.25
vt 0.333252 0.75
vt 0.5 0.75
vt 0.437256 0.249878
vt 0.479004 0.75
vt 0.437256 0.249878
vt 0.5 0.75
vt 0.5 0.25
vt 0.437256 0.249878
vt 0.416504 0.25
vt 0.479004 0.75
vt 0.479004 0.75
vt 0.416504 0.25
vt 0.416504 0.75
vt 0.583008 0.75
vt 0.520508 0.25
vt 0.5625 0.75
vt 0.520508 0.25
vt 0.583008 0.75
vt 0.583008 0.25
vt 0.520508 0.25
vt 0.5 0.25
vt 0.5625 0.75
vt 0.5625 0.75
vt 0.5 0.25
vt 0.5 0.75
vt 0.666504 0.75
vt 0.604004 0.25
vt 0.645508 0.75
vt 0.604004 0.25
vt 0.666504 0.75
vt 0.666504 0.25
vt 0.634277 0.75
vt 0.583008 0.25
vt 0.583008 0.75
vt 0.604004 0.25
vt 0.583008 0.25
vt 0.634277 0.75
vt 0.604004 0.25
vt 0.634277 0.75
vt 0.645508 0.749512
vt 0.75 0.75
vt 0.6875 0.25
vt 0.729004 0.75
vt 0.6875 0.25
vt 0.75 0.75
vt 0.75 0.25
vt 0.6875 0.25
vt 0.666504 0.25
vt 0.729004 0.75
vt 0.729004 0.75
vt 0.666504 0.25
vt 0.666504 0.75
vt 0.833008 0.75
vt 0.770508 0.249878
vt 0.8125 0.749512
vt 0.770508 0.249878
vt 0.833008 0.75
vt 0.833008 0.25
vt 0.770508 0.249878
vt 0.75 0.25
vt 0.8125 0.749512
vt 0.8125 0.749512
vt 0.75 0.25
vt 0.75 0.75
vt 0.916504 0.75
vt 0.854004 0.249878
vt 0.895508 0.75
vt 0.916504 0.25
vt 0.865234 0.25
vt 0.916504 0.75
vt 0.854004 0.249878
vt 0.916504 0.75
vt 0.865234 0.25
vt 0.854004 0.249878
vt 0.833008 0.25
vt 0.895508 0.749512
vt 0.895508 0.749512
vt 0.833008 0.25
vt 0.833008 0.75
vt 1 0.75
vt 0.9375 0.25
vt 0.979004 0.749512
vt 0.9375 0.25
vt 1 0.75
vt 1 0.25
vt 0.9375 0.25
vt 0.916504 0.25
vt 0.979004 0.749512
vt 0.979004 0.749512
vt 0.916504 0.25
vt 0.916504 0.75
vn 1 0 0
vn 1 0 0
vn 1 0 0
vn 1 0 0
vn 1 0 0
vn 1 0 0
vn 0 1 0
vn 0 1 0
vn 0 1 0
vn 0 1 0
vn 0 1 0
vn 0 1 0
vn 0 1 0
vn 0 1 0
vn 0 1 0
vn 0 1 0
vn 0 1 0
vn 0 1 0
vn 0 1 0
vn 0 1 0
vn 0 1 0
vn 0 1 0
vn 0 1 0
vn 0 1 0
vn 0 1 0
vn 0 1 0
vn 0 1 0
vn 0 1 0
vn 0 1 0
vn 0 1 0
vn 0 1 0
vn 0 1 0
vn 0 1 0
vn 0 1 0
vn 0 1 0
vn 0 1 0
vn 0 1 0
vn 0 1 0
vn 0 1 0
vn 0 1 0
vn 0 1 0
vn 0 1 0
vn 0 1 0
vn 0 1 0
vn 0 1 0
vn 0 1 0
vn 0 1 0
vn 0 1 0
vn 0 1 0
vn 0 1 0
vn 0 1 0
vn 0 1 0
vn 0 1 0
vn 0 1 0
vn 0 1 0
vn 0 1 0
vn 0 1 0
vn 0 1 0
vn 0 1 0
vn 0 1 0
vn 0 1 0
vn 0 1 0
vn 0 1 0
vn 0 1 0
vn 0 1 0
vn 0 1 0
vn 0 1 0
vn 0 1 0
vn 0 1 0
vn 0 1 0
vn 0 1 0
vn 0 1 0
vn 0 1 0
vn 0 1 0
vn 0 1 0
vn 0 1 0
vn 0 1 0
vn 0 1 0
vn 0 1 0
vn 0 1 0
vn 0 1 0
vn 0 1 0
vn 0 1 0
vn 0 1 0
vn 0 1 0
vn 0 1 0
vn 0 1 0
vn 0 1 0
vn 0 1 0
vn 0 1 0
vn 0 1 0
vn 0 1 0
vn 0 1 0
vn 0 1 0
vn 0 1 0
vn 0 1 0
vn 0 0 1
vn 0 0 1
vn 0 0 1
vn 0 0 1
vn 0 0 1
vn 0 0 1
vn -1 0 0
vn -1 0 0
vn -1 0 0
vn -1 0 0
vn -1 0 0
vn -1 0 0
vn 0 -1 0
vn 0 -1 0
vn 0 -1 0
vn 0 -1 0
vn 0 -1 0
vn 0 -1 0
vn 0 -1 0
vn 0 -1 0
vn 0 -1 0
vn 0 -1 0
vn 0 -1 0
vn 0 -1 0
vn 0 -1 0
vn 0 -1 0
vn 0 -1 0
vn 0 -1 0
vn 0 -1 0
vn 0 -1 0
vn 0 -1 0
vn 0 -1 0
vn 0 -1 0
vn 0 -1 0
vn 0 -1 0
vn 0 -1 0
vn 0 -1 0
vn 0 -1 0
vn 0 -1 0
vn 0 -1 0
vn 0 -1 0
vn 0 -1 0
vn 0 -1 0
vn 0 -1 0
vn 0 -1 0
vn 0 -1 0
vn 0 -1 0
vn 0 -1 0
vn 0 -1 0
vn 0 -1 0
vn 0 -1 0
vn 0 -1 0
vn 0 -1 0
vn 0 -1 0
vn 0 -1 0
vn 0 -1 0
vn 0 -1 0
vn 0 -1 0
vn 0 -1 0
vn 0 -1 0
vn 0 -1 0
vn 0 -1 0
vn 0 -1 0
vn 0 -1 0
vn 0 -1 0
vn 0 -1 0
vn 0 -1 0
vn 0 -1 0
vn 0 -1 0
vn 0 -1 0
vn 0 -1 0
vn 0 -1 0
vn 0 -1 0
vn 0 -1 0
vn 0 -1 0
vn 0 -1 0
vn 0 -1 0
vn 0 -1 0
vn 0 -1 0
vn 0 -1 0
vn 0 -1 0
vn 0 -1 0
vn 0 -1 0
vn 0 -1 0
vn 0 -1 0
vn 0 -1 0
vn 0 -1 0
vn 0 -1 0
vn 0 -1 0
vn 0 -1 0
vn 0 -1 0
vn 0 -1 0
vn 0 -1 0
vn 0 -1 0
vn 0 -1 0
vn 0 -1 0
vn 0 -1 0
vn 0 -1 0
vn 0 -1 0
vn 0 -1 0
vn 0 -1 0
vn 0 -1 0
vn 0 0 -1
vn 0 0 -1
vn 0 0 -1
vn 0 0 -1
vn 0 0 -1
vn 0 0 -1
vn -0.629921 0.716535 -0.291339
vn -0.80315 -0.551181 -0.212598
vn -0.80315 0.551181 -0.212598
vn -0.80315 -0.551181 -0.212598
vn -0.629921 0.716535 -0.291339
vn -0.566929 -0.716535 -0.393701
vn -0.80315 -0.551181 -0.212598
vn -0.818898 -0.559055 -0.070866
vn -0.80315 0.551181 -0.212598
vn -0.80315 0.551181 -0.212598
vn -0.818898 -0.559055 -0.070866
vn -0.818898 0.559055 0.070866
vn -0.393701 0.716535 -0.566929
vn -0.629921 -0.440945 -0.629921
vn -0.496063 0.700787 -0.496063
vn -0.629921 -0.440945 -0.629921
vn -0.393701 0.716535 -0.566929
vn -0.291339 -0.716535 -0.629921
vn -0.582677 0.551181 -0.582677
vn -0.566929 -0.716535 -0.393701
vn -0.629921 0.716535 -0.291339
vn -0.629921 -0.440945 -0.629921
vn -0.566929 -0.716535 -0.393701
vn -0.582677 0.551181 -0.582677
vn -0.629921 -0.440945 -0.629921
vn -0.582677 0.551181 -0.582677
vn -0.496063 0.700787 -0.496063
vn -0.070866 0.559055 -0.818898
vn -0.212598 -0.551181 -0.80315
vn -0.212598 0.551181 -0.80315
vn -0.212598 -0.551181 -0.80315
vn -0.070866 0.559055 -0.818898
vn 0.070866 -0.559055 -0.818898
vn -0.212598 -0.551181 -0.80315
vn -0.291339 -0.716535 -0.629921
vn -0.212598 0.551181 -0.80315
vn -0.212598 0.551181 -0.80315
vn -0.291339 -0.716535 -0.629921
vn -0.393701 0.716535 -0.566929
vn 0.346457 0.559055 -0.740157
vn 0.212598 -0.551181 -0.80315
vn 0.212598 0.551181 -0.80315
vn 0.212598 -0.551181 -0.80315
vn 0.346457 0.559055 -0.740157
vn 0.472441 -0.559055 -0.669291
vn 0.212598 -0.551181 -0.80315
vn 0.070866 -0.559055 -0.818898
vn 0.212598 0.551181 -0.80315
vn 0.212598 0.551181 -0.80315
vn 0.070866 -0.559055 -0.818898
vn -0.070866 0.559055 -0.818898
vn 0.622047 0.606299 -0.480315
vn 0.582677 -0.551181 -0.582677
vn 0.582677 0.551181 -0.582677
vn 0.629921 -0.716535 -0.291339
vn 0.496063 -0.700787 -0.496063
vn 0.622047 0.606299 -0.480315
vn 0.582677 -0.551181 -0.582677
vn 0.622047 0.606299 -0.480315
vn 0.496063 -0.700787 -0.496063
vn 0.582677 -0.551181 -0.582677
vn 0.472441 -0.559055 -0.669291
vn 0.582677 0.551181 -0.582677
vn 0.582677 0.551181 -0.582677
vn 0.472441 -0.559055 -0.669291
vn 0.346457 0.559055 -0.740157
vn 0.818898 0.559055 -0.070866
vn 0.80315 -0.551181 -0.212598
vn 0.80315 0.551181 -0.212598
vn 0.80315 -0.551181 -0.212598
vn 0.818898 0.559055 -0.070866
vn 0.818898 -0.559055 0.070866
vn 0.80315 -0.551181 -0.212598
vn 0.629921 -0.716535 -0.291339
vn 0.80315 0.551181 -0.212598
vn 0.80315 0.551181 -0.212598
vn 0.629921 -0.716535 -0.291339
vn 0.622047 0.606299 -0.480315
vn 0.740157 0.559055 0.346457
vn 0.80315 -0.551181 0.212598
vn 0.80315 0.551181 0.212598
vn 0.80315 -0.551181 0.212598
vn 0.740157 0.559055 0.346457
vn 0.669291 -0.559055 0.472441
vn 0.80315 -0.551181 0.212598
vn 0.818898 -0.559055 0.070866
vn 0.80315 0.551181 0.212598
vn 0.80315 0.551181 0.212598
vn 0.818898 -0.559055 0.070866
vn 0.818898 0.559055 -0.070866
vn 0.472441 0.559055 0.669291
vn 0.629921 -0.440945 0.629921
vn 0.496063 0.700787 0.496063
vn 0.629921 -0.440945 0.629921
vn 0.472441 0.559055 0.669291
vn 0.291339 -0.716535 0.629921
vn 0.582677 0.551181 0.582677
vn 0.669291 -0.559055 0.472441
vn 0.740157 0.559055 0.346457
vn 0.629921 -0.440945 0.629921
vn 0.669291 -0.559055 0.472441
vn 0.582677 0.551181 0.582677
vn 0.629921 -0.440945 0.629921
vn 0.582677 0.551181 0.582677
vn 0.496063 0.700787 0.496063
vn 0.055118 0.716535 0.692913
vn 0.212598 -0.551181 0.80315
vn 0.212598 0.551181 0.80315
vn 0.212598 -0.551181 0.80315
vn 0.055118 0.716535 0.692913
vn -0.070866 -0.559055 0.818898
vn 0.212598 -0.551181 0.80315
vn 0.291339 -0.716535 0.629921
vn 0.212598 0.551181 0.80315
vn 0.212598 0.551181 0.80315
vn 0.291339 -0.716535 0.629921
vn 0.472441 0.559055 0.669291
vn -0.346457 0.559055 0.740157
vn -0.212598 -0.551181 0.80315
vn -0.212598 0.551181 0.80315
vn -0.212598 -0.551181 0.80315
vn -0.346457 0.559055 0.740157
vn -0.472441 -0.559055 0.669291
vn -0.212598 -0.551181 0.80315
vn -0.070866 -0.559055 0.818898
vn -0.212598 0.551181 0.80315
vn -0.212598 0.551181 0.80315
vn -0.070866 -0.559055 0.818898
vn 0.055118 0.716535 0.692913
vn -0.700787 0.448819 0.535433
vn -0.582677 -0.551181 0.582677
vn -0.582677 0.551181 0.582677
vn -0.740157 -0.559055 0.346457
vn -0.496063 -0.700787 0.496063
vn -0.700787 0.448819 0.535433
vn -0.582677 -0.551181 0.582677
vn -0.700787 0.448819 0.535433
vn -0.496063 -0.700787 0.496063
vn -0.582677 -0.551181 0.582677
vn -0.472441 -0.559055 0.669291
vn -0.582677 0.551181 0.582677
vn -0.582677 0.551181 0.582677
vn -0.472441 -0.559055 0.669291
vn -0.346457 0.559055 0.740157
vn -0.818898 0.559055 0.070866
vn -0.80315 -0.551181 0.212598
vn -0.80315 0.551181 0.212598
vn -0.80315 -0.551181 0.212598
vn -0.818898 0.559055 0.070866
vn -0.818898 -0.559055 -0.070866
vn -0.80315 -0.551181 0.212598
vn -0.740157 -0.559055 0.346457
vn -0.80315 0.551181 0.212598
vn -0.80315 0.551181 0.212598
vn -0.740157 -0.559055 0.346457
vn -0.700787 0.448819 0.535433
g surface0
usemtl [SpatialMaterial:598678]
f 3/3/3 2/2/2 1/1/1
f 6/6/6 5/5/5 4/4/4
f 9/9/9 8/8/8 7/7/7
f 12/12/12 11/11/11 10/10/10
f 15/15/15 14/14/14 13/13/13
f 18/18/18 17/17/17 16/16/16
f 21/21/21 20/20/20 19/19/19
f 24/24/24 23/23/23 22/22/22
f 27/27/27 26/26/26 25/25/25
f 30/30/30 29/29/29 28/28/28
f 33/33/33 32/32/32 31/31/31
f 36/36/36 35/35/35 34/34/34
f 39/39/39 38/38/38 37/37/37
f 42/42/42 41/41/41 40/40/40
f 45/45/45 44/44/44 43/43/43
f 48/48/48 47/47/47 46/46/46
f 51/51/51 50/50/50 49/49/49
f 54/54/54 53/53/53 52/52/52
f 57/57/57 56/56/56 55/55/55
f 60/60/60 59/59/59 58/58/58
f 63/63/63 62/62/62 61/61/61
f 66/66/66 65/65/65 64/64/64
f 69/69/69 68/68/68 67/67/67
f 72/72/72 71/71/71 70/70/70
f 75/75/75 74/74/74 73/73/73
f 78/78/78 77/77/77 76/76/76
f 81/81/81 80/80/80 79/79/79
f 84/84/84 83/83/83 82/82/82
f 87/87/87 86/86/86 85/85/85
f 90/90/90 89/89/89 88/88/88
f 93/93/93 92/92/92 91/91/91
f 96/96/96 95/95/95 94/94/94
f 99/99/99 98/98/98 97/97/97
f 102/102/102 101/101/101 100/100/100
f 105/105/105 104/104/104 103/103/103
f 108/108/108 107/107/107 106/106/106
f 111/111/111 110/110/110 109/109/109
f 114/114/114 113/113/113 112/112/112
f 117/117/117 116/116/116 115/115/115
f 120/120/120 119/119/119 118/118/118
f 123/123/123 122/122/122 121/121/121
f 126/126/126 125/125/125 124/124/124
f 129/129/129 128/128/128 127/127/127
f 132/132/132 131/131/131 130/130/130
f 135/135/135 134/134/134 133/133/133
f 138/138/138 137/137/137 136/136/136
f 141/141/141 140/140/140 139/139/139
f 144/144/144 143/143/143 142/142/142
f 147/147/147 146/146/146 145/145/145
f 150/150/150 149/149/149 148/148/148
f 153/153/153 152/152/152 151/151/151
f 156/156/156 155/155/155 154/154/154
f 159/159/159 158/158/158 157/157/157
f 162/162/162 161/161/161 160/160/160
f 165/165/165 164/164/164 163/163/163
f 168/168/168 167/167/167 166/166/166
f 171/171/171 170/170/170 169/169/169
f 174/174/174 173/173/173 172/172/172
f 177/177/177 176/176/176 175/175/175
f 180/180/180 179/179/179 178/178/178
f 183/183/183 182/182/182 181/181/181
f 186/186/186 185/185/185 184/184/184
f 189/189/189 188/188/188 187/187/187
f 192/192/192 191/191/191 190/190/190
f 195/195/195 194/194/194 193/193/193
f 198/198/198 197/197/197 196/196/196
f 201/201/201 200/200/200 199/199/199
f 204/204/204 203/203/203 202/202/202
f 207/207/207 206/206/206 205/205/205
f 210/210/210 209/209/209 208/208/208
f 213/213/213 212/212/212 211/211/211
f 216/216/216 215/215/215 214/214/214
f 219/219/219 218/218/218 217/217/217
f 222/222/222 221/221/221 220/220/220
f 225/225/225 224/224/224 223/223/223
f 228/228/228 227/227/227 226/226/226
f 231/231/231 230/230/230 229/229/229
f 234/234/234 233/233/233 232/232/232
f 237/237/237 236/236/236 235/235/235
f 240/240/240 239/239/239 238/238/238
f 243/243/243 242/242/242 241/241/241
f 246/246/246 245/245/245 244/244/244
f 249/249/249 248/248/248 247/247/247
f 252/252/252 251/251/251 250/250/250
f 255/255/255 254/254/254 253/253/253
f 258/258/258 257/257/257 256/256/256
f 261/261/261 260/260/260 259/259/259
f 264/264/264 263/263/263 262/262/262
f 267/267/267 266/266/266 265/265/265
f 270/270/270 269/269/269 268/268/268
f 273/273/273 272/272/272 271/271/271
f 276/276/276 275/275/275 274/274/274
f 279/279/279 278/278/278 277/277/277
f 282/282/282 281/281/281 280/280/280
f 285/285/285 284/284/284 283/283/283
f 288/288/288 287/287/287 286/286/286
f 291/291/291 290/290/290 289/289/289
f 294/294/294 293/293/293 292/292/292
f 297/297/297 296/296/296 295/295/295
f 300/300/300 299/299/299 298/298/298
f 303/303/303 302/302/302 301/301/301
f 306/306/306 305/305/305 304/304/304
f 309/309/309 308/308/308 307/307/307
f 312/312/312 311/311/311 310/310/310
f 315/315/315 314/314/314 313/313/313
f 318/318/318 317/317/317 316/316/316
f 321/321/321 320/320/320 319/319/319
f 324/324/324 323/323/323 322/322/322
f 327/327/327 326/326/326 325/325/325
f 330/330/330 329/329/329 328/328/328
f 333/333/333 332/332/332 331/331/331
f 336/336/336 335/335/335 334/334/334
f 339/339/339 338/338/338 337/337/337
f 342/342/342 341/341/341 340/340/340
f 345/345/345 344/344/344 343/343/343
f 348/348/348 347/347/347 346/346/346
f 351/351/351 350/350/350 349/349/349
f 354/354/354 353/353/353 352/352/352
f 357/357/357 356/356/356 355/355/355
f 360/360/360 359/359/359 358/358/358
