# Blender v2.93.0 OBJ File: 'v3.1.blend'
# www.blender.org
mtllib island_04_a_nav.mtl
o Island_04_A_NAV_Grid.040
v 455.000000 11.999992 205.666656
v 396.666656 11.999992 197.333344
v 405.000000 11.999992 197.333344
v 413.333344 11.999992 197.333344
v 421.666656 11.999992 197.333344
v 430.000000 11.999992 197.333344
v 438.333344 11.999992 197.333344
v 446.666656 11.999992 197.333344
v 455.000000 11.999992 197.333344
v 463.333344 11.999992 197.333344
v 388.333344 11.999992 189.000000
v 396.666656 11.999992 189.000000
v 405.000000 11.999992 189.000000
v 413.333344 11.999992 189.000000
v 421.666656 11.999992 189.000000
v 430.000000 11.999992 189.000000
v 438.333344 11.999992 189.000000
v 446.666656 11.999992 189.000000
v 455.000000 11.999992 189.000000
v 463.333344 11.999992 189.000000
v 380.000000 11.999992 180.666656
v 388.333344 11.999992 180.666656
v 396.666656 11.999992 180.666656
v 405.000000 11.999992 180.666656
v 413.333344 11.999992 180.666656
v 421.666656 11.999992 180.666656
v 430.000000 11.999992 180.666656
v 438.333344 11.999992 180.666656
v 446.666656 11.999992 180.666656
v 455.000000 11.999992 180.666656
v 463.333344 11.999992 180.666656
v 371.666656 11.999992 172.333313
v 380.000000 11.999992 172.333313
v 388.333344 11.999992 172.333313
v 396.666656 11.999992 172.333313
v 405.000000 11.999992 172.333313
v 413.333344 11.999992 172.333313
v 421.666656 11.999992 172.333313
v 430.000000 11.999992 172.333313
v 438.333344 11.999992 172.333313
v 446.666656 11.999992 172.333313
v 455.000000 11.999992 172.333313
v 463.333344 11.999992 172.333313
v 471.666687 11.999992 172.333313
v 371.666656 11.999992 164.000000
v 380.000000 11.999992 164.000000
v 388.333344 11.999992 164.000000
v 396.666656 11.999992 164.000000
v 405.000000 11.999992 164.000000
v 413.333344 11.999992 164.000000
v 421.666656 11.999992 164.000000
v 430.000000 11.999992 164.000000
v 438.333344 11.999992 164.000000
v 446.666656 11.999992 164.000000
v 455.000000 11.999992 164.000000
v 463.333344 11.999992 164.000000
v 471.666687 11.999992 164.000000
v 371.666656 11.999992 155.666656
v 380.000000 11.999992 155.666656
v 388.333344 11.999992 155.666656
v 396.666656 11.999992 155.666656
v 405.000000 11.999992 155.666656
v 413.333344 11.999992 155.666656
v 421.666656 11.999992 155.666656
v 430.000000 11.999992 155.666656
v 438.333344 11.999992 155.666656
v 446.666656 11.999992 155.666656
v 455.000000 11.999992 155.666656
v 463.333344 11.999992 155.666656
v 471.666687 11.999992 155.666656
v 480.000000 11.999992 155.666656
v 371.666656 11.999992 147.333313
v 380.000000 11.999992 147.333313
v 388.333344 11.999992 147.333313
v 396.666656 11.999992 147.333313
v 405.000000 11.999992 147.333313
v 413.333344 11.999992 147.333313
v 421.666656 11.999992 147.333313
v 430.000000 11.999992 147.333313
v 438.333344 11.999992 147.333313
v 446.666656 11.999992 147.333313
v 455.000000 11.999992 147.333313
v 463.333344 11.999992 147.333313
v 371.666656 11.999992 139.000000
v 380.000000 11.999992 139.000000
v 388.333344 11.999992 139.000000
v 396.666656 11.999992 139.000000
v 405.000000 11.999992 139.000000
v 413.333344 11.999992 139.000000
v 421.666656 11.999992 139.000000
v 430.000000 11.999992 139.000000
v 438.333344 11.999992 139.000000
v 446.666656 11.999992 139.000000
v 371.666656 11.999992 130.666656
v 380.000000 11.999992 130.666656
v 388.333344 11.999992 130.666656
v 396.666656 11.999992 130.666656
v 371.666656 11.999992 122.333328
v 480.320282 11.999992 151.396164
v 427.705963 12.000007 206.140686
v 356.720367 11.999999 164.062531
v 469.621918 11.999992 198.007111
v 400.582550 11.999992 130.666656
v 456.126801 11.999992 141.574127
v 378.425537 11.999992 122.333328
v 378.534637 12.000005 194.998291
v 481.635651 11.999992 173.949921
v 430.000000 11.999992 134.969269
v 465.617554 11.999992 207.485413
v 371.666656 11.999992 118.699814
v 484.594025 11.999992 155.666656
v 472.454102 11.999992 191.052155
v 483.682983 11.999992 168.191742
v 360.488892 12.000003 113.256271
v 434.517487 12.000005 207.257355
v 477.491058 11.999992 183.496704
v 463.333344 11.999992 144.417755
v 484.545135 11.999992 165.766968
v 384.781342 12.000006 200.282379
v 438.333344 11.999992 135.816727
v 470.430450 11.999992 147.333313
v 380.000000 11.999992 123.236702
v 405.000000 11.999992 132.639465
v 443.195465 12.000006 210.439484
v 440.654419 12.000007 209.298584
v 446.666656 11.999992 138.100479
v 410.352936 12.000005 205.891083
v 352.833435 11.999999 138.235016
v 475.812347 11.999992 186.014801
v 356.019867 11.999999 122.893539
v 388.333344 11.999992 126.187477
v 413.333344 11.999992 133.646057
v 447.580017 11.999992 138.435852
v 450.117401 12.000005 213.530121
v 387.302582 12.000005 201.910675
v 367.392761 12.000005 181.149826
v 463.709076 11.999992 209.508911
v 471.666687 11.999992 147.841171
v 419.155457 12.000006 205.823059
v 352.442017 11.999999 147.495834
v 396.666656 11.999992 128.917786
v 421.666656 11.999992 134.121796
v 376.369354 12.000004 192.700500
v 395.368866 12.000004 204.775482
v 458.896179 11.999997 214.611725
v 454.056488 12.000003 215.278961
v 361.112030 12.000005 171.582581
v 401.679291 12.000004 205.448578
v 368.686981 12.000006 183.108597
v 354.388489 11.999999 128.474564
v 393.131744 11.999992 127.339073
v 353.112427 11.999998 132.839813
v 352.520111 11.999999 144.291092
v 470.323669 11.999992 194.247894
v 437.022614 12.000005 207.667999
v 407.253876 11.999992 133.646057
v 485.679779 11.999992 162.575897
v 479.098572 11.999992 181.085495
v 424.979065 12.000006 205.693634
v 457.024170 12.000002 216.596527
v 356.863708 11.999999 120.006500
v 468.404144 11.999992 204.531006
v 405.827789 12.000004 205.891052
v 371.868805 12.000006 187.924438
v 391.020081 12.000007 204.311584
v 382.848602 11.999992 124.871124
v 416.988556 11.999992 133.646057
v 484.171600 11.999992 152.978317
v 352.322662 12.000008 152.385956
v 354.494446 12.000019 159.493652
v 358.245728 12.000003 167.193649
v 364.563690 12.000005 176.867996
v 446.696991 12.000005 212.011566
v 374.485016 11.999992 120.072342
v 458.806580 11.999992 142.558090
v 381.543182 12.000005 198.191071
v 416.094421 12.000006 205.891052
v 441.256714 11.999992 136.114014
vt 0.400000 0.333333
vt 0.425615 0.333333
vt 0.433333 0.341287
vt 0.433333 0.366667
vt 0.400000 0.366667
vt 0.166667 0.366667
vt 0.200000 0.366667
vt 0.200000 0.400000
vt 0.166667 0.400000
vt 0.233333 0.366667
vt 0.233333 0.400000
vt 0.266667 0.366667
vt 0.266667 0.400000
vt 0.300000 0.366667
vt 0.300000 0.400000
vt 0.333333 0.366667
vt 0.333333 0.400000
vt 0.366667 0.366667
vt 0.366667 0.400000
vt 0.400000 0.400000
vt 0.433333 0.400000
vt 0.455792 0.366667
vt 0.453947 0.383919
vt 0.456135 0.400000
vt 0.133333 0.400000
vt 0.166667 0.433333
vt 0.133333 0.433333
vt 0.200000 0.433333
vt 0.233333 0.433333
vt 0.266667 0.433333
vt 0.300000 0.433333
vt 0.333333 0.433333
vt 0.366667 0.433333
vt 0.400000 0.433333
vt 0.433333 0.433333
vt 0.458801 0.433333
vt 0.100000 0.433333
vt 0.133333 0.466667
vt 0.100000 0.466667
vt 0.166667 0.466667
vt 0.200000 0.466667
vt 0.233333 0.466667
vt 0.266667 0.466667
vt 0.300000 0.466667
vt 0.333333 0.466667
vt 0.366667 0.466667
vt 0.400000 0.466667
vt 0.433333 0.466667
vt 0.466667 0.442398
vt 0.466667 0.466667
vt 0.066667 0.466667
vt 0.100000 0.500000
vt 0.066667 0.500000
vt 0.133333 0.500000
vt 0.166667 0.500000
vt 0.200000 0.500000
vt 0.233333 0.500000
vt 0.266667 0.500000
vt 0.300000 0.500000
vt 0.333333 0.500000
vt 0.366667 0.500000
vt 0.400000 0.500000
vt 0.433333 0.500000
vt 0.466667 0.500000
vt 0.493610 0.466667
vt 0.494612 0.500000
vt 0.100000 0.533333
vt 0.066667 0.533333
vt 0.133333 0.533333
vt 0.166667 0.533333
vt 0.200000 0.533333
vt 0.233333 0.533333
vt 0.266667 0.533333
vt 0.300000 0.533333
vt 0.333333 0.533333
vt 0.366667 0.533333
vt 0.400000 0.533333
vt 0.433333 0.533333
vt 0.466667 0.533333
vt 0.500000 0.508083
vt 0.500000 0.533333
vt 0.100000 0.566667
vt 0.066667 0.566667
vt 0.133333 0.566667
vt 0.166667 0.566667
vt 0.200000 0.566667
vt 0.233333 0.566667
vt 0.266667 0.566667
vt 0.300000 0.566667
vt 0.333333 0.566667
vt 0.366667 0.566667
vt 0.400000 0.566667
vt 0.433333 0.566667
vt 0.466667 0.564635
vt 0.461722 0.566667
vt 0.500000 0.544010
vt 0.518376 0.533333
vt 0.519548 0.542532
vt 0.100000 0.600000
vt 0.066667 0.600000
vt 0.133333 0.600000
vt 0.166667 0.600000
vt 0.200000 0.600000
vt 0.233333 0.600000
vt 0.266667 0.600000
vt 0.300000 0.600000
vt 0.333333 0.600000
vt 0.366667 0.600000
vt 0.400000 0.579187
vt 0.369353 0.600000
vt 0.433333 0.573956
vt 0.412838 0.577610
vt 0.100000 0.633333
vt 0.066667 0.633333
vt 0.133333 0.633333
vt 0.166667 0.633333
vt 0.200000 0.625442
vt 0.182330 0.633333
vt 0.233333 0.621416
vt 0.209015 0.621416
vt 0.266667 0.619513
vt 0.247954 0.621416
vt 0.300000 0.616123
vt 0.333333 0.612733
vt 0.366667 0.603598
vt 0.345027 0.611544
vt 0.100000 0.663053
vt 0.093702 0.666667
vt 0.066667 0.666667
vt 0.133333 0.651250
vt 0.111394 0.656516
vt 0.166667 0.640329
vt 0.152527 0.646644
vt 0.077940 0.675711
vt 0.066667 0.681201
vt 0.100000 0.408990
vt 0.108784 0.400000
vt 0.166667 0.343571
vt 0.200000 0.343794
vt 0.039301 0.633333
vt 0.038629 0.618744
vt 0.039473 0.600000
vt 0.039495 0.578218
vt 0.039625 0.566667
vt 0.066667 0.440697
vt 0.072711 0.433333
vt 0.333333 0.340710
vt 0.346088 0.341177
vt 0.366667 0.339509
vt 0.400000 0.308057
vt 0.412400 0.300000
vt 0.423321 0.300000
vt 0.517941 0.509381
vt 0.479994 0.443298
vt 0.133333 0.374353
vt 0.142563 0.366667
vt 0.266667 0.341245
vt 0.288973 0.341195
vt 0.300000 0.339642
vt 0.418989 0.287279
vt 0.042862 0.700000
vt 0.038999 0.676499
vt 0.038879 0.666667
vt 0.451573 0.343742
vt 0.216210 0.342350
vt 0.233333 0.342177
vt 0.078461 0.416627
vt 0.374958 0.333333
vt 0.148789 0.345333
vt 0.021598 0.278305
vt 0.025011 0.311764
vt 0.039534 0.500000
vt 0.039516 0.485865
vt 0.041915 0.466667
vt 0.049956 0.446867
vt 0.383900 0.317483
vt 0.117273 0.381987
vt 0.255057 0.341392
vn 0.0000 1.0000 0.0000
usemtl Material.020
s off
f 1/1/1 137/2/1 109/3/1 10/4/1 9/5/1
f 2/6/1 3/7/1 13/8/1 12/9/1
f 3/7/1 4/10/1 14/11/1 13/8/1
f 4/10/1 5/12/1 15/13/1 14/11/1
f 5/12/1 6/14/1 16/15/1 15/13/1
f 6/14/1 7/16/1 17/17/1 16/15/1
f 7/16/1 8/18/1 18/19/1 17/17/1
f 8/18/1 9/5/1 19/20/1 18/19/1
f 9/5/1 10/4/1 20/21/1 19/20/1
f 10/4/1 102/22/1 154/23/1 112/24/1 20/21/1
f 11/25/1 12/9/1 23/26/1 22/27/1
f 12/9/1 13/8/1 24/28/1 23/26/1
f 13/8/1 14/11/1 25/29/1 24/28/1
f 14/11/1 15/13/1 26/30/1 25/29/1
f 15/13/1 16/15/1 27/31/1 26/30/1
f 16/15/1 17/17/1 28/32/1 27/31/1
f 17/17/1 18/19/1 29/33/1 28/32/1
f 18/19/1 19/20/1 30/34/1 29/33/1
f 19/20/1 20/21/1 31/35/1 30/34/1
f 20/21/1 112/24/1 129/36/1 31/35/1
f 21/37/1 22/27/1 34/38/1 33/39/1
f 22/27/1 23/26/1 35/40/1 34/38/1
f 23/26/1 24/28/1 36/41/1 35/40/1
f 24/28/1 25/29/1 37/42/1 36/41/1
f 25/29/1 26/30/1 38/43/1 37/42/1
f 26/30/1 27/31/1 39/44/1 38/43/1
f 27/31/1 28/32/1 40/45/1 39/44/1
f 28/32/1 29/33/1 41/46/1 40/45/1
f 29/33/1 30/34/1 42/47/1 41/46/1
f 30/34/1 31/35/1 43/48/1 42/47/1
f 31/35/1 129/36/1 116/49/1 44/50/1 43/48/1
f 32/51/1 33/39/1 46/52/1 45/53/1
f 33/39/1 34/38/1 47/54/1 46/52/1
f 34/38/1 35/40/1 48/55/1 47/54/1
f 35/40/1 36/41/1 49/56/1 48/55/1
f 36/41/1 37/42/1 50/57/1 49/56/1
f 37/42/1 38/43/1 51/58/1 50/57/1
f 38/43/1 39/44/1 52/59/1 51/58/1
f 39/44/1 40/45/1 53/60/1 52/59/1
f 40/45/1 41/46/1 54/61/1 53/60/1
f 41/46/1 42/47/1 55/62/1 54/61/1
f 42/47/1 43/48/1 56/63/1 55/62/1
f 43/48/1 44/50/1 57/64/1 56/63/1
f 44/50/1 107/65/1 113/66/1 57/64/1
f 45/53/1 46/52/1 59/67/1 58/68/1
f 46/52/1 47/54/1 60/69/1 59/67/1
f 47/54/1 48/55/1 61/70/1 60/69/1
f 48/55/1 49/56/1 62/71/1 61/70/1
f 49/56/1 50/57/1 63/72/1 62/71/1
f 50/57/1 51/58/1 64/73/1 63/72/1
f 51/58/1 52/59/1 65/74/1 64/73/1
f 52/59/1 53/60/1 66/75/1 65/74/1
f 53/60/1 54/61/1 67/76/1 66/75/1
f 54/61/1 55/62/1 68/77/1 67/76/1
f 55/62/1 56/63/1 69/78/1 68/77/1
f 56/63/1 57/64/1 70/79/1 69/78/1
f 57/64/1 113/66/1 118/80/1 71/81/1 70/79/1
f 58/68/1 59/67/1 73/82/1 72/83/1
f 59/67/1 60/69/1 74/84/1 73/82/1
f 60/69/1 61/70/1 75/85/1 74/84/1
f 61/70/1 62/71/1 76/86/1 75/85/1
f 62/71/1 63/72/1 77/87/1 76/86/1
f 63/72/1 64/73/1 78/88/1 77/87/1
f 64/73/1 65/74/1 79/89/1 78/88/1
f 65/74/1 66/75/1 80/90/1 79/89/1
f 66/75/1 67/76/1 81/91/1 80/90/1
f 67/76/1 68/77/1 82/92/1 81/91/1
f 68/77/1 69/78/1 83/93/1 82/92/1
f 69/78/1 70/79/1 138/94/1 121/95/1 83/93/1
f 70/79/1 71/81/1 99/96/1 138/94/1
f 71/81/1 111/97/1 168/98/1 99/96/1
f 72/83/1 73/82/1 85/99/1 84/100/1
f 73/82/1 74/84/1 86/101/1 85/99/1
f 74/84/1 75/85/1 87/102/1 86/101/1
f 75/85/1 76/86/1 88/103/1 87/102/1
f 76/86/1 77/87/1 89/104/1 88/103/1
f 77/87/1 78/88/1 90/105/1 89/104/1
f 78/88/1 79/89/1 91/106/1 90/105/1
f 79/89/1 80/90/1 92/107/1 91/106/1
f 80/90/1 81/91/1 93/108/1 92/107/1
f 81/91/1 82/92/1 104/109/1 133/110/1 93/108/1
f 82/92/1 83/93/1 117/111/1 175/112/1 104/109/1
f 83/93/1 121/95/1 117/111/1
f 84/100/1 85/99/1 95/113/1 94/114/1
f 85/99/1 86/101/1 96/115/1 95/113/1
f 86/101/1 87/102/1 97/116/1 96/115/1
f 87/102/1 88/103/1 123/117/1 103/118/1 97/116/1
f 88/103/1 89/104/1 132/119/1 156/120/1 123/117/1
f 89/104/1 90/105/1 142/121/1 167/122/1 132/119/1
f 90/105/1 91/106/1 108/123/1 142/121/1
f 91/106/1 92/107/1 120/124/1 108/123/1
f 92/107/1 93/108/1 126/125/1 178/126/1 120/124/1
f 93/108/1 133/110/1 126/125/1
f 94/114/1 95/113/1 122/127/1 105/128/1 98/129/1
f 95/113/1 96/115/1 131/130/1 166/131/1 122/127/1
f 96/115/1 97/116/1 141/132/1 151/133/1 131/130/1
f 97/116/1 103/118/1 141/132/1
f 98/129/1 105/128/1 174/134/1 110/135/1
f 143/136/1 106/137/1 11/25/1 22/27/1 21/37/1
f 144/138/1 148/139/1 3/7/1 2/6/1
f 150/140/1 152/141/1 128/142/1 84/100/1 94/114/1
f 128/142/1 153/143/1 140/144/1 72/83/1 84/100/1
f 136/145/1 149/146/1 21/37/1 33/39/1 32/51/1
f 115/147/1 155/148/1 125/149/1 8/18/1 7/16/1
f 134/150/1 146/151/1 145/152/1 137/2/1 1/1/1
f 118/80/1 157/153/1 111/97/1 71/81/1
f 116/49/1 158/154/1 107/65/1 44/50/1
f 119/155/1 135/156/1 2/6/1 12/9/1 11/25/1
f 139/157/1 159/158/1 100/159/1 6/14/1 5/12/1
f 146/151/1 160/160/1 145/152/1
f 110/135/1 114/161/1 161/162/1 130/163/1 98/129/1
f 109/3/1 162/164/1 102/22/1 10/4/1
f 148/139/1 163/165/1 127/166/1 4/10/1 3/7/1
f 149/146/1 164/167/1 143/136/1 21/37/1
f 125/149/1 124/168/1 1/1/1 9/5/1 8/18/1
f 135/156/1 165/169/1 144/138/1 2/6/1
f 140/144/1 169/170/1 170/171/1 101/172/1 45/53/1 58/68/1 72/83/1
f 101/172/1 171/173/1 147/174/1 32/51/1 45/53/1
f 147/174/1 172/175/1 136/145/1 32/51/1
f 100/159/1 115/147/1 7/16/1 6/14/1
f 124/168/1 173/176/1 134/150/1 1/1/1
f 130/163/1 150/140/1 94/114/1 98/129/1
f 106/137/1 176/177/1 119/155/1 11/25/1
f 127/166/1 177/178/1 139/157/1 5/12/1 4/10/1
