# Blender v2.93.0 OBJ File: 'v3.1.blend'
# www.blender.org
mtllib island_01_c_nav.mtl
o Island_01_C_NAV_Grid.030
v 123.863686 4.000000 -8.157427
v 120.521873 4.000000 -10.982990
v 123.605560 4.000000 -11.241111
v 126.689240 4.000000 -11.499230
v 117.180069 4.000000 -13.808563
v 120.263756 4.000000 -14.066683
v 123.347443 4.000000 -14.324803
v 126.431122 4.000000 -14.582923
v 129.514801 4.000000 -14.841043
v 113.838272 4.000000 -16.634127
v 116.921951 4.000000 -16.892246
v 120.005638 4.000000 -17.150366
v 123.089325 4.000000 -17.408485
v 126.173004 4.000000 -17.666607
v 129.256683 4.000000 -17.924725
v 132.340393 4.000000 -18.182846
v 113.580147 4.000000 -19.717810
v 116.663826 4.000000 -19.975929
v 119.747513 4.000000 -20.234049
v 122.831200 4.000000 -20.492170
v 125.914879 4.000000 -20.750290
v 128.998566 4.000000 -21.008410
v 132.082275 4.000000 -21.266531
v 135.165955 4.000000 -21.524651
v 113.322029 4.000000 -22.801495
v 116.405708 4.000000 -23.059612
v 119.489395 4.000000 -23.317734
v 122.573082 4.000000 -23.575853
v 125.656761 4.000000 -23.833973
v 128.740448 4.000000 -24.092093
v 131.824158 4.000000 -24.350214
v 134.907837 4.000000 -24.608334
v 113.063911 4.000000 -25.885178
v 116.147591 4.000000 -26.143295
v 119.231277 4.000000 -26.401417
v 122.314964 4.000000 -26.659536
v 125.398643 4.000000 -26.917656
v 128.482315 4.000000 -27.175776
v 131.566025 4.000000 -27.433897
v 134.649704 4.000000 -27.692017
v 112.805786 4.000000 -28.968880
v 115.889465 4.000000 -29.226997
v 118.973152 4.000000 -29.485119
v 122.056839 4.000000 -29.743238
v 125.140518 4.000000 -30.001358
v 128.224197 4.000000 -30.259478
v 131.307907 4.000000 -30.517599
v 134.391586 4.000000 -30.775719
v 137.475266 4.000000 -31.033838
v 115.631348 4.000000 -32.310680
v 118.715034 4.000000 -32.568802
v 121.798721 4.000000 -32.826920
v 124.882401 4.000000 -33.085041
v 127.966080 4.000000 -33.343159
v 131.049789 4.000000 -33.601280
v 134.133469 4.000000 -33.859402
v 137.217148 4.000000 -34.117519
v 140.300842 4.000000 -34.375641
v 118.456917 4.000000 -35.652485
v 121.540604 4.000000 -35.910606
v 124.624283 4.000000 -36.168724
v 127.707962 4.000000 -36.426846
v 130.791672 4.000000 -36.684967
v 133.875351 4.000000 -36.943085
v 136.959030 4.000000 -37.201206
v 140.042725 4.000000 -37.459328
v 143.126404 4.000000 -37.717445
v 118.198799 4.000000 -38.736168
v 121.282486 4.000000 -38.994286
v 124.366165 4.000000 -39.252407
v 127.449844 4.000000 -39.510525
v 130.533554 4.000000 -39.768646
v 133.617233 4.000000 -40.026768
v 136.700912 4.000000 -40.284885
v 139.784607 4.000000 -40.543007
v 142.868286 4.000000 -40.801128
v 121.024361 4.000000 -42.077972
v 124.108040 4.000000 -42.336090
v 127.191719 4.000000 -42.594212
v 130.275436 4.000000 -42.852333
v 133.359116 4.000000 -43.110451
v 136.442795 4.000000 -43.368572
v 139.526489 4.000000 -43.626694
v 126.933601 4.000000 -45.677891
v 130.017303 4.000000 -45.936012
v 133.100983 4.000000 -46.194134
v 136.184662 4.000000 -46.452251
v 139.268356 4.000000 -46.710373
v 142.352036 4.000000 -46.968494
v 129.759186 4.000000 -49.019714
v 132.842865 4.000000 -49.277836
v 135.926544 4.000000 -49.535954
v 139.010239 4.000000 -49.794075
v 142.093918 4.000000 -50.052197
v 135.668427 4.000000 -52.619637
v 138.752121 4.000000 -52.877758
v 126.280220 4.000000 -47.279388
v 111.592934 4.000000 -22.692200
v 113.268234 4.000000 -15.107724
v 135.597885 4.000000 -19.566704
v 121.694016 4.000000 -6.401083
v 139.993378 4.000000 -30.890644
v 141.055573 4.000000 -43.754684
v 137.868484 4.000000 -24.439976
v 141.346924 4.000000 -32.900879
v 119.849342 4.000000 -6.688486
v 112.537086 4.000000 -16.551882
v 114.274551 4.000000 -32.557171
v 132.327637 4.000000 -50.950233
v 123.253250 4.000000 -43.881935
v 115.312531 4.000000 -33.523090
v 115.853523 4.000000 -10.836098
v 116.891808 4.000000 -9.266724
v 145.649536 4.000000 -37.573967
v 135.884033 4.000000 -53.225235
v 136.872360 4.000000 -21.667484
v 124.749580 4.000000 -8.231581
v 139.386871 4.000000 -29.069302
v 114.485260 4.000000 -12.541349
v 111.636040 4.000000 -19.594927
v 128.600113 4.000000 -48.946453
v 111.911789 4.000000 -28.894047
v 142.411804 4.000000 -46.254459
v 144.586624 4.000000 -35.658813
v 112.478867 4.000000 -30.030014
v 111.564133 4.000000 -25.790379
v 132.668533 4.000000 -17.032455
v 142.440643 4.000000 -34.253960
v 138.745346 4.000000 -27.142845
v 123.960236 4.000000 -7.003915
v 134.797836 4.000000 -52.777802
v 125.385880 4.000000 -45.903759
v 129.699219 4.000000 -49.736233
v 116.676117 4.000000 -35.880970
v 133.791245 4.000000 -17.862053
v 126.804771 4.000000 -10.119051
v 141.246124 4.000000 -42.255989
v 119.490875 4.000000 -40.891808
v 111.664726 4.000000 -18.274950
v 115.254723 4.000000 -11.741198
v 124.804024 4.000000 -45.127968
v 111.521126 4.000000 -28.111488
v 131.337814 4.000000 -16.049164
v 140.456360 4.000000 -51.948921
v 111.592941 4.000000 -24.234312
v 118.557495 4.000000 -7.720421
v 136.435577 4.000000 -20.357136
v 111.592918 4.000000 -21.577728
v 136.794556 4.000000 -53.600319
v 125.881020 4.000000 -46.563957
v 144.620728 4.000000 -39.312210
v 138.302353 4.000000 -25.813900
v 128.896637 4.000000 -14.038778
v 116.906090 4.000000 -37.373619
v 137.440750 4.000000 -23.085518
vt 0.899999 0.480000
vt 0.902872 0.480000
vt 0.909999 0.485524
vt 0.909999 0.490000
vt 0.899999 0.490000
vt 0.889999 0.490000
vt 0.899999 0.500000
vt 0.889999 0.500000
vt 0.909999 0.500000
vt 0.917407 0.497583
vt 0.919999 0.500000
vt 0.879999 0.500000
vt 0.889999 0.510000
vt 0.879999 0.510000
vt 0.899999 0.510000
vt 0.909999 0.510000
vt 0.919999 0.510000
vt 0.925471 0.504123
vt 0.929999 0.506953
vt 0.929999 0.510000
vt 0.869999 0.510000
vt 0.879999 0.520000
vt 0.869999 0.520000
vt 0.889999 0.520000
vt 0.899999 0.520000
vt 0.909999 0.520000
vt 0.919999 0.520000
vt 0.929999 0.520000
vt 0.933873 0.510000
vt 0.939999 0.515304
vt 0.939999 0.520000
vt 0.879999 0.530000
vt 0.869999 0.530000
vt 0.889999 0.530000
vt 0.899999 0.530000
vt 0.909999 0.530000
vt 0.919999 0.530000
vt 0.929999 0.530000
vt 0.939999 0.530000
vt 0.943713 0.520000
vt 0.944814 0.524985
vt 0.945467 0.530000
vt 0.879999 0.540000
vt 0.869999 0.540000
vt 0.889999 0.540000
vt 0.899999 0.540000
vt 0.909999 0.540000
vt 0.919999 0.540000
vt 0.929999 0.540000
vt 0.939999 0.540000
vt 0.945706 0.535042
vt 0.945859 0.540000
vt 0.879999 0.550000
vt 0.869999 0.550000
vt 0.889999 0.550000
vt 0.899999 0.550000
vt 0.909999 0.550000
vt 0.919999 0.550000
vt 0.929999 0.550000
vt 0.939999 0.550000
vt 0.949999 0.545409
vt 0.949999 0.550000
vt 0.879999 0.560000
vt 0.876677 0.560000
vt 0.869999 0.552598
vt 0.889999 0.560000
vt 0.899999 0.560000
vt 0.909999 0.560000
vt 0.919999 0.560000
vt 0.929999 0.560000
vt 0.939999 0.560000
vt 0.949999 0.560000
vt 0.954650 0.550000
vt 0.959999 0.555959
vt 0.959999 0.560000
vt 0.889999 0.570000
vt 0.885354 0.570000
vt 0.879999 0.563162
vt 0.899999 0.570000
vt 0.909999 0.570000
vt 0.919999 0.570000
vt 0.929999 0.570000
vt 0.939999 0.570000
vt 0.949999 0.570000
vt 0.959999 0.570000
vt 0.963951 0.560000
vt 0.969999 0.564359
vt 0.969999 0.570000
vt 0.899999 0.580000
vt 0.889999 0.580000
vt 0.909999 0.580000
vt 0.919999 0.580000
vt 0.929999 0.580000
vt 0.939999 0.580000
vt 0.949999 0.580000
vt 0.959999 0.580000
vt 0.969999 0.580000
vt 0.974659 0.570000
vt 0.974089 0.575117
vt 0.909999 0.590000
vt 0.899999 0.590000
vt 0.919999 0.590000
vt 0.929999 0.590000
vt 0.939999 0.590000
vt 0.949999 0.590000
vt 0.959999 0.590000
vt 0.965168 0.585122
vt 0.964958 0.590000
vt 0.919999 0.600000
vt 0.916955 0.600000
vt 0.915060 0.597544
vt 0.909999 0.593785
vt 0.929999 0.600000
vt 0.939999 0.600000
vt 0.949999 0.600000
vt 0.959999 0.600000
vt 0.969999 0.597684
vt 0.969999 0.600000
vt 0.929999 0.610000
vt 0.927161 0.610000
vt 0.919999 0.605193
vt 0.939999 0.610000
vt 0.949999 0.610000
vt 0.959999 0.610000
vt 0.969999 0.610000
vt 0.939999 0.614095
vt 0.929999 0.612323
vt 0.949999 0.620000
vt 0.947867 0.620000
vt 0.959999 0.620000
vt 0.963962 0.615699
vt 0.952963 0.623951
vt 0.949999 0.622906
vt 0.894741 0.586593
vt 0.865239 0.520000
vt 0.865040 0.515736
vt 0.866813 0.510000
vt 0.869999 0.507138
vt 0.874947 0.500000
vt 0.877376 0.497143
vt 0.879999 0.494676
vt 0.867100 0.550000
vt 0.865928 0.547560
vt 0.866327 0.540000
vt 0.866080 0.534974
vt 0.865765 0.530000
vt 0.883777 0.490000
vt 0.886494 0.485232
vt 0.889999 0.483219
vt 0.807786 0.443959
vt 0.865538 0.526405
vt 0.894993 0.480000
vt 0.899999 0.476259
vt 0.918304 0.602820
vt 0.885883 0.575472
vn 0.0000 1.0000 0.0000
usemtl Material.002
s off
f 1/1/1 117/2/1 136/3/1 4/4/1 3/5/1
f 2/6/1 3/5/1 7/7/1 6/8/1
f 3/5/1 4/4/1 8/9/1 7/7/1
f 4/4/1 153/10/1 9/11/1 8/9/1
f 5/12/1 6/8/1 12/13/1 11/14/1
f 6/8/1 7/7/1 13/15/1 12/13/1
f 7/7/1 8/9/1 14/16/1 13/15/1
f 8/9/1 9/11/1 15/17/1 14/16/1
f 9/11/1 143/18/1 127/19/1 16/20/1 15/17/1
f 10/21/1 11/14/1 18/22/1 17/23/1
f 11/14/1 12/13/1 19/24/1 18/22/1
f 12/13/1 13/15/1 20/25/1 19/24/1
f 13/15/1 14/16/1 21/26/1 20/25/1
f 14/16/1 15/17/1 22/27/1 21/26/1
f 15/17/1 16/20/1 23/28/1 22/27/1
f 16/20/1 135/29/1 100/30/1 24/31/1 23/28/1
f 17/23/1 18/22/1 26/32/1 25/33/1
f 18/22/1 19/24/1 27/34/1 26/32/1
f 19/24/1 20/25/1 28/35/1 27/34/1
f 20/25/1 21/26/1 29/36/1 28/35/1
f 21/26/1 22/27/1 30/37/1 29/36/1
f 22/27/1 23/28/1 31/38/1 30/37/1
f 23/28/1 24/31/1 32/39/1 31/38/1
f 24/31/1 116/40/1 155/41/1 104/42/1 32/39/1
f 25/33/1 26/32/1 34/43/1 33/44/1
f 26/32/1 27/34/1 35/45/1 34/43/1
f 27/34/1 28/35/1 36/46/1 35/45/1
f 28/35/1 29/36/1 37/47/1 36/46/1
f 29/36/1 30/37/1 38/48/1 37/47/1
f 30/37/1 31/38/1 39/49/1 38/48/1
f 31/38/1 32/39/1 40/50/1 39/49/1
f 32/39/1 104/42/1 152/51/1 129/52/1 40/50/1
f 33/44/1 34/43/1 42/53/1 41/54/1
f 34/43/1 35/45/1 43/55/1 42/53/1
f 35/45/1 36/46/1 44/56/1 43/55/1
f 36/46/1 37/47/1 45/57/1 44/56/1
f 37/47/1 38/48/1 46/58/1 45/57/1
f 38/48/1 39/49/1 47/59/1 46/58/1
f 39/49/1 40/50/1 48/60/1 47/59/1
f 40/50/1 129/52/1 118/61/1 49/62/1 48/60/1
f 41/54/1 42/53/1 50/63/1 108/64/1 125/65/1
f 42/53/1 43/55/1 51/66/1 50/63/1
f 43/55/1 44/56/1 52/67/1 51/66/1
f 44/56/1 45/57/1 53/68/1 52/67/1
f 45/57/1 46/58/1 54/69/1 53/68/1
f 46/58/1 47/59/1 55/70/1 54/69/1
f 47/59/1 48/60/1 56/71/1 55/70/1
f 48/60/1 49/62/1 57/72/1 56/71/1
f 49/62/1 102/73/1 105/74/1 58/75/1 57/72/1
f 50/63/1 51/66/1 59/76/1 134/77/1 111/78/1
f 51/66/1 52/67/1 60/79/1 59/76/1
f 52/67/1 53/68/1 61/80/1 60/79/1
f 53/68/1 54/69/1 62/81/1 61/80/1
f 54/69/1 55/70/1 63/82/1 62/81/1
f 55/70/1 56/71/1 64/83/1 63/82/1
f 56/71/1 57/72/1 65/84/1 64/83/1
f 57/72/1 58/75/1 66/85/1 65/84/1
f 58/75/1 128/86/1 124/87/1 67/88/1 66/85/1
f 59/76/1 60/79/1 69/89/1 68/90/1
f 60/79/1 61/80/1 70/91/1 69/89/1
f 61/80/1 62/81/1 71/92/1 70/91/1
f 62/81/1 63/82/1 72/93/1 71/92/1
f 63/82/1 64/83/1 73/94/1 72/93/1
f 64/83/1 65/84/1 74/95/1 73/94/1
f 65/84/1 66/85/1 75/96/1 74/95/1
f 66/85/1 67/88/1 76/97/1 75/96/1
f 67/88/1 114/98/1 151/99/1 76/97/1
f 69/89/1 70/91/1 78/100/1 77/101/1
f 70/91/1 71/92/1 79/102/1 78/100/1
f 71/92/1 72/93/1 80/103/1 79/102/1
f 72/93/1 73/94/1 81/104/1 80/103/1
f 73/94/1 74/95/1 82/105/1 81/104/1
f 74/95/1 75/96/1 83/106/1 82/105/1
f 75/96/1 76/97/1 137/107/1 103/108/1 83/106/1
f 78/100/1 79/102/1 84/109/1 132/110/1 141/111/1 110/112/1
f 79/102/1 80/103/1 85/113/1 84/109/1
f 80/103/1 81/104/1 86/114/1 85/113/1
f 81/104/1 82/105/1 87/115/1 86/114/1
f 82/105/1 83/106/1 88/116/1 87/115/1
f 83/106/1 103/108/1 123/117/1 89/118/1 88/116/1
f 84/109/1 85/113/1 90/119/1 121/120/1 97/121/1
f 85/113/1 86/114/1 91/122/1 90/119/1
f 86/114/1 87/115/1 92/123/1 91/122/1
f 87/115/1 88/116/1 93/124/1 92/123/1
f 88/116/1 89/118/1 94/125/1 93/124/1
f 90/119/1 91/122/1 109/126/1 133/127/1
f 91/122/1 92/123/1 95/128/1 131/129/1 109/126/1
f 92/123/1 93/124/1 96/130/1 95/128/1
f 93/124/1 94/125/1 144/131/1 96/130/1
f 95/128/1 96/130/1 149/132/1 115/133/1
f 77/101/1 138/134/1 68/90/1 69/89/1
f 118/61/1 102/73/1 49/62/1
f 120/135/1 139/136/1 107/137/1 10/21/1 17/23/1
f 99/138/1 119/139/1 5/12/1 11/14/1 10/21/1
f 119/139/1 140/140/1 112/141/1 5/12/1
f 115/133/1 131/129/1 95/128/1
f 111/78/1 108/64/1 50/63/1
f 122/142/1 142/143/1 126/144/1 33/44/1 41/54/1
f 126/144/1 145/145/1 98/146/1 25/33/1 33/44/1
f 113/147/1 146/148/1 106/149/1 2/6/1
f 100/30/1 147/150/1 116/40/1 24/31/1
f 124/87/1 114/98/1 67/88/1
f 125/65/1 122/142/1 41/54/1
f 98/146/1 148/151/1 120/135/1 17/23/1 25/33/1
f 112/141/1 113/147/1 2/6/1 6/8/1 5/12/1
f 101/152/1 130/153/1 1/1/1
f 133/127/1 121/120/1 90/119/1
f 97/121/1 150/154/1 132/110/1 84/109/1
f 127/19/1 135/29/1 16/20/1
f 107/137/1 99/138/1 10/21/1
f 110/112/1 77/101/1 78/100/1
f 105/74/1 128/86/1 58/75/1
f 106/149/1 101/152/1 1/1/1 3/5/1 2/6/1
f 68/90/1 154/155/1 134/77/1 59/76/1
f 130/153/1 117/2/1 1/1/1
