# Blender v2.93.0 OBJ File: 'v3.1.blend'
# www.blender.org
mtllib island_01_d_nav.mtl
o Island_01_D_NAV_Grid.028
v 71.381035 -2.000000 -92.628845
v 73.464714 -2.000000 -91.886955
v 76.548393 -2.000000 -92.145073
v 79.632088 -2.000000 -92.403198
v 81.715767 -2.000000 -92.661316
v 68.039230 -2.000000 -94.454407
v 69.122917 -2.000000 -93.712517
v 73.206589 -2.000000 -94.970642
v 76.290268 -2.000000 -95.228760
v 79.373962 -2.000000 -95.486885
v 83.457649 -2.000000 -93.744995
v 84.541328 -2.000000 -95.003113
v 61.613724 -2.000000 -97.021851
v 63.697403 -2.000000 -96.279968
v 65.781105 -2.000000 -95.538086
v 69.864792 -2.000000 -96.796211
v 72.948471 -2.000000 -97.054329
v 76.032158 -2.000000 -97.312447
v 79.115845 -2.000000 -97.570572
v 82.199524 -2.000000 -97.828690
v 87.283203 -2.000000 -96.086800
v 89.366913 -2.000000 -96.344925
v 91.450584 -2.000000 -97.603043
v 94.534286 -2.000000 -99.861176
v 60.355606 -2.000000 -99.105530
v 63.439285 -2.000000 -99.363647
v 66.522987 -2.000000 -99.621773
v 69.606674 -2.000000 -99.879890
v 72.690353 -2.000000 -100.138008
v 75.774040 -2.000000 -100.396126
v 78.857727 -2.000000 -100.654251
v 81.941406 -2.000000 -100.912369
v 85.025085 -2.000000 -101.170486
v 88.108795 -2.000000 -101.428612
v 93.192474 -2.000000 -100.686729
v 95.787773 -2.000000 -102.071381
v 60.097485 -2.000000 -102.189209
v 63.181164 -2.000000 -102.447327
v 66.264870 -2.000000 -102.705452
v 69.348557 -2.000000 -102.963570
v 72.432236 -2.000000 -103.221687
v 75.515923 -2.000000 -103.479805
v 78.599609 -2.000000 -103.737930
v 81.683289 -2.000000 -103.996048
v 84.766968 -2.000000 -104.254166
v 89.235756 -2.000000 -106.150429
v 90.934357 -2.000000 -104.770409
v 93.388763 -2.000000 -103.453651
v 56.755676 -2.000000 -105.014801
v 58.839367 -2.000000 -103.272919
v 62.923042 -2.000000 -105.531036
v 66.006744 -2.000000 -105.789162
v 69.090431 -2.000000 -106.047279
v 72.174110 -2.000000 -106.305397
v 75.257797 -2.000000 -106.563515
v 78.341484 -2.000000 -106.821640
v 82.746979 -2.000000 -109.473709
v 85.201385 -2.000000 -108.156952
v 87.655815 -2.000000 -106.840195
v 56.247566 -2.000000 -108.098480
v 59.581245 -2.000000 -108.356598
v 62.664925 -2.000000 -108.614716
v 65.748627 -2.000000 -108.872841
v 68.832314 -2.000000 -109.130959
v 71.915993 -2.000000 -109.389076
v 77.077293 -2.000000 -112.104408
v 79.468437 -2.000000 -111.543457
v 81.103783 -2.000000 -110.919243
v 55.489445 -2.000000 -111.182167
v 59.323124 -2.000000 -111.440285
v 62.406803 -2.000000 -111.698402
v 65.490509 -2.000000 -111.956528
v 68.574196 -2.000000 -112.214645
v 72.979691 -2.000000 -114.866714
v 74.678291 -2.000000 -113.486687
v 55.231327 -2.000000 -114.265839
v 59.065006 -2.000000 -114.523964
v 62.148685 -2.000000 -114.782082
v 67.310013 -2.000000 -117.497406
v 69.764420 -2.000000 -116.180656
v 71.399750 -2.000000 -115.556442
v 55.473206 -2.000000 -117.349533
v 58.806885 -2.000000 -117.607651
v 63.275646 -2.000000 -119.503914
v 64.911003 -2.000000 -118.879700
v 56.913425 -2.000000 -121.315536
v 58.548767 -2.000000 -120.691322
v 60.939903 -2.000000 -120.130371
vt 0.750000 0.760000
vt 0.760000 0.760000
vt 0.760000 0.770000
vt 0.750000 0.770000
vt 0.770000 0.760000
vt 0.770000 0.770000
vt 0.780000 0.760000
vt 0.780000 0.770000
vt 0.790000 0.760000
vt 0.790000 0.770000
vt 0.740000 0.770000
vt 0.750000 0.780000
vt 0.740000 0.780000
vt 0.760000 0.780000
vt 0.770000 0.780000
vt 0.780000 0.780000
vt 0.790000 0.780000
vt 0.800000 0.770000
vt 0.800000 0.780000
vt 0.720000 0.780000
vt 0.730000 0.780000
vt 0.730000 0.790000
vt 0.720000 0.790000
vt 0.740000 0.790000
vt 0.750000 0.790000
vt 0.760000 0.790000
vt 0.770000 0.790000
vt 0.780000 0.790000
vt 0.790000 0.790000
vt 0.800000 0.790000
vt 0.810000 0.780000
vt 0.810000 0.790000
vt 0.820000 0.780000
vt 0.820000 0.790000
vt 0.830000 0.780000
vt 0.830000 0.790000
vt 0.730000 0.800000
vt 0.720000 0.800000
vt 0.740000 0.800000
vt 0.750000 0.800000
vt 0.760000 0.800000
vt 0.770000 0.800000
vt 0.780000 0.800000
vt 0.790000 0.800000
vt 0.800000 0.800000
vt 0.810000 0.800000
vt 0.820000 0.800000
vt 0.830000 0.800000
vt 0.730000 0.810000
vt 0.720000 0.810000
vt 0.740000 0.810000
vt 0.750000 0.810000
vt 0.760000 0.810000
vt 0.770000 0.810000
vt 0.780000 0.810000
vt 0.790000 0.810000
vt 0.800000 0.810000
vt 0.810000 0.810000
vt 0.710000 0.810000
vt 0.720000 0.820000
vt 0.710000 0.820000
vt 0.730000 0.820000
vt 0.740000 0.820000
vt 0.750000 0.820000
vt 0.760000 0.820000
vt 0.770000 0.820000
vt 0.780000 0.820000
vt 0.790000 0.820000
vt 0.720000 0.830000
vt 0.710000 0.830000
vt 0.730000 0.830000
vt 0.740000 0.830000
vt 0.750000 0.830000
vt 0.760000 0.830000
vt 0.770000 0.830000
vt 0.720000 0.839999
vt 0.710000 0.839999
vt 0.730000 0.839999
vt 0.740000 0.839999
vt 0.750000 0.839999
vt 0.760000 0.839999
vt 0.720000 0.849999
vt 0.710000 0.849999
vt 0.730000 0.849999
vt 0.740000 0.849999
vt 0.720000 0.859999
vt 0.710000 0.859999
vt 0.730000 0.859999
vn 0.0000 1.0000 0.0000
usemtl Material.005
s off
f 1/1/1 2/2/1 8/3/1 7/4/1
f 2/2/1 3/5/1 9/6/1 8/3/1
f 3/5/1 4/7/1 10/8/1 9/6/1
f 4/7/1 5/9/1 11/10/1 10/8/1
f 6/11/1 7/4/1 16/12/1 15/13/1
f 7/4/1 8/3/1 17/14/1 16/12/1
f 8/3/1 9/6/1 18/15/1 17/14/1
f 9/6/1 10/8/1 19/16/1 18/15/1
f 10/8/1 11/10/1 20/17/1 19/16/1
f 11/10/1 12/18/1 21/19/1 20/17/1
f 13/20/1 14/21/1 26/22/1 25/23/1
f 14/21/1 15/13/1 27/24/1 26/22/1
f 15/13/1 16/12/1 28/25/1 27/24/1
f 16/12/1 17/14/1 29/26/1 28/25/1
f 17/14/1 18/15/1 30/27/1 29/26/1
f 18/15/1 19/16/1 31/28/1 30/27/1
f 19/16/1 20/17/1 32/29/1 31/28/1
f 20/17/1 21/19/1 33/30/1 32/29/1
f 21/19/1 22/31/1 34/32/1 33/30/1
f 22/31/1 23/33/1 35/34/1 34/32/1
f 23/33/1 24/35/1 36/36/1 35/34/1
f 25/23/1 26/22/1 38/37/1 37/38/1
f 26/22/1 27/24/1 39/39/1 38/37/1
f 27/24/1 28/25/1 40/40/1 39/39/1
f 28/25/1 29/26/1 41/41/1 40/40/1
f 29/26/1 30/27/1 42/42/1 41/41/1
f 30/27/1 31/28/1 43/43/1 42/42/1
f 31/28/1 32/29/1 44/44/1 43/43/1
f 32/29/1 33/30/1 45/45/1 44/44/1
f 33/30/1 34/32/1 46/46/1 45/45/1
f 34/32/1 35/34/1 47/47/1 46/46/1
f 35/34/1 36/36/1 48/48/1 47/47/1
f 37/38/1 38/37/1 51/49/1 50/50/1
f 38/37/1 39/39/1 52/51/1 51/49/1
f 39/39/1 40/40/1 53/52/1 52/51/1
f 40/40/1 41/41/1 54/53/1 53/52/1
f 41/41/1 42/42/1 55/54/1 54/53/1
f 42/42/1 43/43/1 56/55/1 55/54/1
f 43/43/1 44/44/1 57/56/1 56/55/1
f 44/44/1 45/45/1 58/57/1 57/56/1
f 45/45/1 46/46/1 59/58/1 58/57/1
f 49/59/1 50/50/1 61/60/1 60/61/1
f 50/50/1 51/49/1 62/62/1 61/60/1
f 51/49/1 52/51/1 63/63/1 62/62/1
f 52/51/1 53/52/1 64/64/1 63/63/1
f 53/52/1 54/53/1 65/65/1 64/64/1
f 54/53/1 55/54/1 66/66/1 65/65/1
f 55/54/1 56/55/1 67/67/1 66/66/1
f 56/55/1 57/56/1 68/68/1 67/67/1
f 60/61/1 61/60/1 70/69/1 69/70/1
f 61/60/1 62/62/1 71/71/1 70/69/1
f 62/62/1 63/63/1 72/72/1 71/71/1
f 63/63/1 64/64/1 73/73/1 72/72/1
f 64/64/1 65/65/1 74/74/1 73/73/1
f 65/65/1 66/66/1 75/75/1 74/74/1
f 69/70/1 70/69/1 77/76/1 76/77/1
f 70/69/1 71/71/1 78/78/1 77/76/1
f 71/71/1 72/72/1 79/79/1 78/78/1
f 72/72/1 73/73/1 80/80/1 79/79/1
f 73/73/1 74/74/1 81/81/1 80/80/1
f 76/77/1 77/76/1 83/82/1 82/83/1
f 77/76/1 78/78/1 84/84/1 83/82/1
f 78/78/1 79/79/1 85/85/1 84/84/1
f 82/83/1 83/82/1 87/86/1 86/87/1
f 83/82/1 84/84/1 88/88/1 87/86/1
