# Blender v2.93.0 OBJ File: 'v3.1.blend'
# www.blender.org
mtllib island_01_d.mtl
o Island_01_D_Grid.007
v 71.381035 -2.000000 -92.628845
v 73.464714 -2.000000 -91.886955
v 76.548393 -2.000000 -92.145073
v 79.632088 -2.000000 -92.403198
v 81.715767 -2.000000 -92.661316
v 68.039230 -2.000000 -94.454407
v 69.122917 -2.000000 -93.712517
v 73.206589 -2.000000 -94.970642
v 76.290268 -2.000000 -95.228760
v 79.373962 -2.000000 -95.486885
v 83.457649 -2.000000 -93.744995
v 84.541328 -2.000000 -95.003113
v 61.613724 -2.000000 -97.021851
v 63.697403 -2.000000 -96.279968
v 65.781105 -2.000000 -95.538086
v 69.864792 -2.000000 -96.796211
v 72.948471 -2.000000 -97.054329
v 76.032158 -2.000000 -97.312447
v 79.115845 -2.000000 -97.570572
v 82.199524 -2.000000 -97.828690
v 87.283203 -2.000000 -96.086800
v 89.366913 -2.000000 -96.344925
v 91.450584 -2.000000 -97.603043
v 94.534286 -2.000000 -99.861176
v 60.355606 -2.000000 -99.105530
v 63.439285 -2.000000 -99.363647
v 66.522987 -2.000000 -99.621773
v 69.606674 -2.000000 -99.879890
v 72.690353 -2.000000 -100.138008
v 75.774040 -2.000000 -100.396126
v 78.857727 -2.000000 -100.654251
v 81.941406 -2.000000 -100.912369
v 85.025085 -2.000000 -101.170486
v 88.108795 -2.000000 -101.428612
v 93.192474 -2.000000 -100.686729
v 95.787773 -2.000000 -102.071381
v 60.097485 -2.000000 -102.189209
v 63.181164 -2.000000 -102.447327
v 66.264870 -2.000000 -102.705452
v 69.348557 -2.000000 -102.963570
v 72.432236 -2.000000 -103.221687
v 75.515923 -2.000000 -103.479805
v 78.599609 -2.000000 -103.737930
v 81.683289 -2.000000 -103.996048
v 84.766968 -2.000000 -104.254166
v 89.235756 -2.000000 -106.150429
v 90.934357 -2.000000 -104.770409
v 93.388763 -2.000000 -103.453651
v 56.755676 -2.000000 -105.014801
v 58.839367 -2.000000 -103.272919
v 62.923042 -2.000000 -105.531036
v 66.006744 -2.000000 -105.789162
v 69.090431 -2.000000 -106.047279
v 72.174110 -2.000000 -106.305397
v 75.257797 -2.000000 -106.563515
v 78.341484 -2.000000 -106.821640
v 82.746979 -2.000000 -109.473709
v 85.201385 -2.000000 -108.156952
v 87.655815 -2.000000 -106.840195
v 56.247566 -2.000000 -108.098480
v 59.581245 -2.000000 -108.356598
v 62.664925 -2.000000 -108.614716
v 65.748627 -2.000000 -108.872841
v 68.832314 -2.000000 -109.130959
v 71.915993 -2.000000 -109.389076
v 77.077293 -2.000000 -112.104408
v 79.468437 -2.000000 -111.543457
v 81.103783 -2.000000 -110.919243
v 55.489445 -2.000000 -111.182167
v 59.323124 -2.000000 -111.440285
v 62.406803 -2.000000 -111.698402
v 65.490509 -2.000000 -111.956528
v 68.574196 -2.000000 -112.214645
v 72.979691 -2.000000 -114.866714
v 74.678291 -2.000000 -113.486687
v 55.231327 -2.000000 -114.265839
v 59.065006 -2.000000 -114.523964
v 62.148685 -2.000000 -114.782082
v 67.310013 -2.000000 -117.497406
v 69.764420 -2.000000 -116.180656
v 71.399750 -2.000000 -115.556442
v 55.473206 -2.000000 -117.349533
v 58.806885 -2.000000 -117.607651
v 63.275646 -2.000000 -119.503914
v 64.911003 -2.000000 -118.879700
v 56.913425 -2.000000 -121.315536
v 58.548767 -2.000000 -120.691322
v 60.939903 -2.000000 -120.130371
v 73.464714 -2.000000 -91.886955
v 71.381035 -2.000000 -92.628845
v 76.548393 -2.000000 -92.145073
v 79.632088 -2.000000 -92.403198
v 81.715767 -2.000000 -92.661316
v 69.122917 -2.000000 -93.712517
v 68.039230 -2.000000 -94.454407
v 83.457649 -2.000000 -93.744995
v 84.541328 -2.000000 -95.003113
v 63.697403 -2.000000 -96.279968
v 61.613724 -2.000000 -97.021851
v 65.781105 -2.000000 -95.538086
v 87.283203 -2.000000 -96.086800
v 89.366913 -2.000000 -96.344925
v 91.450584 -2.000000 -97.603043
v 94.534286 -2.000000 -99.861176
v 60.355606 -2.000000 -99.105530
v 95.787773 -2.000000 -102.071381
v 60.097485 -2.000000 -102.189209
v 89.235756 -2.000000 -106.150429
v 90.934357 -2.000000 -104.770409
v 93.388763 -2.000000 -103.453651
v 58.839367 -2.000000 -103.272919
v 56.755676 -2.000000 -105.014801
v 82.746979 -2.000000 -109.473709
v 85.201385 -2.000000 -108.156952
v 87.655815 -2.000000 -106.840195
v 56.247566 -2.000000 -108.098480
v 77.077293 -2.000000 -112.104408
v 79.468437 -2.000000 -111.543457
v 81.103783 -2.000000 -110.919243
v 55.489445 -2.000000 -111.182167
v 72.979691 -2.000000 -114.866714
v 74.678291 -2.000000 -113.486687
v 55.231327 -2.000000 -114.265839
v 67.310013 -2.000000 -117.497406
v 69.764420 -2.000000 -116.180656
v 71.399750 -2.000000 -115.556442
v 55.473206 -2.000000 -117.349533
v 63.275646 -2.000000 -119.503914
v 64.911003 -2.000000 -118.879700
v 56.913425 -2.000000 -121.315536
v 58.548767 -2.000000 -120.691322
v 60.939903 -2.000000 -120.130371
v 73.464714 -0.000000 -91.886955
v 71.381035 -0.000000 -92.628845
v 76.548393 -0.000000 -92.145073
v 79.632088 -0.000000 -92.403198
v 81.715767 -0.000000 -92.661316
v 69.122917 -0.000000 -93.712517
v 68.039230 -0.000000 -94.454407
v 83.457649 -0.000000 -93.744995
v 84.541328 -0.000000 -95.003113
v 63.697403 -0.000000 -96.279968
v 61.613724 -0.000000 -97.021851
v 65.781105 -0.000000 -95.538086
v 87.283203 -0.000000 -96.086800
v 89.366913 -0.000000 -96.344925
v 91.450584 -0.000000 -97.603043
v 94.534286 -0.000000 -99.861176
v 60.355606 -0.000000 -99.105530
v 95.787773 -0.000000 -102.071381
v 60.097485 -0.000000 -102.189209
v 58.839367 -0.000000 -103.272919
v 56.755676 -0.000000 -105.014801
v 56.247566 -0.000000 -108.098480
v 55.489445 -0.000000 -111.182167
v 55.231327 0.000000 -114.265839
v 55.473206 0.000000 -117.349533
v 56.913425 0.000000 -121.315536
vt 0.750000 0.760000
vt 0.760000 0.760000
vt 0.760000 0.770000
vt 0.750000 0.770000
vt 0.770000 0.760000
vt 0.770000 0.770000
vt 0.780000 0.760000
vt 0.780000 0.770000
vt 0.790000 0.760000
vt 0.790000 0.770000
vt 0.740000 0.770000
vt 0.750000 0.780000
vt 0.740000 0.780000
vt 0.760000 0.780000
vt 0.770000 0.780000
vt 0.780000 0.780000
vt 0.790000 0.780000
vt 0.800000 0.770000
vt 0.800000 0.780000
vt 0.720000 0.780000
vt 0.730000 0.780000
vt 0.730000 0.790000
vt 0.720000 0.790000
vt 0.740000 0.790000
vt 0.750000 0.790000
vt 0.760000 0.790000
vt 0.770000 0.790000
vt 0.780000 0.790000
vt 0.790000 0.790000
vt 0.800000 0.790000
vt 0.810000 0.780000
vt 0.810000 0.790000
vt 0.820000 0.780000
vt 0.820000 0.790000
vt 0.830000 0.780000
vt 0.830000 0.790000
vt 0.730000 0.800000
vt 0.720000 0.800000
vt 0.740000 0.800000
vt 0.750000 0.800000
vt 0.760000 0.800000
vt 0.770000 0.800000
vt 0.780000 0.800000
vt 0.790000 0.800000
vt 0.800000 0.800000
vt 0.810000 0.800000
vt 0.820000 0.800000
vt 0.830000 0.800000
vt 0.730000 0.810000
vt 0.720000 0.810000
vt 0.740000 0.810000
vt 0.750000 0.810000
vt 0.760000 0.810000
vt 0.770000 0.810000
vt 0.780000 0.810000
vt 0.790000 0.810000
vt 0.800000 0.810000
vt 0.810000 0.810000
vt 0.710000 0.810000
vt 0.720000 0.820000
vt 0.710000 0.820000
vt 0.730000 0.820000
vt 0.740000 0.820000
vt 0.750000 0.820000
vt 0.760000 0.820000
vt 0.770000 0.820000
vt 0.780000 0.820000
vt 0.790000 0.820000
vt 0.720000 0.830000
vt 0.710000 0.830000
vt 0.730000 0.830000
vt 0.740000 0.830000
vt 0.750000 0.830000
vt 0.760000 0.830000
vt 0.770000 0.830000
vt 0.720000 0.839999
vt 0.710000 0.839999
vt 0.730000 0.839999
vt 0.740000 0.839999
vt 0.750000 0.839999
vt 0.760000 0.839999
vt 0.720000 0.849999
vt 0.710000 0.849999
vt 0.730000 0.849999
vt 0.740000 0.849999
vt 0.720000 0.859999
vt 0.710000 0.859999
vt 0.730000 0.859999
vt 0.710000 0.830000
vt 0.710000 0.830000
vt 0.710000 0.820000
vt 0.710000 0.820000
vt 0.720000 0.790000
vt 0.720000 0.790000
vt 0.720000 0.780000
vt 0.720000 0.780000
vt 0.820000 0.780000
vt 0.820000 0.780000
vt 0.830000 0.780000
vt 0.830000 0.780000
vt 0.710000 0.810000
vt 0.710000 0.810000
vt 0.740000 0.770000
vt 0.740000 0.770000
vt 0.750000 0.770000
vt 0.750000 0.770000
vt 0.810000 0.780000
vt 0.810000 0.780000
vt 0.750000 0.760000
vt 0.750000 0.760000
vt 0.730000 0.780000
vt 0.730000 0.780000
vt 0.740000 0.780000
vt 0.740000 0.780000
vt 0.800000 0.780000
vt 0.800000 0.780000
vt 0.780000 0.760000
vt 0.780000 0.760000
vt 0.790000 0.760000
vt 0.790000 0.760000
vt 0.770000 0.760000
vt 0.770000 0.760000
vt 0.800000 0.770000
vt 0.800000 0.770000
vt 0.760000 0.760000
vt 0.760000 0.760000
vt 0.790000 0.770000
vt 0.790000 0.770000
vt 0.830000 0.790000
vt 0.830000 0.790000
vt 0.720000 0.810000
vt 0.720000 0.810000
vt 0.720000 0.800000
vt 0.720000 0.800000
vt 0.720000 0.859999
vt 0.710000 0.859999
vt 0.800000 0.810000
vt 0.790000 0.810000
vt 0.730000 0.849999
vt 0.730000 0.859999
vt 0.750000 0.839999
vt 0.740000 0.839999
vt 0.810000 0.800000
vt 0.810000 0.810000
vt 0.760000 0.830000
vt 0.760000 0.839999
vt 0.780000 0.820000
vt 0.770000 0.820000
vt 0.710000 0.849999
vt 0.710000 0.839999
vt 0.770000 0.830000
vt 0.790000 0.820000
vt 0.820000 0.800000
vt 0.830000 0.800000
vt 0.740000 0.849999
vt 0.000000 0.000000
vt 0.000000 0.000000
vt 0.000000 0.000000
vn 0.0000 1.0000 0.0000
vn 0.9711 0.0000 -0.2387
vn 0.8561 0.0000 -0.5169
vn -0.5908 0.0000 -0.8068
vn 0.9867 0.0000 -0.1626
vn 0.5649 0.0000 -0.8252
vn -0.5169 0.0000 -0.8561
vn 0.4327 0.0000 -0.9016
vn 0.3354 0.0000 -0.9421
vn -0.1229 0.0000 -0.9924
vn -0.0834 0.0000 -0.9965
vn -0.3676 0.0000 -0.9300
vn -0.7577 0.0000 -0.6526
vn -0.8698 0.0000 -0.4933
vn 0.6414 0.0000 -0.7672
vn -0.5282 0.0000 -0.8491
vn 0.6526 0.0000 -0.7577
vn 0.9965 0.0000 -0.0834
vn 0.0000 0.0000 1.0000
vn 0.9969 0.0000 0.0782
vn 0.9399 0.0000 0.3413
usemtl Material.005
s off
f 1/1/1 2/2/1 8/3/1 7/4/1
f 2/2/1 3/5/1 9/6/1 8/3/1
f 3/5/1 4/7/1 10/8/1 9/6/1
f 4/7/1 5/9/1 11/10/1 10/8/1
f 6/11/1 7/4/1 16/12/1 15/13/1
f 7/4/1 8/3/1 17/14/1 16/12/1
f 8/3/1 9/6/1 18/15/1 17/14/1
f 9/6/1 10/8/1 19/16/1 18/15/1
f 10/8/1 11/10/1 20/17/1 19/16/1
f 11/10/1 12/18/1 21/19/1 20/17/1
f 13/20/1 14/21/1 26/22/1 25/23/1
f 14/21/1 15/13/1 27/24/1 26/22/1
f 15/13/1 16/12/1 28/25/1 27/24/1
f 16/12/1 17/14/1 29/26/1 28/25/1
f 17/14/1 18/15/1 30/27/1 29/26/1
f 18/15/1 19/16/1 31/28/1 30/27/1
f 19/16/1 20/17/1 32/29/1 31/28/1
f 20/17/1 21/19/1 33/30/1 32/29/1
f 21/19/1 22/31/1 34/32/1 33/30/1
f 22/31/1 23/33/1 35/34/1 34/32/1
f 23/33/1 24/35/1 36/36/1 35/34/1
f 25/23/1 26/22/1 38/37/1 37/38/1
f 26/22/1 27/24/1 39/39/1 38/37/1
f 27/24/1 28/25/1 40/40/1 39/39/1
f 28/25/1 29/26/1 41/41/1 40/40/1
f 29/26/1 30/27/1 42/42/1 41/41/1
f 30/27/1 31/28/1 43/43/1 42/42/1
f 31/28/1 32/29/1 44/44/1 43/43/1
f 32/29/1 33/30/1 45/45/1 44/44/1
f 33/30/1 34/32/1 46/46/1 45/45/1
f 34/32/1 35/34/1 47/47/1 46/46/1
f 35/34/1 36/36/1 48/48/1 47/47/1
f 37/38/1 38/37/1 51/49/1 50/50/1
f 38/37/1 39/39/1 52/51/1 51/49/1
f 39/39/1 40/40/1 53/52/1 52/51/1
f 40/40/1 41/41/1 54/53/1 53/52/1
f 41/41/1 42/42/1 55/54/1 54/53/1
f 42/42/1 43/43/1 56/55/1 55/54/1
f 43/43/1 44/44/1 57/56/1 56/55/1
f 44/44/1 45/45/1 58/57/1 57/56/1
f 45/45/1 46/46/1 59/58/1 58/57/1
f 49/59/1 50/50/1 61/60/1 60/61/1
f 50/50/1 51/49/1 62/62/1 61/60/1
f 51/49/1 52/51/1 63/63/1 62/62/1
f 52/51/1 53/52/1 64/64/1 63/63/1
f 53/52/1 54/53/1 65/65/1 64/64/1
f 54/53/1 55/54/1 66/66/1 65/65/1
f 55/54/1 56/55/1 67/67/1 66/66/1
f 56/55/1 57/56/1 68/68/1 67/67/1
f 60/61/1 61/60/1 70/69/1 69/70/1
f 61/60/1 62/62/1 71/71/1 70/69/1
f 62/62/1 63/63/1 72/72/1 71/71/1
f 63/63/1 64/64/1 73/73/1 72/72/1
f 64/64/1 65/65/1 74/74/1 73/73/1
f 65/65/1 66/66/1 75/75/1 74/74/1
f 69/70/1 70/69/1 77/76/1 76/77/1
f 70/69/1 71/71/1 78/78/1 77/76/1
f 71/71/1 72/72/1 79/79/1 78/78/1
f 72/72/1 73/73/1 80/80/1 79/79/1
f 73/73/1 74/74/1 81/81/1 80/80/1
f 76/77/1 77/76/1 83/82/1 82/83/1
f 77/76/1 78/78/1 84/84/1 83/82/1
f 78/78/1 79/79/1 85/85/1 84/84/1
f 82/83/1 83/82/1 87/86/1 86/87/1
f 83/82/1 84/84/1 88/88/1 87/86/1
f 120/89/2 155/90/2 154/91/2 116/92/2
f 105/93/3 149/94/3 143/95/3 99/96/3
f 103/97/4 147/98/4 148/99/4 104/100/4
f 116/92/5 154/91/5 153/101/5 112/102/5
f 95/103/6 139/104/6 138/105/6 94/106/6
f 102/107/7 146/108/7 147/98/7 103/97/7
f 94/106/8 138/105/8 134/109/8 90/110/8
f 98/111/9 142/112/9 144/113/9 100/114/9
f 101/115/10 145/116/10 146/108/10 102/107/10
f 92/117/10 136/118/10 137/119/10 93/120/10
f 100/114/8 144/113/8 139/104/8 95/103/8
f 91/121/11 135/122/11 136/118/11 92/117/11
f 99/96/9 143/95/9 142/112/9 98/111/9
f 97/123/12 141/124/12 145/116/12 101/115/12
f 89/125/11 133/126/11 135/122/11 91/121/11
f 96/127/13 140/128/13 141/124/13 97/123/13
f 104/100/14 148/99/14 150/129/14 106/130/14
f 90/110/9 134/109/9 133/126/9 89/125/9
f 112/102/15 153/101/15 152/131/15 111/132/15
f 93/120/16 137/119/16 140/128/16 96/127/16
f 111/132/17 152/131/17 151/133/17 107/134/17
f 107/134/18 151/133/18 149/94/18 105/93/18
f 24/35/19 104/100/19 106/130/19 36/36/19
f 11/10/19 96/127/19 97/123/19 12/18/19
f 2/2/19 89/125/19 91/121/19 3/5/19
f 12/18/19 97/123/19 101/115/19 21/19/19
f 87/86/19 131/135/19 130/136/19 86/87/19
f 13/20/19 99/96/19 98/111/19 14/21/19
f 3/5/19 91/121/19 92/117/19 4/7/19
f 58/57/19 114/137/19 113/138/19 57/56/19
f 37/38/19 107/134/19 105/93/19 25/23/19
f 84/84/19 128/139/19 132/140/19 88/88/19
f 15/13/19 100/114/19 95/103/19 6/11/19
f 80/80/19 125/141/19 124/142/19 79/79/19
f 4/7/19 92/117/19 93/120/19 5/9/19
f 46/46/19 108/143/19 115/144/19 59/58/19
f 21/19/19 101/115/19 102/107/19 22/31/19
f 88/88/19 132/140/19 131/135/19 87/86/19
f 14/21/19 98/111/19 100/114/19 15/13/19
f 74/74/19 121/145/19 126/146/19 81/81/19
f 7/4/19 94/106/19 90/110/19 1/1/19
f 59/58/19 115/144/19 114/137/19 58/57/19
f 22/31/19 102/107/19 103/97/19 23/33/19
f 81/81/19 126/146/19 125/141/19 80/80/19
f 6/11/19 95/103/19 94/106/19 7/4/19
f 60/61/19 116/92/19 112/102/19 49/59/19
f 23/33/19 103/97/19 104/100/19 24/35/19
f 67/67/19 118/147/19 117/148/19 66/66/19
f 82/83/19 127/149/19 123/150/19 76/77/19
f 25/23/19 105/93/19 99/96/19 13/20/19
f 66/66/19 117/148/19 122/151/19 75/75/19
f 57/56/19 113/138/19 119/152/19 68/68/19
f 75/75/19 122/151/19 121/145/19 74/74/19
f 68/68/19 119/152/19 118/147/19 67/67/19
f 76/77/19 123/150/19 120/89/19 69/70/19
f 69/70/19 120/89/19 116/92/19 60/61/19
f 47/47/19 109/153/19 108/143/19 46/46/19
f 36/36/19 106/130/19 110/154/19 48/48/19
f 79/79/19 124/142/19 129/155/19 85/85/19
f 48/48/19 110/154/19 109/153/19 47/47/19
f 85/85/19 129/155/19 128/139/19 84/84/19
f 50/50/19 111/132/19 107/134/19 37/38/19
f 5/9/19 93/120/19 96/127/19 11/10/19
f 86/87/19 130/136/19 127/149/19 82/83/19
f 49/59/19 112/102/19 111/132/19 50/50/19
f 1/1/19 90/110/19 89/125/19 2/2/19
f 155/90/18 120/89/18 123/150/18 156/156/18
f 127/149/20 157/157/20 156/156/20 123/150/20
f 130/136/21 158/158/21 157/157/21 127/149/21
