# Blender v2.92.0 OBJ File: 'Tutorial1.blend'
# www.blender.org
mtllib Platform1_face.mtl
o Platform1_FACE_Plane.020
v -8.774451 2.142133 -11.397781
v -0.778891 2.142133 -12.265580
v -9.223282 2.142133 -16.537809
v -1.670375 2.142133 -17.086123
v -9.615023 2.142133 -15.949938
v -9.383017 2.142133 -14.681691
v -9.368729 2.142133 -13.444036
v -9.614204 2.142133 -12.377287
v -0.086896 2.142133 -12.977744
v 0.035229 2.142133 -14.189187
v -0.271510 2.142133 -15.377355
v -0.655541 2.142133 -16.453037
v -7.762822 2.142133 -11.180758
v -5.918318 2.142133 -11.525026
v -4.173549 2.142133 -11.708415
v -2.126728 2.142133 -11.721748
v -2.897137 2.142133 -17.305014
v -4.213940 2.142133 -17.120707
v -6.742610 2.142133 -16.924446
v -8.281351 2.142133 -16.852165
v -2.220655 2.158043 -12.584996
v -3.936656 2.158043 -12.631901
v -6.066541 2.158043 -12.225429
v -8.111933 2.158043 -12.061314
v -2.437976 2.158043 -13.872902
v -4.066062 2.158043 -13.739676
v -6.260154 2.158043 -13.528064
v -8.005395 2.158043 -13.413794
v -2.637656 2.158043 -15.157050
v -4.265743 2.158043 -15.023825
v -6.459834 2.158043 -14.812212
v -8.368628 2.158043 -14.640574
v -2.839132 2.158043 -16.439030
v -4.362513 2.158043 -16.288376
v -6.659514 2.158043 -16.096361
v -8.565748 2.158043 -15.921889
v -9.418997 2.142133 -11.908051
v -0.432894 2.142133 -12.621662
v -8.038643 2.158043 -11.553283
v -6.010386 2.158043 -11.819059
v -3.863768 2.158043 -12.033867
v -2.144939 2.158043 -12.129068
v -9.490244 2.142133 -12.911327
v -0.025834 2.142133 -13.583466
v -8.056681 2.158043 -12.738561
v -6.160314 2.158043 -12.885989
v -3.956300 2.158043 -13.096847
v -2.329315 2.158043 -13.228949
v -9.721184 2.142133 -15.289602
v -0.463525 2.142133 -15.915195
v -8.467188 2.158043 -15.281231
v -6.559674 2.158043 -15.454287
v -4.365583 2.158043 -15.665899
v -2.738394 2.158043 -15.798040
v -5.062964 2.142133 -11.618018
v -5.453038 2.142133 -16.964907
v -5.107963 2.158043 -12.320882
v -5.304609 2.158043 -13.614273
v -5.504290 2.158043 -14.898421
v -5.703970 2.158043 -16.182570
v -5.090185 2.158043 -11.929161
v -5.204769 2.158043 -12.972198
v -5.604130 2.158043 -15.540496
v -6.840570 2.142133 -11.352892
v -7.511980 2.142133 -16.888306
v -7.089237 2.158043 -12.143372
v -7.132774 2.158043 -13.470928
v -7.414230 2.158043 -14.726393
v -7.612632 2.158043 -16.009125
v -7.024515 2.158043 -11.686171
v -7.108497 2.158043 -12.812275
v -7.513431 2.158043 -15.367759
v -3.150139 2.142133 -11.715082
v -3.555538 2.142133 -17.212860
v -3.078655 2.158043 -12.608449
v -3.252019 2.158043 -13.806290
v -3.451699 2.158043 -15.090438
v -3.600822 2.158043 -16.363703
v -3.004353 2.158043 -12.081468
v -3.142808 2.158043 -13.162898
v -3.551989 2.158043 -15.731970
vt 0.800000 0.800000
vt 1.000000 0.800000
vt 1.000000 1.000000
vt 0.800000 1.000000
vt 0.800000 0.100000
vt 1.000000 0.100000
vt 1.000000 0.200000
vt 0.800000 0.200000
vt 0.800000 0.300000
vt 1.000000 0.300000
vt 1.000000 0.400000
vt 0.800000 0.400000
vt 1.000000 0.600000
vt 0.800000 0.600000
vt 0.800000 0.700000
vt 1.000000 0.700000
vt 0.000000 0.700000
vt 0.200000 0.700000
vt 0.200000 0.800000
vt 0.000000 0.800000
vt 0.300000 0.700000
vt 0.400000 0.700000
vt 0.400000 0.800000
vt 0.300000 0.800000
vt 0.500000 0.700000
vt 0.600000 0.700000
vt 0.600000 0.800000
vt 0.500000 0.800000
vt 0.700000 0.700000
vt 0.700000 0.800000
vt 0.000000 0.400000
vt 0.200000 0.400000
vt 0.200000 0.600000
vt 0.000000 0.600000
vt 0.300000 0.400000
vt 0.400000 0.400000
vt 0.400000 0.600000
vt 0.300000 0.600000
vt 0.500000 0.400000
vt 0.600000 0.400000
vt 0.600000 0.600000
vt 0.500000 0.600000
vt 0.700000 0.400000
vt 0.700000 0.600000
vt 0.000000 0.300000
vt 0.200000 0.300000
vt 0.300000 0.300000
vt 0.400000 0.300000
vt 0.500000 0.300000
vt 0.600000 0.300000
vt 0.700000 0.300000
vt 0.000000 0.100000
vt 0.200000 0.100000
vt 0.200000 0.200000
vt 0.000000 0.200000
vt 0.300000 0.100000
vt 0.400000 0.100000
vt 0.400000 0.200000
vt 0.300000 0.200000
vt 0.500000 0.100000
vt 0.600000 0.100000
vt 0.600000 0.200000
vt 0.500000 0.200000
vt 0.700000 0.100000
vt 0.700000 0.200000
vt 0.200000 1.000000
vt 0.000000 1.000000
vt 0.400000 1.000000
vt 0.300000 1.000000
vt 0.600000 1.000000
vt 0.500000 1.000000
vt 0.700000 1.000000
vt 0.700000 0.000000
vt 0.800000 0.000000
vt 0.500000 0.000000
vt 0.600000 0.000000
vt 0.300000 0.000000
vt 0.400000 0.000000
vt 0.000000 0.000000
vt 0.200000 0.000000
vt 1.000000 0.000000
vn 0.0055 0.9999 -0.0146
vn 0.0090 1.0000 0.0030
vn 0.0066 1.0000 -0.0003
vn 0.0064 1.0000 -0.0013
vn 0.0071 1.0000 -0.0018
vn -0.0138 0.9999 -0.0001
vn 0.0000 1.0000 0.0000
vn -0.0134 0.9999 0.0021
vn -0.0113 0.9999 -0.0016
vn -0.0118 0.9999 0.0032
vn -0.0101 0.9998 -0.0150
vn -0.0013 0.9998 -0.0186
vn -0.0020 0.9998 -0.0202
vn -0.0022 0.9998 -0.0185
vn 0.0012 0.9991 0.0413
vn 0.0048 0.9986 0.0520
vn 0.0075 0.9988 0.0474
vn -0.0146 0.9993 0.0332
vn 0.0143 0.9995 0.0270
vn -0.0106 0.9999 -0.0016
vn 0.0071 1.0000 -0.0003
vn -0.0141 0.9999 0.0049
vn 0.0067 1.0000 -0.0017
vn 0.0059 0.9987 0.0514
vn -0.0011 0.9998 -0.0199
vn 0.0064 0.9991 0.0409
vn -0.0013 0.9998 -0.0179
vn 0.0013 0.9989 0.0468
vn -0.0023 0.9998 -0.0192
usemtl None
s off
f 33/1/1 12/2/1 4/3/1 17/4/1
f 42/5/2 38/6/2 9/7/2 21/8/2
f 48/9/3 44/10/3 10/11/3 25/12/3
f 25/12/4 10/11/4 11/13/4 29/14/4
f 54/15/5 50/16/5 12/2/5 33/1/5
f 49/17/6 51/18/6 36/19/6 5/20/6
f 72/21/7 52/22/7 35/23/7 69/24/7
f 63/25/7 53/26/7 34/27/7 60/28/7
f 81/29/7 54/15/7 33/1/7 78/30/7
f 7/31/8 28/32/8 32/33/8 6/34/8
f 67/35/7 27/36/7 31/37/7 68/38/7
f 58/39/7 26/40/7 30/41/7 59/42/7
f 76/43/7 25/12/7 29/14/7 77/44/7
f 43/45/9 45/46/9 28/32/9 7/31/9
f 71/47/7 46/48/7 27/36/7 67/35/7
f 62/49/7 47/50/7 26/40/7 58/39/7
f 80/51/7 48/9/7 25/12/7 76/43/7
f 37/52/10 39/53/10 24/54/10 8/55/10
f 70/56/7 40/57/7 23/58/7 66/59/7
f 61/60/7 41/61/7 22/62/7 57/63/7
f 79/64/7 42/5/7 21/8/7 75/65/7
f 5/20/11 36/19/11 20/66/11 3/67/11
f 69/24/12 35/23/12 19/68/12 65/69/12
f 60/28/13 34/27/13 18/70/13 56/71/13
f 78/30/14 33/1/14 17/4/14 74/72/14
f 73/73/15 16/74/15 42/5/15 79/64/15
f 55/75/16 15/76/16 41/61/16 61/60/16
f 64/77/17 14/78/17 40/57/17 70/56/17
f 1/79/18 13/80/18 39/53/18 37/52/18
f 16/74/19 2/81/19 38/6/19 42/5/19
f 75/65/7 21/8/7 48/9/7 80/51/7
f 57/63/7 22/62/7 47/50/7 62/49/7
f 66/59/7 23/58/7 46/48/7 71/47/7
f 8/55/20 24/54/20 45/46/20 43/45/20
f 21/8/21 9/7/21 44/10/21 48/9/21
f 77/44/7 29/14/7 54/15/7 81/29/7
f 59/42/7 30/41/7 53/26/7 63/25/7
f 68/38/7 31/37/7 52/22/7 72/21/7
f 6/34/22 32/33/22 51/18/22 49/17/22
f 29/14/23 11/13/23 50/16/23 54/15/23
f 31/37/7 59/42/7 63/25/7 52/22/7
f 23/58/7 57/63/7 62/49/7 46/48/7
f 14/78/24 55/75/24 61/60/24 40/57/24
f 35/23/25 60/28/25 56/71/25 19/68/25
f 40/57/7 61/60/7 57/63/7 23/58/7
f 46/48/7 62/49/7 58/39/7 27/36/7
f 27/36/7 58/39/7 59/42/7 31/37/7
f 52/22/7 63/25/7 60/28/7 35/23/7
f 32/33/7 68/38/7 72/21/7 51/18/7
f 24/54/7 66/59/7 71/47/7 45/46/7
f 13/80/26 64/77/26 70/56/26 39/53/26
f 36/19/27 69/24/27 65/69/27 20/66/27
f 39/53/7 70/56/7 66/59/7 24/54/7
f 45/46/7 71/47/7 67/35/7 28/32/7
f 28/32/7 67/35/7 68/38/7 32/33/7
f 51/18/7 72/21/7 69/24/7 36/19/7
f 30/41/7 77/44/7 81/29/7 53/26/7
f 22/62/7 75/65/7 80/51/7 47/50/7
f 15/76/28 73/73/28 79/64/28 41/61/28
f 34/27/29 78/30/29 74/72/29 18/70/29
f 41/61/7 79/64/7 75/65/7 22/62/7
f 47/50/7 80/51/7 76/43/7 26/40/7
f 26/40/7 76/43/7 77/44/7 30/41/7
f 53/26/7 81/29/7 78/30/7 34/27/7
