# Blender v2.93.3 OBJ File: 'vertex_colour.blend'
# www.blender.org
mtllib nav_03.mtl
o NAV_03_Grid.017
v 105.025772 -0.630772 -153.890854
v 59.641647 -0.630771 -139.707855
v 75.623230 -0.630771 -148.802124
v 67.678001 -0.630771 -145.013885
v 93.691940 -0.630772 -153.023743
v 84.827042 -0.630772 -150.742950
v 92.841949 -0.630772 -158.623749
v 83.727043 -0.630772 -157.342957
v 58.041641 -0.630771 -147.307861
v 90.841949 -0.630772 -165.423752
v 81.727043 -0.630772 -164.142944
v 90.041946 -0.630772 -172.223755
v 80.927048 -0.630772 -170.942963
v 66.078003 -0.630771 -152.613892
v 74.023239 -0.630771 -156.402130
v 56.041641 -0.630771 -154.107849
v 64.078003 -0.630771 -159.413879
v 72.023239 -0.630771 -163.202133
v 55.241642 -0.630771 -160.907852
v 63.278008 -0.630771 -166.213898
v 71.223236 -0.630771 -170.002136
v 105.625771 -0.630772 -160.740860
v 105.225769 -0.630772 -168.340851
v 103.625778 -0.630772 -174.740845
v 88.441948 -0.630772 -179.823761
v 79.327049 -0.630772 -178.542953
v 53.641644 -0.630771 -168.507858
v 61.678009 -0.630771 -173.813889
v 69.623245 -0.630771 -177.602142
v 99.625778 -0.630772 -181.540863
v 87.241951 -0.630772 -188.223755
v 78.127045 -0.630772 -186.942947
v 52.441647 -0.630771 -176.907867
v 60.478012 -0.630771 -182.213898
v 68.423241 -0.630771 -186.002136
v 95.225777 -0.630772 -188.740860
v 85.241959 -0.630772 -195.423767
v 76.927055 -0.630772 -196.142960
v 54.841648 -0.630771 -183.307861
v 59.678005 -0.630771 -189.813889
v 67.223236 -0.630771 -194.402130
v 92.425781 -0.630772 -192.340866
v 63.659821 -0.630771 -142.360870
v 89.259491 -0.630772 -151.883347
v 88.284500 -0.630772 -157.983337
v 84.277046 -0.630772 -154.042938
v 93.266945 -0.630772 -155.823746
v 86.284492 -0.630772 -164.783356
v 82.727043 -0.630772 -160.742950
v 91.841942 -0.630772 -162.023743
v 85.484497 -0.630772 -171.583344
v 81.327042 -0.630772 -167.542938
v 90.441948 -0.630772 -168.823761
v 62.059822 -0.630771 -149.960876
v 70.050621 -0.630771 -154.508011
v 60.059826 -0.630771 -156.760864
v 68.050621 -0.630771 -161.307999
v 73.023239 -0.630771 -159.802124
v 65.078003 -0.630771 -156.013885
v 57.041641 -0.630771 -150.707855
v 59.259827 -0.630771 -163.560867
v 67.250626 -0.630771 -168.108017
v 71.623245 -0.630771 -166.602142
v 63.678005 -0.630771 -162.813873
v 55.641644 -0.630771 -157.507858
v 58.841644 -0.630771 -143.507858
v 66.878006 -0.630771 -148.813889
v 74.823235 -0.630771 -152.602127
v 71.650620 -0.630771 -146.908005
v 78.875145 -0.630771 -156.872543
v 76.875137 -0.630771 -163.672531
v 80.225143 -0.630771 -149.772537
v 76.075142 -0.630771 -170.472534
v 105.325775 -0.630772 -157.315857
v 99.233856 -0.630772 -159.682312
v 99.358856 -0.630772 -153.457306
v 105.425774 -0.630772 -164.540863
v 104.425774 -0.630772 -171.540863
v 96.833862 -0.630772 -173.482300
v 98.033859 -0.630772 -166.882294
v 83.884499 -0.630772 -179.183350
v 57.659828 -0.630771 -171.160873
v 65.650620 -0.630771 -175.708008
v 74.475143 -0.630771 -178.072540
v 94.033867 -0.630772 -180.682312
v 89.241943 -0.630772 -176.023743
v 101.625778 -0.630772 -178.140869
v 80.127045 -0.630772 -174.742950
v 70.423241 -0.630771 -173.802139
v 62.478004 -0.630771 -170.013885
v 54.441647 -0.630771 -164.707855
v 82.684494 -0.630772 -187.583344
v 56.459824 -0.630771 -179.560867
v 64.450623 -0.630771 -184.108017
v 73.275146 -0.630771 -186.472534
v 91.233864 -0.630772 -188.482300
v 69.023239 -0.630771 -181.802139
v 78.727051 -0.630772 -182.742950
v 53.041649 -0.630771 -172.707855
v 61.078011 -0.630771 -178.013885
v 87.841949 -0.630772 -184.023743
v 97.425781 -0.630772 -185.140869
v 81.084503 -0.630772 -195.783356
v 57.259830 -0.630771 -186.560883
v 63.450623 -0.630771 -192.108002
v 72.075150 -0.630771 -195.272552
v 88.833862 -0.630772 -193.882309
v 67.823242 -0.630771 -190.202133
v 77.527054 -0.630772 -191.542953
v 53.641647 -0.630771 -180.107849
v 60.078007 -0.630771 -186.013885
v 86.241959 -0.630772 -191.823761
v 93.825775 -0.630772 -190.540863
v 81.884506 -0.630772 -191.683350
v 63.950626 -0.630771 -188.108017
v 90.033867 -0.630772 -191.182312
v 56.859829 -0.630771 -183.060883
v 72.675140 -0.630771 -190.872528
v 83.284500 -0.630772 -183.383362
v 65.050629 -0.630771 -179.908005
v 92.633865 -0.630772 -184.582306
v 57.059826 -0.630771 -175.360870
v 73.875145 -0.630771 -182.272537
v 58.459827 -0.630771 -167.360870
v 75.275146 -0.630771 -174.272537
v 66.450623 -0.630771 -171.908005
v 84.684494 -0.630772 -175.383347
v 95.433861 -0.630772 -177.082306
v 97.433853 -0.630772 -170.182312
v 98.633858 -0.630772 -163.282303
v 99.296356 -0.630772 -156.569794
v 76.475143 -0.630771 -167.072540
v 77.875137 -0.630771 -160.272537
v 79.550140 -0.630771 -153.322540
v 62.859821 -0.630771 -146.160873
v 70.850616 -0.630771 -150.708008
v 59.659828 -0.630771 -160.160873
v 67.650620 -0.630771 -164.708008
v 61.059822 -0.630771 -153.360870
v 69.050621 -0.630771 -157.908005
v 85.884499 -0.630772 -168.183350
v 87.284492 -0.630772 -161.383347
v 88.771996 -0.630772 -154.933350
vt 0.375000 0.812500
vt 0.375000 0.812500
vt 0.333333 0.791667
vt 0.333333 0.791667
vt 0.375000 0.812500
vt 0.375000 0.812500
vt 0.333333 0.791667
vt 0.333333 0.791667
vt 0.375000 0.812500
vt 0.375000 0.812500
vt 0.333333 0.791667
vt 0.333333 0.791667
vt 0.000000 0.000000
vt 0.000000 0.000000
vt 0.000000 0.000000
vt 0.000000 0.000000
vt 0.187500 0.625000
vt 0.187500 0.625000
vt 0.166667 0.583333
vt 0.166667 0.583333
vt 0.000000 0.000000
vt 0.000000 0.000000
vt 0.000000 0.000000
vt 0.000000 0.000000
vt 0.187500 0.625000
vt 0.187500 0.625000
vt 0.166667 0.583333
vt 0.166667 0.583333
vt 0.000000 0.000000
vt 0.000000 0.000000
vt 0.000000 0.000000
vt 0.000000 0.000000
vt 0.000000 0.000000
vt 0.000000 0.000000
vt 0.000000 0.000000
vt 0.166667 0.395833
vt 0.000000 0.000000
vt 0.000000 0.000000
vt 0.166667 0.395833
vt 0.166667 0.395833
vt 0.000000 0.000000
vt 0.166667 0.395833
vt 0.166667 0.395833
vt 0.166667 0.395833
vt 0.208333 0.416667
vt 0.416667 0.833333
vt 0.416667 0.833333
vt 0.208333 0.416667
vt 0.208333 0.416667
vt 0.208333 0.416667
vt 0.000000 0.000000
vt 0.000000 0.000000
vt 0.208333 0.416667
vt 0.416667 0.833333
vt 0.416667 0.833333
vt 0.208333 0.416667
vt 0.208333 0.416667
vt 0.208333 0.416667
vt 0.416667 0.833333
vt 0.416667 0.833333
vt 0.375000 0.812500
vt 0.375000 0.812500
vt 0.333333 0.791667
vt 0.333333 0.791667
vt 0.000000 0.000000
vt 0.000000 0.000000
vt 0.000000 0.000000
vt 0.000000 0.000000
vt 0.166667 0.395833
vt 0.166667 0.395833
vt 0.187500 0.625000
vt 0.187500 0.625000
vt 0.166667 0.583333
vt 0.166667 0.583333
vt 0.166667 0.395833
vt 0.166667 0.395833
vt 0.000000 0.000000
vt 0.000000 0.000000
vt 0.187500 0.625000
vt 0.187500 0.625000
vt 0.166667 0.583333
vt 0.166667 0.583333
vt 0.208333 0.416667
vt 0.208333 0.416667
vt 0.416667 0.833333
vt 0.416667 0.833333
vt 0.000000 0.000000
vt 0.000000 0.000000
vt 0.375000 0.812500
vt 0.375000 0.812500
vt 0.333333 0.791667
vt 0.333333 0.791667
vt 0.166667 0.395833
vt 0.166667 0.395833
vt 0.000000 0.000000
vt 0.000000 0.000000
vt 0.187500 0.625000
vt 0.187500 0.625000
vt 0.166667 0.583333
vt 0.166667 0.583333
vt 0.208333 0.416667
vt 0.208333 0.416667
vt 0.416667 0.833333
vt 0.416667 0.833333
vt 0.000000 0.000000
vt 0.000000 0.000000
vt 0.375000 0.812500
vt 0.375000 0.812500
vt 0.333333 0.791667
vt 0.333333 0.791667
vt 0.000000 0.000000
vt 0.000000 0.000000
vt 0.000000 0.000000
vt 0.000000 0.000000
vt 0.000000 0.000000
vt 0.000000 0.000000
vt 0.208333 0.666667
vt 0.208333 0.666667
vt 0.208333 0.666667
vt 0.000000 0.000000
vt 0.000000 0.000000
vt 0.000000 0.000000
vt 0.000000 0.000000
vt 0.208333 0.666667
vt 0.208333 0.666667
vt 0.208333 0.666667
vt 0.208333 0.666667
vt 0.166667 0.395833
vt 0.000000 0.000000
vt 0.000000 0.000000
vt 0.416667 0.833333
vt 0.208333 0.416667
vt 0.000000 0.000000
vt 0.000000 0.000000
vt 0.000000 0.000000
vt 0.000000 0.000000
vt 0.416667 0.833333
vt 0.416667 0.833333
vt 0.000000 0.000000
vt 0.000000 0.000000
vt 0.333333 0.791667
vt 0.000000 0.000000
vt 0.000000 0.000000
vt 0.000000 0.000000
vt 0.000000 0.000000
vt 0.000000 0.000000
vt 0.208333 0.666667
vt 0.208333 0.666667
vt 0.000000 0.000000
vt 0.000000 0.000000
vt 0.187500 0.625000
vt 0.166667 0.583333
vt 0.208333 0.666667
vt 0.208333 0.666667
vt 0.000000 0.000000
vt 0.375000 0.812500
vn 0.0000 1.0000 -0.0000
usemtl VertexColour
s off
f 143/1/1 45/2/1 8/3/1 46/4/1
f 142/5/1 48/6/1 11/7/1 49/8/1
f 141/9/1 51/10/1 13/11/1 52/12/1
f 140/13/1 58/14/1 18/15/1 57/16/1
f 139/17/1 56/18/1 16/19/1 60/20/1
f 138/21/1 63/22/1 21/23/1 62/24/1
f 137/25/1 61/26/1 19/27/1 65/28/1
f 136/29/1 67/30/1 4/31/1 69/32/1
f 135/33/1 67/30/1 14/34/1 54/35/1
f 134/36/1 68/37/1 3/38/1 72/39/1
f 133/40/1 58/14/1 15/41/1 70/42/1
f 132/43/1 63/22/1 18/15/1 71/44/1
f 131/45/1 47/46/1 5/47/1 76/48/1
f 130/49/1 75/50/1 22/51/1 77/52/1
f 129/53/1 53/54/1 10/55/1 80/56/1
f 128/57/1 85/58/1 25/59/1 86/60/1
f 127/61/1 81/62/1 26/63/1 88/64/1
f 126/65/1 89/66/1 29/67/1 83/68/1
f 125/69/1 84/70/1 29/67/1 89/66/1
f 124/71/1 82/72/1 27/73/1 91/74/1
f 123/75/1 95/76/1 35/77/1 97/78/1
f 122/79/1 93/80/1 33/81/1 99/82/1
f 121/83/1 96/84/1 31/85/1 101/86/1
f 120/87/1 97/78/1 35/77/1 94/88/1
f 119/89/1 92/90/1 32/91/1 98/92/1
f 118/93/1 106/94/1 41/95/1 108/96/1
f 117/97/1 104/98/1 39/99/1 110/100/1
f 116/101/1 107/102/1 37/103/1 112/104/1
f 115/105/1 108/96/1 41/95/1 105/106/1
f 114/107/1 103/108/1 38/109/1 109/110/1
f 92/90/1 114/107/1 109/110/1 32/91/1
f 31/85/1 112/104/1 114/107/1 92/90/1
f 112/104/1 37/103/1 103/108/1 114/107/1
f 111/111/1 115/105/1 105/106/1 40/112/1
f 34/113/1 94/88/1 115/105/1 111/111/1
f 94/88/1 35/77/1 108/96/1 115/105/1
f 96/84/1 116/101/1 112/104/1 31/85/1
f 36/114/1 113/115/1 116/101/1 96/84/1
f 113/115/1 42/116/1 107/102/1 116/101/1
f 93/80/1 117/97/1 110/100/1 33/81/1
f 34/117/1 111/118/1 117/97/1 93/80/1
f 111/118/1 40/119/1 104/98/1 117/97/1
f 95/76/1 118/93/1 108/96/1 35/77/1
f 32/91/1 109/110/1 118/93/1 95/76/1
f 109/110/1 38/109/1 106/94/1 118/93/1
f 81/62/1 119/89/1 98/92/1 26/63/1
f 25/59/1 101/86/1 119/89/1 81/62/1
f 101/86/1 31/85/1 92/90/1 119/89/1
f 100/120/1 120/87/1 94/88/1 34/113/1
f 28/121/1 83/68/1 120/87/1 100/120/1
f 83/68/1 29/67/1 97/78/1 120/87/1
f 85/58/1 121/83/1 101/86/1 25/59/1
f 30/122/1 102/123/1 121/83/1 85/58/1
f 102/123/1 36/114/1 96/84/1 121/83/1
f 82/72/1 122/79/1 99/82/1 27/73/1
f 28/124/1 100/125/1 122/79/1 82/72/1
f 100/125/1 34/117/1 93/80/1 122/79/1
f 84/70/1 123/75/1 97/78/1 29/67/1
f 26/63/1 98/92/1 123/75/1 84/70/1
f 98/92/1 32/91/1 95/76/1 123/75/1
f 61/26/1 124/71/1 91/74/1 19/27/1
f 20/126/1 90/127/1 124/71/1 61/26/1
f 90/127/1 28/124/1 82/72/1 124/71/1
f 73/128/1 125/69/1 89/66/1 21/23/1
f 13/11/1 88/64/1 125/69/1 73/128/1
f 88/64/1 26/63/1 84/70/1 125/69/1
f 90/129/1 126/65/1 83/68/1 28/121/1
f 20/130/1 62/24/1 126/65/1 90/129/1
f 62/24/1 21/23/1 89/66/1 126/65/1
f 51/10/1 127/61/1 88/64/1 13/11/1
f 12/131/1 86/60/1 127/61/1 51/10/1
f 86/60/1 25/59/1 81/62/1 127/61/1
f 79/132/1 128/57/1 86/60/1 12/131/1
f 24/133/1 87/134/1 128/57/1 79/132/1
f 87/134/1 30/122/1 85/58/1 128/57/1
f 78/135/1 129/53/1 80/56/1 23/136/1
f 24/133/1 79/132/1 129/53/1 78/135/1
f 79/132/1 12/131/1 53/54/1 129/53/1
f 80/56/1 130/49/1 77/52/1 23/136/1
f 10/55/1 50/137/1 130/49/1 80/56/1
f 50/137/1 7/138/1 75/50/1 130/49/1
f 74/139/1 131/45/1 76/48/1 1/140/1
f 22/51/1 75/50/1 131/45/1 74/139/1
f 75/50/1 7/138/1 47/46/1 131/45/1
f 52/12/1 132/43/1 71/44/1 11/7/1
f 13/11/1 73/128/1 132/43/1 52/12/1
f 73/128/1 21/23/1 63/22/1 132/43/1
f 49/8/1 133/40/1 70/42/1 8/3/1
f 11/7/1 71/44/1 133/40/1 49/8/1
f 71/44/1 18/15/1 58/14/1 133/40/1
f 46/4/1 134/36/1 72/39/1 6/141/1
f 8/3/1 70/42/1 134/36/1 46/4/1
f 70/42/1 15/41/1 68/37/1 134/36/1
f 66/142/1 135/33/1 54/35/1 9/143/1
f 2/144/1 43/145/1 135/33/1 66/142/1
f 43/145/1 4/31/1 67/30/1 135/33/1
f 68/37/1 136/29/1 69/32/1 3/38/1
f 15/41/1 55/146/1 136/29/1 68/37/1
f 55/146/1 14/34/1 67/30/1 136/29/1
f 56/18/1 137/25/1 65/28/1 16/19/1
f 17/147/1 64/148/1 137/25/1 56/18/1
f 64/148/1 20/126/1 61/26/1 137/25/1
f 64/149/1 138/21/1 62/24/1 20/130/1
f 17/150/1 57/16/1 138/21/1 64/149/1
f 57/16/1 18/15/1 63/22/1 138/21/1
f 54/151/1 139/17/1 60/20/1 9/152/1
f 14/153/1 59/154/1 139/17/1 54/151/1
f 59/154/1 17/147/1 56/18/1 139/17/1
f 59/155/1 140/13/1 57/16/1 17/150/1
f 14/34/1 55/146/1 140/13/1 59/155/1
f 55/146/1 15/41/1 58/14/1 140/13/1
f 48/6/1 141/9/1 52/12/1 11/7/1
f 10/55/1 53/54/1 141/9/1 48/6/1
f 53/54/1 12/131/1 51/10/1 141/9/1
f 45/2/1 142/5/1 49/8/1 8/3/1
f 7/138/1 50/137/1 142/5/1 45/2/1
f 50/137/1 10/55/1 48/6/1 142/5/1
f 44/156/1 143/1/1 46/4/1 6/141/1
f 5/47/1 47/46/1 143/1/1 44/156/1
f 47/46/1 7/138/1 45/2/1 143/1/1
