# Blender v2.93.3 OBJ File: 'vertex_colour.blend'
# www.blender.org
mtllib nav_02.mtl
o NAV_02_Grid.016
v 88.028580 -0.629059 -137.531723
v 141.926086 -0.629059 -95.224930
v 133.534302 -0.629059 -100.069931
v 125.142509 -0.629059 -104.914932
v 116.750732 -0.629059 -109.759933
v 108.358948 -0.629059 -114.604935
v 91.575371 -0.629059 -124.294937
v 99.967155 -0.629059 -119.449936
v 137.081085 -0.629059 -86.833145
v 128.689301 -0.629059 -91.678146
v 120.297508 -0.629059 -96.523148
v 111.905731 -0.629059 -101.368149
v 95.122154 -0.629059 -111.058151
v 103.513947 -0.629059 -106.213150
v 101.091438 -0.629059 -102.017250
v 128.040192 -0.629059 -80.863861
v 123.844299 -0.629059 -83.286362
v 107.060722 -0.629059 -92.976364
v 117.220459 -0.344188 -87.931305
v 96.420372 -0.629059 -132.686722
v 104.812149 -0.629059 -127.841721
v 113.203941 -0.629059 -122.996719
v 121.595726 -0.629059 -118.151718
v 129.987503 -0.629059 -113.306717
v 140.147247 -0.527836 -108.261658
v 144.901031 -0.567622 -104.835732
v 100.705353 -0.629059 -143.168533
v 109.657158 -0.629059 -136.233505
v 118.048950 -0.629059 -131.388504
v 126.440735 -0.629059 -126.543510
v 134.832520 -0.629059 -121.698509
v 143.556366 -0.567622 -116.885078
v 113.737152 -0.629059 -143.300262
v 122.893944 -0.629059 -139.780289
v 131.285736 -0.629059 -134.935287
v 137.871674 -0.567622 -127.924393
v 90.451088 -0.629059 -141.727631
v 110.781448 -0.629059 -118.800827
v 100.616257 -0.629059 -130.264221
v 102.389656 -0.629059 -123.645828
v 92.224480 -0.629059 -135.109222
v 93.997871 -0.629059 -128.490829
v 137.730194 -0.629059 -97.647430
v 139.503586 -0.629059 -91.029037
v 129.338409 -0.629059 -102.492432
v 131.111801 -0.629059 -95.874039
v 120.946625 -0.629059 -107.337433
v 122.720009 -0.629059 -100.719040
v 112.554840 -0.629059 -112.182434
v 114.328232 -0.629059 -105.564041
v 104.163048 -0.629059 -117.027435
v 105.936447 -0.629059 -110.409042
v 95.771263 -0.629059 -121.872437
v 97.544655 -0.629059 -115.254044
v 132.885193 -0.629059 -89.255646
v 124.493401 -0.629059 -94.100647
v 126.266800 -0.629059 -87.482254
v 116.101624 -0.629059 -98.945648
v 118.758980 -0.486623 -92.227226
v 107.709839 -0.629059 -103.790649
v 109.483223 -0.629059 -97.172256
v 99.318047 -0.629059 -108.635651
v 102.302689 -0.629059 -104.115196
v 125.942245 -0.629059 -82.075111
v 120.532379 -0.486623 -85.608826
v 112.140594 -0.486623 -90.453835
v 109.008041 -0.629059 -125.419220
v 119.173233 -0.629059 -113.955826
v 117.399834 -0.629059 -120.574219
v 127.565010 -0.629059 -109.110825
v 125.791618 -0.629059 -115.729218
v 136.840775 -0.578448 -104.165802
v 135.067383 -0.578448 -110.784187
v 143.413559 -0.598341 -100.030334
v 142.524139 -0.547729 -106.548691
v 98.562859 -0.629059 -137.927628
v 107.234657 -0.629059 -132.037613
v 105.181259 -0.629059 -139.701019
v 115.626450 -0.629059 -127.192612
v 113.853050 -0.629059 -133.811005
v 124.018234 -0.629059 -122.347610
v 122.244835 -0.629059 -128.966003
v 132.410004 -0.629059 -117.502617
v 130.636627 -0.629059 -124.121010
v 141.851807 -0.547729 -112.573364
v 139.194443 -0.598341 -119.291794
v 111.697159 -0.629059 -139.766891
v 120.471443 -0.629059 -135.584396
v 118.315552 -0.629059 -141.540283
v 128.863220 -0.629059 -130.739395
v 127.089836 -0.629059 -137.357788
v 136.352097 -0.598341 -124.811447
v 134.578705 -0.598341 -131.429840
v 89.239838 -0.629059 -139.629669
v 132.560638 -0.629059 -83.848503
v 140.714020 -0.567622 -122.404739
v 107.221252 -0.629059 -143.234406
v 95.578217 -0.629059 -142.448074
v 144.228699 -0.567622 -110.860405
v 98.106796 -0.629059 -106.537697
v 93.348763 -0.629059 -117.676544
v 89.801979 -0.629059 -130.913330
v 104.076080 -0.629059 -97.496811
v 105.892960 -0.629059 -100.643730
v 132.607666 -0.613700 -127.775421
v 124.667336 -0.629059 -133.161896
v 116.084305 -0.629059 -137.675644
v 137.130905 -0.588394 -115.037994
v 128.214127 -0.629059 -119.925110
v 119.822334 -0.629059 -124.770111
v 111.430550 -0.629059 -129.615112
v 102.898758 -0.629059 -134.982620
v 93.901352 -0.629059 -138.778641
v 140.127167 -0.588394 -102.098068
v 132.202881 -0.603753 -106.638306
v 114.121101 -0.557841 -94.699738
v 122.512894 -0.557841 -89.854736
v 129.413712 -0.629059 -85.665375
v 101.740547 -0.629059 -112.831543
v 110.132339 -0.629059 -107.986542
v 118.524124 -0.629059 -103.141541
v 126.915901 -0.629059 -98.296539
v 135.307693 -0.629059 -93.451538
v 98.193764 -0.629059 -126.068329
v 106.585548 -0.629059 -121.223328
v 114.977333 -0.629059 -116.378326
v 123.369125 -0.629059 -111.533325
vt 0.708333 0.708333
vt 0.750000 0.708333
vt 0.750000 0.750000
vt 0.708333 0.750000
vt 0.625000 0.708333
vt 0.666667 0.708333
vt 0.666667 0.750000
vt 0.625000 0.750000
vt 0.541667 0.708333
vt 0.583333 0.708333
vt 0.583333 0.750000
vt 0.541667 0.750000
vt 0.458333 0.708333
vt 0.500000 0.708333
vt 0.500000 0.750000
vt 0.458333 0.750000
vt 0.875000 0.625000
vt 0.916667 0.625000
vt 0.916667 0.666667
vt 0.875000 0.666667
vt 0.791667 0.625000
vt 0.833333 0.625000
vt 0.833333 0.666667
vt 0.791667 0.666667
vt 0.708333 0.625000
vt 0.750000 0.625000
vt 0.750000 0.666667
vt 0.708333 0.666667
vt 0.625000 0.625000
vt 0.666667 0.625000
vt 0.666667 0.666667
vt 0.625000 0.666667
vt 0.541667 0.625000
vt 0.583333 0.625000
vt 0.583333 0.666667
vt 0.541667 0.666667
vt 0.864583 0.541667
vt 0.895833 0.541667
vt 0.916667 0.583333
vt 0.875000 0.583333
vt 0.791667 0.541667
vt 0.833333 0.541667
vt 0.833333 0.583333
vt 0.791667 0.583333
vt 0.708333 0.541667
vt 0.750000 0.541667
vt 0.750000 0.583333
vt 0.708333 0.583333
vt 0.791667 0.708333
vt 0.833333 0.708333
vt 0.833333 0.750000
vt 0.791667 0.750000
vt 0.875000 0.708333
vt 0.916667 0.708333
vt 0.916667 0.750000
vt 0.875000 0.750000
vt 0.375000 0.781250
vt 0.416667 0.791667
vt 0.416667 0.833333
vt 0.375000 0.812500
vt 0.458333 0.791667
vt 0.500000 0.791667
vt 0.500000 0.833333
vt 0.458333 0.833333
vt 0.541667 0.791667
vt 0.583333 0.791667
vt 0.583333 0.833333
vt 0.541667 0.833333
vt 0.625000 0.791667
vt 0.666667 0.791667
vt 0.666667 0.833333
vt 0.625000 0.833333
vt 0.708333 0.791667
vt 0.750000 0.791667
vt 0.750000 0.833333
vt 0.708333 0.833333
vt 0.791667 0.791667
vt 0.833333 0.791667
vt 0.833333 0.833333
vt 0.791667 0.833333
vt 0.541667 0.875000
vt 0.583333 0.875000
vt 0.583333 0.916667
vt 0.541667 0.916667
vt 0.625000 0.875000
vt 0.666667 0.875000
vt 0.666667 0.916667
vt 0.625000 0.916667
vt 0.708333 0.875000
vt 0.750000 0.875000
vt 0.750000 0.916667
vt 0.708333 0.916667
vt 0.500000 0.916667
vt 0.458333 0.875000
vt 0.500000 0.875000
vt 0.500000 0.583333
vt 0.541667 0.562500
vt 0.541667 0.583333
vt 0.416667 0.666667
vt 0.458333 0.625000
vt 0.458333 0.666667
vt 0.333333 0.750000
vt 0.375000 0.708333
vt 0.375000 0.750000
vt 0.625000 0.552083
vt 0.666667 0.541667
vt 0.666667 0.583333
vt 0.625000 0.583333
vt 0.583333 0.562500
vt 0.583333 0.583333
vt 0.583333 0.541667
vt 0.625000 0.520833
vt 0.666667 0.500000
vt 0.416667 0.708333
vt 0.416667 0.750000
vt 0.500000 0.625000
vt 0.500000 0.666667
vt 0.791667 0.875000
vt 0.875000 0.791667
vt 0.333333 0.770833
vt 0.333333 0.791667
vt 0.708333 0.500000
vt 0.750000 0.500000
vt 0.791667 0.500000
vt 0.833333 0.500000
vt 0.854167 0.500000
vt 0.875000 0.500000
vn 0.0000 1.0000 0.0000
vn 0.0107 0.9999 -0.0029
vn 0.0047 0.9997 -0.0231
vn -0.0091 1.0000 0.0024
vn 0.0001 1.0000 0.0078
vn -0.0048 1.0000 -0.0056
vn 0.0091 1.0000 -0.0010
vn -0.0087 1.0000 0.0023
vn -0.0098 0.9999 0.0051
vn -0.0055 1.0000 -0.0011
vn -0.0024 1.0000 0.0006
vn -0.0049 1.0000 0.0043
vn -0.0056 1.0000 -0.0042
vn -0.0069 1.0000 -0.0048
vn -0.0062 1.0000 -0.0062
vn -0.0013 1.0000 0.0098
vn -0.0036 1.0000 0.0083
vn -0.0026 1.0000 0.0066
vn -0.0071 1.0000 -0.0014
vn -0.0034 1.0000 0.0009
vn -0.0056 1.0000 0.0050
vn -0.0026 0.9999 -0.0098
vn -0.0139 0.9998 -0.0157
vn -0.0075 0.9996 -0.0281
vn 0.0193 0.9997 -0.0171
vn 0.0368 0.9993 -0.0098
vn 0.0266 0.9996 0.0054
usemtl VertexColour
s off
f 127/1/1 70/2/1 24/3/1 71/4/1
f 126/5/1 68/6/1 23/7/1 69/8/1
f 125/9/1 38/10/1 22/11/1 67/12/1
f 124/13/1 40/14/1 21/15/1 39/16/1
f 123/17/1 44/18/1 2/19/1 43/20/1
f 122/21/1 46/22/1 3/23/1 45/24/1
f 121/25/1 48/26/1 4/27/1 47/28/1
f 120/29/1 50/30/1 5/31/1 49/32/1
f 119/33/1 52/34/1 6/35/1 51/36/1
f 118/37/1 95/38/1 9/39/1 55/40/1
f 117/41/2 57/42/2 10/43/2 56/44/2
f 116/45/3 59/46/3 11/47/3 58/48/3
f 115/49/4 72/50/4 25/51/4 73/52/4
f 114/53/5 74/54/5 26/55/5 75/56/5
f 113/57/1 76/58/1 27/59/1 98/60/1
f 112/61/1 77/62/1 28/63/1 78/64/1
f 111/65/1 79/66/1 29/67/1 80/68/1
f 110/69/1 81/70/1 30/71/1 82/72/1
f 109/73/1 83/74/1 31/75/1 84/76/1
f 108/77/6 85/78/6 32/79/6 86/80/6
f 25/51/7 75/56/7 85/78/7
f 107/81/1 88/82/1 34/83/1 89/84/1
f 106/85/1 90/86/1 35/87/1 91/88/1
f 105/89/8 92/90/8 36/91/8 93/92/8
f 31/75/9 86/80/9 92/90/9
f 33/93/1 97/94/1 87/95/1
f 13/96/1 100/97/1 62/98/1
f 7/99/1 101/100/1 53/101/1
f 1/102/1 102/103/1 41/104/1
f 104/105/1 61/106/1 12/107/1 60/108/1
f 63/109/1 104/105/1 60/108/1 14/110/1
f 15/111/1 103/112/1 104/105/1 63/109/1
f 103/112/1 18/113/1 61/106/1 104/105/1
f 41/104/1 42/114/1 20/115/1
f 41/104/1 102/103/1 42/114/1
f 102/103/1 7/99/1 42/114/1
f 53/101/1 54/116/1 8/117/1
f 53/101/1 101/100/1 54/116/1
f 101/100/1 13/96/1 54/116/1
f 62/98/1 63/109/1 14/110/1
f 62/98/1 100/97/1 63/109/1
f 100/97/1 15/111/1 63/109/1
f 87/95/1 78/64/1 28/63/1
f 87/95/1 97/94/1 78/64/1
f 97/94/1 27/59/1 78/64/1
f 92/90/9 96/118/9 36/91/9
f 92/90/9 86/80/9 96/118/9
f 86/80/9 32/79/9 96/118/9
f 90/86/10 105/89/10 93/92/10 35/87/10
f 30/71/11 84/76/11 105/89/11 90/86/11
f 84/76/12 31/75/12 92/90/12 105/89/12
f 88/82/1 106/85/1 91/88/1 34/83/1
f 29/67/1 82/72/1 106/85/1 88/82/1
f 82/72/1 30/71/1 90/86/1 106/85/1
f 87/95/1 107/81/1 89/84/1 33/93/1
f 28/63/1 80/68/1 107/81/1 87/95/1
f 80/68/1 29/67/1 88/82/1 107/81/1
f 85/78/7 99/119/7 32/79/7
f 85/78/7 75/56/7 99/119/7
f 75/56/7 26/55/7 99/119/7
f 83/74/13 108/77/13 86/80/13 31/75/13
f 24/3/14 73/52/14 108/77/14 83/74/14
f 73/52/15 25/51/15 85/78/15 108/77/15
f 81/70/1 109/73/1 84/76/1 30/71/1
f 23/7/1 71/4/1 109/73/1 81/70/1
f 71/4/1 24/3/1 83/74/1 109/73/1
f 79/66/1 110/69/1 82/72/1 29/67/1
f 22/11/1 69/8/1 110/69/1 79/66/1
f 69/8/1 23/7/1 81/70/1 110/69/1
f 77/62/1 111/65/1 80/68/1 28/63/1
f 21/15/1 67/12/1 111/65/1 77/62/1
f 67/12/1 22/11/1 79/66/1 111/65/1
f 76/58/1 112/61/1 78/64/1 27/59/1
f 20/115/1 39/16/1 112/61/1 76/58/1
f 39/16/1 21/15/1 77/62/1 112/61/1
f 94/120/1 113/57/1 98/60/1 37/121/1
f 1/102/1 41/104/1 113/57/1 94/120/1
f 41/104/1 20/115/1 76/58/1 113/57/1
f 72/50/16 114/53/16 75/56/16 25/51/16
f 3/23/17 43/20/17 114/53/17 72/50/17
f 43/20/18 2/19/18 74/54/18 114/53/18
f 70/2/19 115/49/19 73/52/19 24/3/19
f 4/27/20 45/24/20 115/49/20 70/2/20
f 45/24/21 3/23/21 72/50/21 115/49/21
f 61/106/22 116/45/22 58/48/22 12/107/22
f 18/113/23 66/122/23 116/45/23 61/106/23
f 66/122/24 19/123/24 59/46/24 116/45/24
f 59/46/25 117/41/25 56/44/25 11/47/25
f 19/123/26 65/124/26 117/41/26 59/46/26
f 65/124/27 17/125/27 57/42/27 117/41/27
f 57/42/1 118/37/1 55/40/1 10/43/1
f 17/125/1 64/126/1 118/37/1 57/42/1
f 64/126/1 16/127/1 95/38/1 118/37/1
f 54/116/1 119/33/1 51/36/1 8/117/1
f 13/96/1 62/98/1 119/33/1 54/116/1
f 62/98/1 14/110/1 52/34/1 119/33/1
f 52/34/1 120/29/1 49/32/1 6/35/1
f 14/110/1 60/108/1 120/29/1 52/34/1
f 60/108/1 12/107/1 50/30/1 120/29/1
f 50/30/1 121/25/1 47/28/1 5/31/1
f 12/107/1 58/48/1 121/25/1 50/30/1
f 58/48/1 11/47/1 48/26/1 121/25/1
f 48/26/1 122/21/1 45/24/1 4/27/1
f 11/47/1 56/44/1 122/21/1 48/26/1
f 56/44/1 10/43/1 46/22/1 122/21/1
f 46/22/1 123/17/1 43/20/1 3/23/1
f 10/43/1 55/40/1 123/17/1 46/22/1
f 55/40/1 9/39/1 44/18/1 123/17/1
f 42/114/1 124/13/1 39/16/1 20/115/1
f 7/99/1 53/101/1 124/13/1 42/114/1
f 53/101/1 8/117/1 40/14/1 124/13/1
f 40/14/1 125/9/1 67/12/1 21/15/1
f 8/117/1 51/36/1 125/9/1 40/14/1
f 51/36/1 6/35/1 38/10/1 125/9/1
f 38/10/1 126/5/1 69/8/1 22/11/1
f 6/35/1 49/32/1 126/5/1 38/10/1
f 49/32/1 5/31/1 68/6/1 126/5/1
f 68/6/1 127/1/1 71/4/1 23/7/1
f 5/31/1 47/28/1 127/1/1 68/6/1
f 47/28/1 4/27/1 70/2/1 127/1/1
