# Blender v2.93.3 OBJ File: 'untitled.blend'
# www.blender.org
mtllib arches.mtl
o Arch_Grid.004
v 149.031891 -0.562509 -108.288376
v 143.753204 -0.562509 -126.353600
v 149.031891 5.737491 -108.288376
v 143.753204 5.737491 -126.353600
v 149.031891 11.137490 -108.288376
v 143.753204 11.137490 -126.353600
v 149.031891 16.537489 -108.288376
v 143.753204 16.537489 -126.353600
v 149.031891 21.937489 -108.288376
v 143.753204 21.937489 -126.353600
v 146.392548 27.337490 -117.320984
v 149.031891 -0.562509 -108.288376
v 143.753204 -0.562509 -126.353600
v 149.031891 5.737491 -108.288376
v 143.753204 5.737491 -126.353600
v 149.031891 11.137490 -108.288376
v 143.753204 11.137490 -126.353600
v 149.031891 16.537489 -108.288376
v 143.753204 16.537489 -126.353600
v 149.031891 21.937489 -108.288376
v 143.753204 21.937489 -126.353600
v 146.392548 31.837490 -117.320984
v 142.487350 -0.562509 -130.148010
v 142.487350 5.737491 -130.148010
v 142.487350 11.137490 -130.148010
v 142.487350 16.537489 -130.148010
v 142.487350 23.737490 -130.148010
v 150.297745 -0.562509 -104.493958
v 150.297745 5.737491 -104.493958
v 150.297745 11.137490 -104.493958
v 150.297745 16.537489 -104.493958
v 150.297745 23.737490 -104.493958
v 143.753204 -0.562509 -126.353600
v 143.753204 5.737491 -126.353600
v 149.031891 -0.562509 -108.288376
v 149.031891 5.737491 -108.288376
v 143.753204 11.137490 -126.353600
v 149.031891 11.137490 -108.288376
v 143.753204 16.537489 -126.353600
v 149.031891 16.537489 -108.288376
v 143.753204 21.937489 -126.353600
v 149.031891 21.937489 -108.288376
v 146.392548 27.337490 -117.320984
v 143.753204 -0.562509 -126.353600
v 143.753204 5.737491 -126.353600
v 149.031891 -0.562509 -108.288376
v 149.031891 5.737491 -108.288376
v 143.753204 11.137490 -126.353600
v 149.031891 11.137490 -108.288376
v 143.753204 16.537489 -126.353600
v 149.031891 16.537489 -108.288376
v 143.753204 21.937489 -126.353600
v 149.031891 21.937489 -108.288376
v 146.392548 31.837490 -117.320984
v 142.487350 23.737490 -130.148010
v 142.487350 -0.562509 -130.148010
v 142.487350 5.737491 -130.148010
v 142.487350 11.137490 -130.148010
v 142.487350 16.537489 -130.148010
v 150.297745 -0.562509 -104.493958
v 150.297745 5.737491 -104.493958
v 150.297745 11.137490 -104.493958
v 150.297745 16.537489 -104.493958
v 150.297745 23.737490 -104.493958
v 143.753204 -0.562509 -126.353600
v 143.753204 5.737491 -126.353600
v 149.031891 -0.562509 -108.288376
v 149.031891 5.737491 -108.288376
v 143.753204 11.137490 -126.353600
v 149.031891 11.137490 -108.288376
v 143.753204 16.537489 -126.353600
v 149.031891 16.537489 -108.288376
v 143.753204 21.937489 -126.353600
v 149.031891 21.937489 -108.288376
v 146.392548 27.337490 -117.320984
v 143.753204 -0.562509 -126.353600
v 143.753204 5.737491 -126.353600
v 149.031891 -0.562509 -108.288376
v 149.031891 5.737491 -108.288376
v 143.753204 11.137490 -126.353600
v 149.031891 11.137490 -108.288376
v 143.753204 16.537489 -126.353600
v 149.031891 16.537489 -108.288376
v 143.753204 21.937489 -126.353600
v 149.031891 21.937489 -108.288376
v 146.392548 31.837490 -117.320984
v 142.487350 23.737490 -130.148010
v 142.487350 -0.562509 -130.148010
v 142.487350 5.737491 -130.148010
v 142.487350 11.137490 -130.148010
v 142.487350 16.537489 -130.148010
v 150.297745 -0.562509 -104.493958
v 150.297745 5.737491 -104.493958
v 150.297745 11.137490 -104.493958
v 150.297745 16.537489 -104.493958
v 150.297745 23.737490 -104.493958
v 143.753204 -0.562509 -126.353600
v 143.753204 5.737491 -126.353600
v 149.031891 -0.562509 -108.288376
v 149.031891 5.737491 -108.288376
v 143.753204 11.137490 -126.353600
v 149.031891 11.137490 -108.288376
v 143.753204 16.537489 -126.353600
v 149.031891 16.537489 -108.288376
v 143.753204 21.937489 -126.353600
v 149.031891 21.937489 -108.288376
v 146.392548 27.337490 -117.320984
v 143.753204 -0.562509 -126.353600
v 143.753204 5.737491 -126.353600
v 149.031891 -0.562509 -108.288376
v 149.031891 5.737491 -108.288376
v 143.753204 11.137490 -126.353600
v 149.031891 11.137490 -108.288376
v 143.753204 16.537489 -126.353600
v 149.031891 16.537489 -108.288376
v 143.753204 21.937489 -126.353600
v 149.031891 21.937489 -108.288376
v 146.392548 31.837490 -117.320984
v 142.487350 23.737490 -130.148010
v 142.487350 -0.562509 -130.148010
v 142.487350 5.737491 -130.148010
v 142.487350 11.137490 -130.148010
v 142.487350 16.537489 -130.148010
v 150.297745 -0.562509 -104.493958
v 150.297745 5.737491 -104.493958
v 150.297745 11.137490 -104.493958
v 150.297745 16.537489 -104.493958
v 150.297745 23.737490 -104.493958
v 139.931137 -0.562509 -125.173851
v 139.931137 5.737491 -125.173851
v 145.209824 -0.562509 -107.108627
v 145.209824 5.737491 -107.108627
v 139.931137 11.137490 -125.173851
v 145.209824 11.137490 -107.108627
v 139.931137 16.537489 -125.173851
v 145.209824 16.537489 -107.108627
v 139.931137 21.937489 -125.173851
v 145.209824 21.937489 -107.108627
v 142.570480 27.337490 -116.141243
v 139.931137 -0.562509 -125.173851
v 139.931137 5.737491 -125.173851
v 145.209824 -0.562509 -107.108627
v 145.209824 5.737491 -107.108627
v 139.931137 11.137490 -125.173851
v 145.209824 11.137490 -107.108627
v 139.931137 16.537489 -125.173851
v 145.209824 16.537489 -107.108627
v 139.931137 21.937489 -125.173851
v 145.209824 21.937489 -107.108627
v 142.570480 31.837490 -116.141243
v 138.665283 23.737490 -128.968262
v 138.665283 -0.562509 -128.968262
v 138.665283 5.737491 -128.968262
v 138.665283 11.137490 -128.968262
v 138.665283 16.537489 -128.968262
v 146.475677 -0.562509 -103.314209
v 146.475677 5.737491 -103.314209
v 146.475677 11.137490 -103.314209
v 146.475677 16.537489 -103.314209
v 146.475677 23.737490 -103.314209
vt 0.000000 0.000000
vt 0.000000 0.000000
vt 0.000000 0.000000
vt 0.000000 0.000000
vt 0.000000 0.000000
vt 0.000000 0.000000
vt 0.000000 0.000000
vt 0.000000 0.000000
vt 0.000000 0.000000
vt 0.000000 0.000000
vt 0.000000 0.000000
vt 0.000000 0.000000
vt 0.000000 0.000000
vt 0.000000 0.000000
vt 0.000000 0.000000
vt 0.000000 0.000000
vt 0.000000 0.000000
vt 0.000000 0.000000
vt 0.000000 0.000000
vt 0.000000 0.000000
vt 0.000000 0.000000
vt 0.000000 0.000000
vt 0.000000 0.000000
vt 0.000000 0.000000
vt 0.000000 0.000000
vt 0.000000 0.000000
vt 0.000000 0.000000
vt 0.000000 0.000000
vt 0.000000 0.000000
vt 0.000000 0.000000
vt 0.000000 0.000000
vt 0.000000 0.000000
vt 0.000000 0.000000
vt 0.000000 0.000000
vt 0.000000 0.000000
vt 0.000000 0.000000
vt 0.000000 0.000000
vt 0.000000 0.000000
vt 0.000000 0.000000
vt 0.000000 0.000000
vt 0.000000 0.000000
vt 0.000000 0.000000
vt 0.000000 0.000000
vt 0.000000 0.000000
vt 0.000000 0.000000
vt 0.000000 0.000000
vt 0.000000 0.000000
vt 0.000000 0.000000
vt 0.000000 0.000000
vt 0.000000 0.000000
vt 0.000000 0.000000
vt 0.000000 0.000000
vt 0.000000 0.000000
vt 0.000000 0.000000
vt 0.000000 0.000000
vt 0.000000 0.000000
vt 0.000000 0.000000
vt 0.000000 0.000000
vt 0.000000 0.000000
vt 0.000000 0.000000
vt 0.000000 0.000000
vt 0.000000 0.000000
vt 0.000000 0.000000
vt 0.000000 0.000000
vt 0.000000 0.000000
vt 0.000000 0.000000
vt 0.000000 0.000000
vt 0.000000 0.000000
vt 0.000000 0.000000
vt 0.000000 0.000000
vt 0.000000 0.000000
vt 0.000000 0.000000
vt 0.000000 0.000000
vt 0.000000 0.000000
vt 0.000000 0.000000
vt 0.000000 0.000000
vt 0.000000 0.000000
vt 0.000000 0.000000
vt 0.000000 0.000000
vt 0.000000 0.000000
vt 0.000000 0.000000
vt 0.000000 0.000000
vt 0.000000 0.000000
vt 0.000000 0.000000
vt 0.000000 0.000000
vt 0.000000 0.000000
vt 0.000000 0.000000
vt 0.000000 0.000000
vt 0.000000 0.000000
vt 0.000000 0.000000
vt 0.000000 0.000000
vt 0.000000 0.000000
vt 0.000000 0.000000
vt 0.000000 0.000000
vt 0.000000 0.000000
vt 0.000000 0.000000
vt 0.000000 0.000000
vt 0.000000 0.000000
vt 0.000000 0.000000
vt 0.000000 0.000000
vt 0.000000 0.000000
vt 0.000000 0.000000
vt 0.000000 0.000000
vt 0.000000 0.000000
vt 0.000000 0.000000
vt 0.000000 0.000000
vt 0.000000 0.000000
vt 0.000000 0.000000
vt 0.000000 0.000000
vt 0.000000 0.000000
vt 0.000000 0.000000
vt 0.000000 0.000000
vt 0.000000 0.000000
vt 0.000000 0.000000
vt 0.000000 0.000000
vt 0.000000 0.000000
vt 0.000000 0.000000
vt 0.000000 0.000000
vt 0.000000 0.000000
vt 0.000000 0.000000
vt 0.000000 0.000000
vt 0.000000 0.000000
vt 0.000000 0.000000
vt 0.000000 0.000000
vt 0.000000 0.000000
vt 0.000000 0.000000
vt 0.000000 0.000000
vt 0.000000 0.000000
vt 0.000000 0.000000
vt 0.000000 0.000000
vt 0.000000 0.000000
vt 0.000000 0.000000
vt 0.000000 0.000000
vt 0.000000 0.000000
vt 0.000000 0.000000
vt 0.000000 0.000000
vt 0.000000 0.000000
vt 0.000000 0.000000
vt 0.000000 0.000000
vt 0.000000 0.000000
vt 0.000000 0.000000
vt 0.000000 0.000000
vt 0.000000 0.000000
vt 0.000000 0.000000
vt 0.000000 0.000000
vt 0.000000 0.000000
vt 0.000000 0.000000
vt 0.000000 0.000000
vt 0.000000 0.000000
vt 0.000000 0.000000
vt 0.000000 0.000000
vt 0.000000 0.000000
vt 0.000000 0.000000
vt 0.000000 0.000000
vt 0.000000 0.000000
vt 0.000000 0.000000
vt 0.000000 0.000000
vt 0.000000 0.000000
vt 0.000000 0.000000
vt 0.000000 0.000000
vn 0.9486 0.0000 -0.3165
vn 0.9554 0.0144 -0.2949
vn 0.9554 -0.0144 -0.2949
vn 0.0000 0.0000 1.0000
vn 0.2949 0.0000 0.9555
vn 0.1525 0.8559 0.4941
vn -0.2949 0.0000 -0.9555
vn 0.1468 -0.8673 0.4756
vn 0.0000 -1.0000 0.0000
vn -0.9486 0.0000 0.3165
vn -0.9554 -0.0144 0.2949
vn -0.9554 0.0144 0.2949
vn -0.1468 -0.8673 -0.4756
vn -0.1525 0.8559 -0.4941
vn -0.1468 0.8673 -0.4756
vn 0.1468 0.8673 0.4756
usemtl None
s off
f 19/1/1 26/2/1 27/3/1 21/4/1
f 27/3/2 22/5/2 11/6/2 21/4/2
f 17/7/1 25/8/1 26/2/1 19/1/1
f 15/9/1 24/10/1 25/8/1 17/7/1
f 13/11/1 23/12/1 24/10/1 15/9/1
f 18/13/1 20/14/1 32/15/1 31/16/1
f 16/17/1 18/13/1 31/16/1 30/18/1
f 14/19/1 16/17/1 30/18/1 29/20/1
f 12/21/1 14/19/1 29/20/1 28/22/1
f 22/5/3 32/15/3 20/14/3 11/6/3
f 49/23/4 81/24/4 83/25/4 51/26/4
f 34/27/4 66/28/4 69/29/4 37/30/4
f 43/31/4 53/32/4 85/33/4 75/34/4
f 48/35/4 50/36/4 82/37/4 80/38/4
f 35/39/4 36/40/4 68/41/4 67/42/4
f 64/43/4 54/44/4 86/45/4 96/46/4
f 47/47/4 79/48/4 81/24/4 49/23/4
f 33/49/4 65/50/4 66/28/4 34/27/4
f 52/51/4 43/31/4 75/34/4 84/52/4
f 45/53/4 48/35/4 80/38/4 77/54/4
f 4/55/4 34/27/4 37/30/4 6/56/4
f 16/17/4 49/23/4 51/26/4 18/13/4
f 3/57/4 5/58/4 38/59/4 36/40/4
f 23/12/4 13/11/4 44/60/4 56/61/4
f 19/1/4 21/4/4 52/51/4 50/36/4
f 6/56/4 37/30/4 39/62/4 8/63/4
f 29/20/4 61/64/4 60/65/4 28/22/4
f 18/13/4 51/26/4 53/32/4 20/14/4
f 5/58/4 7/66/4 40/67/4 38/59/4
f 30/18/4 62/68/4 61/64/4 29/20/4
f 8/63/4 39/62/4 41/69/4 10/70/4
f 31/16/4 63/71/4 62/68/4 30/18/4
f 22/5/4 27/3/4 55/72/4 54/44/4
f 7/66/4 9/73/4 42/74/4 40/67/4
f 32/15/4 64/43/4 63/71/4 31/16/4
f 24/10/4 23/12/4 56/61/4 57/75/4
f 25/8/4 24/10/4 57/75/4 58/76/4
f 10/70/4 41/69/4 43/31/4 11/6/4
f 26/2/4 25/8/4 58/76/4 59/77/4
f 9/73/4 11/6/4 43/31/4 42/74/4
f 27/3/4 26/2/4 59/77/4 55/72/4
f 13/11/4 15/9/4 45/53/4 44/60/4
f 12/21/4 46/78/4 47/47/4 14/19/4
f 28/22/4 60/65/4 46/78/4 12/21/4
f 15/9/4 17/7/4 48/35/4 45/53/4
f 21/4/4 11/6/4 43/31/4 52/51/4
f 2/79/4 33/49/4 34/27/4 4/55/4
f 14/19/4 47/47/4 49/23/4 16/17/4
f 32/15/4 22/5/4 54/44/4 64/43/4
f 1/80/4 3/57/4 36/40/4 35/39/4
f 17/7/4 19/1/4 50/36/4 48/35/4
f 11/6/4 20/14/4 53/32/4 43/31/4
f 82/37/4 84/52/4 116/81/4 114/82/4
f 88/83/4 76/84/4 108/85/4 120/86/4
f 68/41/4 70/87/4 102/88/4 100/89/4
f 81/24/4 113/90/4 115/91/4 83/25/4
f 66/28/4 98/92/4 101/93/4 69/29/4
f 75/34/4 85/33/4 117/94/4 107/95/4
f 80/38/4 82/37/4 114/82/4 112/96/4
f 67/42/4 68/41/4 100/89/4 99/97/4
f 96/46/4 86/45/4 118/98/4 128/99/4
f 79/48/4 111/100/4 113/90/4 81/24/4
f 36/40/4 38/59/4 70/87/4 68/41/4
f 56/61/4 44/60/4 76/84/4 88/83/4
f 50/36/4 52/51/4 84/52/4 82/37/4
f 37/30/4 69/29/4 71/101/4 39/62/4
f 61/64/4 93/102/4 92/103/4 60/65/4
f 51/26/4 83/25/4 85/33/4 53/32/4
f 38/59/4 40/67/4 72/104/4 70/87/4
f 62/68/4 94/105/4 93/102/4 61/64/4
f 39/62/4 71/101/4 73/106/4 41/69/4
f 63/71/4 95/107/4 94/105/4 62/68/4
f 54/44/4 55/72/4 87/108/4 86/45/4
f 40/67/4 42/74/4 74/109/4 72/104/4
f 64/43/4 96/46/4 95/107/4 63/71/4
f 57/75/4 56/61/4 88/83/4 89/110/4
f 58/76/4 57/75/4 89/110/4 90/111/4
f 41/69/4 73/106/4 75/34/4 43/31/4
f 59/77/4 58/76/4 90/111/4 91/112/4
f 42/74/4 43/31/4 75/34/4 74/109/4
f 55/72/4 59/77/4 91/112/4 87/108/4
f 44/60/4 45/53/4 77/54/4 76/84/4
f 46/78/4 78/113/4 79/48/4 47/47/4
f 60/65/4 92/103/4 78/113/4 46/78/4
f 112/96/5 114/82/5 146/114/5 144/115/5
f 99/97/5 100/89/5 132/116/5 131/117/5
f 128/99/6 118/98/6 150/118/6 160/119/6
f 111/100/7 143/120/7 145/121/7 113/90/7
f 97/122/7 129/123/7 130/124/7 98/92/7
f 116/81/8 107/95/8 139/125/8 148/126/8
f 109/127/5 112/96/5 144/115/5 141/128/5
f 124/129/9 156/130/9 142/131/9 110/132/9
f 110/132/7 142/131/7 143/120/7 111/100/7
f 108/85/5 109/127/5 141/128/5 140/133/5
f 69/29/4 101/93/4 103/134/4 71/101/4
f 93/102/4 125/135/4 124/129/4 92/103/4
f 83/25/4 115/91/4 117/94/4 85/33/4
f 70/87/4 72/104/4 104/136/4 102/88/4
f 94/105/4 126/137/4 125/135/4 93/102/4
f 71/101/4 103/134/4 105/138/4 73/106/4
f 95/107/4 127/139/4 126/137/4 94/105/4
f 86/45/4 87/108/4 119/140/4 118/98/4
f 72/104/4 74/109/4 106/141/4 104/136/4
f 96/46/4 128/99/4 127/139/4 95/107/4
f 89/110/4 88/83/4 120/86/4 121/142/4
f 90/111/4 89/110/4 121/142/4 122/143/4
f 73/106/4 105/138/4 107/95/4 75/34/4
f 91/112/4 90/111/4 122/143/4 123/144/4
f 74/109/4 75/34/4 107/95/4 106/141/4
f 87/108/4 91/112/4 123/144/4 119/140/4
f 76/84/4 77/54/4 109/127/4 108/85/4
f 78/113/4 110/132/4 111/100/4 79/48/4
f 92/103/4 124/129/4 110/132/4 78/113/4
f 77/54/4 80/38/4 112/96/4 109/127/4
f 84/52/4 75/34/4 107/95/4 116/81/4
f 65/50/4 97/122/4 98/92/4 66/28/4
f 146/114/10 148/126/10 151/145/10 155/146/10
f 151/145/11 148/126/11 139/125/11 150/118/11
f 144/115/10 146/114/10 155/146/10 154/147/10
f 141/128/10 144/115/10 154/147/10 153/148/10
f 140/133/10 141/128/10 153/148/10 152/149/10
f 147/150/10 159/151/10 160/119/10 149/152/10
f 145/121/10 158/153/10 159/151/10 147/150/10
f 143/120/10 157/154/10 158/153/10 145/121/10
f 142/131/10 156/130/10 157/154/10 143/120/10
f 150/118/12 139/125/12 149/152/12 160/119/12
f 107/95/13 117/94/13 149/152/13 139/125/13
f 98/92/7 130/124/7 133/155/7 101/93/7
f 113/90/7 145/121/7 147/150/7 115/91/7
f 100/89/5 102/88/5 134/156/5 132/116/5
f 120/86/9 108/85/9 140/133/9 152/149/9
f 114/82/5 116/81/5 148/126/5 146/114/5
f 101/93/7 133/155/7 135/157/7 103/134/7
f 125/135/5 157/154/5 156/130/5 124/129/5
f 115/91/7 147/150/7 149/152/7 117/94/7
f 102/88/5 104/136/5 136/158/5 134/156/5
f 126/137/5 158/153/5 157/154/5 125/135/5
f 103/134/7 135/157/7 137/159/7 105/138/7
f 127/139/5 159/151/5 158/153/5 126/137/5
f 118/98/14 119/140/14 151/145/14 150/118/14
f 104/136/5 106/141/5 138/160/5 136/158/5
f 128/99/5 160/119/5 159/151/5 127/139/5
f 121/142/7 120/86/7 152/149/7 153/148/7
f 122/143/7 121/142/7 153/148/7 154/147/7
f 105/138/15 137/159/15 139/125/15 107/95/15
f 123/144/7 122/143/7 154/147/7 155/146/7
f 106/141/16 107/95/16 139/125/16 138/160/16
f 119/140/7 123/144/7 155/146/7 151/145/7
o Exit_Grid.008
v 250.721161 -6.026536 -213.582275
v 244.266266 -10.397926 -220.683167
v 257.277588 -10.397926 -206.495667
v 244.266266 11.973463 -220.683167
v 257.277588 11.973463 -206.495667
v 244.266266 23.853462 -220.683167
v 257.277588 23.853462 -206.495667
v 250.771912 31.705200 -213.589417
v 250.771912 31.705200 -213.589417
v 250.060272 36.139305 -213.120010
v 250.060272 36.139305 -213.120010
v 259.480011 -10.397926 -203.156601
v 259.480011 11.973463 -203.156601
v 259.337677 24.740282 -203.062729
v 242.063843 -10.397926 -224.022217
v 242.063843 11.973463 -224.022217
v 241.921509 24.740282 -223.928345
v 257.277588 -10.397926 -206.495667
v 257.277588 11.973463 -206.495667
v 244.266266 11.973463 -220.683167
v 244.266266 -10.397926 -220.683167
v 257.277588 23.853462 -206.495667
v 244.266266 23.853462 -220.683167
v 250.771912 31.705200 -213.589417
v 250.771912 31.705200 -213.589417
v 250.060272 36.139305 -213.120010
v 259.480011 -10.397926 -203.156601
v 259.480011 11.973463 -203.156601
v 259.337677 24.740282 -203.062729
v 242.063843 11.973463 -224.022217
v 242.063843 -10.397926 -224.022217
v 241.921509 24.740282 -223.928345
v 263.829468 -10.397925 -211.074203
v 263.829468 11.973464 -211.074203
v 250.818176 12.271365 -225.261719
v 250.818176 -10.100024 -225.261719
v 263.829468 23.853462 -211.074203
v 250.818176 24.151363 -225.261719
v 257.323822 31.705200 -218.167938
v 257.323822 31.705200 -218.167938
v 256.612183 36.139305 -217.698563
v 266.031891 -10.397925 -207.735153
v 266.031891 11.973464 -207.735153
v 265.889587 24.740284 -207.641266
v 248.615723 11.973464 -228.600769
v 248.615723 -10.397925 -228.600769
v 248.473389 24.740284 -228.506882
vt 0.000000 0.000000
vt 0.000000 0.000000
vt 0.000000 0.000000
vt 0.000000 0.000000
vt 0.000000 0.000000
vt 0.000000 0.000000
vt 0.000000 0.000000
vt 0.000000 0.000000
vt 0.000000 0.000000
vt 0.000000 0.000000
vt 0.000000 0.000000
vt 0.000000 0.000000
vt 0.000000 0.000000
vt 0.000000 0.000000
vt 0.000000 0.000000
vt 0.000000 0.000000
vt 0.000000 0.000000
vt 0.000000 0.000000
vt 0.000000 0.000000
vt 0.000000 0.000000
vt 0.000000 0.000000
vt 0.000000 0.000000
vt 0.000000 0.000000
vt 0.000000 0.000000
vt 0.000000 0.000000
vt 0.000000 0.000000
vt 0.000000 0.000000
vt 0.000000 0.000000
vt 0.000000 0.000000
vt 0.000000 0.000000
vt 0.000000 0.000000
vt 0.000000 0.000000
vt 0.000000 0.000000
vt 0.000000 0.000000
vt 0.000000 0.000000
vt 0.000000 0.000000
vt 0.000000 0.000000
vt 0.000000 0.000000
vt 0.000000 0.000000
vt 0.000000 0.000000
vt 0.000000 0.000000
vt 0.000000 0.000000
vt 0.000000 0.000000
vt 0.000000 0.000000
vt 0.000000 0.000000
vn -0.8459 -0.0069 0.5333
vn -0.8348 0.0000 0.5506
vn -0.8233 -0.0069 0.5676
vn -0.8192 -0.1894 0.5413
vn -0.7342 -0.0695 0.6753
vn 0.0000 0.0000 1.0000
vn -0.5728 0.0000 -0.8197
vn -0.3640 -0.7722 -0.5209
vn 0.3710 -0.7789 0.5056
vn 0.0000 -1.0000 -0.0000
vn 0.8459 0.0069 -0.5333
vn 0.8348 0.0000 -0.5506
vn 0.8230 0.0069 -0.5681
vn 0.8192 0.1894 -0.5413
vn 0.7331 0.0723 -0.6763
vn 0.3686 0.7654 0.5275
vn -0.5728 -0.0004 -0.8197
vn 0.5728 0.0000 0.8197
vn 0.5728 0.0004 0.8197
vn 0.0369 -0.9991 0.0203
vn -0.3692 0.7646 -0.5283
usemtl None
s off
f 165/161/17 173/162/17 174/163/17 167/164/17
f 163/165/18 172/166/18 173/162/18 165/161/18
f 166/167/19 177/168/19 176/169/19 164/170/19
f 164/170/18 176/169/18 175/171/18 162/172/18
f 171/173/20 169/174/20 167/164/20 174/163/20
f 166/167/21 169/174/21 171/173/21 177/168/21
f 184/175/22 185/176/22 200/177/22 199/178/22
f 191/179/23 190/180/23 205/181/23 206/182/23
f 182/183/24 185/176/24 200/177/24 197/184/24
f 184/175/25 183/185/25 198/186/25 199/178/25
f 187/187/26 178/188/26 193/189/26 202/190/26
f 185/176/25 183/185/25 198/186/25 200/177/25
f 167/164/22 168/191/22 184/175/22 182/183/22
f 169/174/22 166/167/22 183/185/22 185/176/22
f 172/166/22 163/165/22 178/188/22 187/187/22
f 168/191/22 166/167/22 183/185/22 184/175/22
f 167/164/22 169/174/22 185/176/22 182/183/22
f 175/171/22 176/169/22 190/180/22 191/179/22
f 168/191/22 169/174/22 185/176/22 184/175/22
f 171/173/22 174/163/22 189/192/22 186/193/22
f 176/169/22 177/168/22 192/194/22 190/180/22
f 163/165/22 165/161/22 179/195/22 178/188/22
f 173/162/22 172/166/22 187/187/22 188/196/22
f 164/170/22 162/172/22 181/197/22 180/198/22
f 174/163/22 173/162/22 188/196/22 189/192/22
f 165/161/22 167/164/22 182/183/22 179/195/22
f 162/172/22 175/171/22 191/179/22 181/197/22
f 166/167/22 164/170/22 180/198/22 183/185/22
f 177/168/22 171/173/22 186/193/22 192/194/22
f 194/199/27 197/184/27 204/200/27 203/201/27
f 193/189/28 194/199/28 203/201/28 202/190/28
f 198/186/29 195/202/29 205/181/29 207/203/29
f 195/202/28 196/204/28 206/182/28 205/181/28
f 201/205/30 204/200/30 197/184/30 200/177/30
f 198/186/31 207/203/31 201/205/31 200/177/31
f 186/193/32 189/192/32 204/200/32 201/205/32
f 190/180/33 192/194/33 207/203/33 205/181/33
f 178/188/23 179/195/23 194/199/23 193/189/23
f 188/196/34 187/187/34 202/190/34 203/201/34
f 180/198/34 181/197/34 196/204/34 195/202/34
f 189/192/35 188/196/35 203/201/35 204/200/35
f 179/195/23 182/183/23 197/184/23 194/199/23
f 181/197/36 191/179/36 206/182/36 196/204/36
f 183/185/34 180/198/34 195/202/34 198/186/34
f 192/194/37 186/193/37 201/205/37 207/203/37
f 182/183/24 184/175/24 199/178/24 197/184/24
