# Blender v2.93.3 OBJ File: 'untitled_coloured.blend'
# www.blender.org
mtllib door.mtl
o Door_Grid.013
v 109.982864 2.566823 -119.021828
v 106.077667 2.566823 -131.848862
v 109.982864 5.566823 -119.021828
v 106.077667 5.566823 -131.848862
v 109.982864 8.566824 -119.021828
v 106.077667 8.566824 -131.848862
v 109.982864 11.566823 -119.021828
v 106.077667 11.566823 -131.848862
v 109.982864 14.566823 -119.021828
v 106.077667 14.566823 -131.848862
v 108.030266 18.066822 -125.435349
v 109.982864 2.566823 -119.021828
v 106.077667 2.566823 -131.848862
v 109.982864 5.566823 -119.021828
v 106.077667 5.566823 -131.848862
v 109.982864 8.566824 -119.021828
v 106.077667 8.566824 -131.848862
v 109.982864 11.566823 -119.021828
v 106.077667 11.566823 -131.848862
v 109.982864 14.566823 -119.021828
v 106.077667 14.566823 -131.848862
v 108.030266 18.066822 -125.435349
v 110.796005 2.566823 -119.269394
v 106.890808 2.566823 -132.096420
v 110.796005 5.566823 -119.269394
v 106.890808 5.566823 -132.096420
v 110.796005 8.566824 -119.269394
v 106.890808 8.566824 -132.096420
v 110.796005 11.566823 -119.269394
v 106.890808 11.566823 -132.096420
v 110.796005 14.566823 -119.269394
v 106.890808 14.566823 -132.096420
v 108.843407 18.066822 -125.682907
v 110.796005 2.566823 -119.269394
v 106.890808 2.566823 -132.096420
v 110.796005 5.566823 -119.269394
v 106.890808 5.566823 -132.096420
v 110.796005 8.566824 -119.269394
v 106.890808 8.566824 -132.096420
v 110.796005 11.566823 -119.269394
v 106.890808 11.566823 -132.096420
v 110.796005 14.566823 -119.269394
v 106.890808 14.566823 -132.096420
v 108.843407 18.066822 -125.682907
v 110.309402 2.855498 -119.634209
v 106.690041 2.855498 -131.522324
v 110.382797 5.566823 -119.771851
v 106.827690 5.566823 -131.448929
v 110.382751 8.566824 -119.771881
v 106.827667 8.566824 -131.448883
v 110.382751 11.566823 -119.771881
v 106.827667 11.566823 -131.448883
v 110.315247 14.406860 -119.755356
v 106.762421 14.406860 -131.425003
v 108.505020 17.660912 -125.579872
v 110.309402 2.855498 -119.634209
v 106.690041 2.855498 -131.522324
v 110.382797 5.566823 -119.771851
v 106.827690 5.566823 -131.448929
v 110.382751 8.566824 -119.771881
v 106.827667 8.566824 -131.448883
v 110.382751 11.566823 -119.771881
v 106.827667 11.566823 -131.448883
v 110.315247 14.406860 -119.755356
v 106.762421 14.406860 -131.425003
v 108.505020 17.660912 -125.579872
v 110.183632 2.855498 -119.595932
v 106.564270 2.855498 -131.484039
v 110.045982 5.566823 -119.669327
v 106.490883 5.566823 -131.346405
v 110.046005 8.566824 -119.669365
v 106.490929 8.566824 -131.346375
v 110.046005 11.566823 -119.669365
v 106.490929 11.566823 -131.346375
v 110.111259 14.406860 -119.693253
v 106.558426 14.406860 -131.362900
v 108.368652 17.660912 -125.538376
v 110.183632 2.855498 -119.595932
v 106.564270 2.855498 -131.484039
v 110.045982 5.566823 -119.669327
v 106.490883 5.566823 -131.346405
v 110.046005 8.566824 -119.669365
v 106.490929 8.566824 -131.346375
v 110.046005 11.566823 -119.669365
v 106.490929 11.566823 -131.346375
v 110.111259 14.406876 -119.693253
v 106.558426 14.406860 -131.362900
v 108.368652 17.660912 -125.538376
vt 0.000000 0.000000
vt 0.000000 0.000000
vt 0.000000 0.000000
vt 0.000000 0.000000
vt 0.000000 0.000000
vt 0.000000 0.000000
vt 0.000000 0.000000
vt 0.000000 0.000000
vt 0.000000 0.000000
vt 0.000000 0.000000
vt 0.000000 0.000000
vt 0.000000 0.000000
vt 0.000000 0.000000
vt 0.000000 0.000000
vt 0.000000 0.000000
vt 0.000000 0.000000
vt 0.000000 0.000000
vt 0.000000 0.000000
vt 0.000000 0.000000
vt 0.000000 0.000000
vt 0.000000 0.000000
vt 0.000000 0.000000
vt 0.000000 0.000000
vt 0.000000 0.000000
vt 0.000000 0.000000
vt 0.000000 0.000000
vt 0.000000 0.000000
vt 0.000000 0.000000
vt 0.000000 0.000000
vt 0.000000 0.000000
vt 0.000000 0.000000
vt 0.000000 0.000000
vt 0.000000 0.000000
vt 0.000000 0.000000
vt 0.000000 0.000000
vt 0.000000 0.000000
vt 0.000000 0.000000
vt 0.000000 0.000000
vt 0.000000 0.000000
vt 0.000000 0.000000
vt 0.000000 0.000000
vt 0.000000 0.000000
vt 0.000000 0.000000
vt 0.000000 0.000000
vt 0.000000 0.000000
vt 0.000000 0.000000
vt 0.000000 0.000000
vt 0.000000 0.000000
vt 0.000000 0.000000
vt 0.000000 0.000000
vt 0.000000 0.000000
vt 0.000000 0.000000
vt 0.000000 0.000000
vt 0.000000 0.000000
vt 0.000000 0.000000
vt 0.000000 0.000000
vt 0.000000 0.000000
vt 0.000000 0.000000
vt 0.000000 0.000000
vt 0.000000 0.000000
vt 0.000000 0.000000
vt 0.000000 0.000000
vt 0.000000 0.000000
vt 0.000000 0.000000
vt 0.000000 0.000000
vt 0.000000 0.000000
vt 0.000000 0.000000
vt 0.000000 0.000000
vt 0.000000 0.000000
vt 0.000000 0.000000
vt 0.000000 0.000000
vt 0.000000 0.000000
vt 0.000000 0.000000
vt 0.000000 0.000000
vt 0.000000 0.000000
vt 0.000000 0.000000
vt 0.000000 0.000000
vt 0.000000 0.000000
vt 0.000000 0.000000
vt 0.000000 0.000000
vt 0.000000 0.000000
vt 0.000000 0.000000
vt 0.000000 0.000000
vt 0.000000 0.000000
vt 0.000000 0.000000
vt 0.000000 0.000000
vt 0.000000 0.000000
vt 0.000000 0.000000
vn -0.9566 0.0000 0.2913
vn 0.9566 0.0000 -0.2913
vn -0.2912 0.0000 -0.9566
vn 0.2912 0.0000 0.9566
vn 0.2913 0.0000 0.9566
vn -0.1348 0.8865 -0.4427
vn 0.1348 0.8865 0.4427
vn 0.0000 -1.0000 0.0000
vn 0.9566 -0.0018 -0.2913
vn -0.9566 -0.0018 0.2913
vn -0.2910 0.0406 -0.9559
vn 0.2910 0.0406 0.9559
vn -0.2912 0.0000 -0.9567
vn 0.2912 0.0000 0.9567
vn -0.2912 0.0014 -0.9566
vn 0.2912 0.0014 0.9566
vn -0.1371 0.8823 -0.4503
vn 0.1371 0.8823 0.4503
usemtl None
s off
f 4/1/1 2/2/1 1/3/1 3/4/1 5/5/1 7/6/1 9/7/1 11/8/1 10/9/1 8/10/1 6/11/1
f 13/12/1 12/13/1 14/14/1 16/15/1 18/16/1 20/17/1 22/18/1 21/19/1 19/20/1 17/21/1 15/22/1
f 26/23/2 28/24/2 30/25/2 32/26/2 33/27/2 31/28/2 29/29/2 27/30/2 25/31/2 23/32/2 24/33/2
f 35/34/2 37/35/2 39/36/2 41/37/2 43/38/2 44/39/2 42/40/2 40/41/2 38/42/2 36/43/2 34/44/2
f 2/2/3 4/1/3 26/23/3 24/33/3
f 3/4/4 1/3/4 23/32/4 25/31/4
f 4/1/3 6/11/3 28/24/3 26/23/3
f 5/5/4 3/4/4 25/31/4 27/30/4
f 6/11/3 8/10/3 30/25/3 28/24/3
f 7/6/5 5/5/5 27/30/5 29/29/5
f 8/10/3 10/9/3 32/26/3 30/25/3
f 9/7/4 7/6/4 29/29/4 31/28/4
f 10/9/6 11/8/6 33/27/6 32/26/6
f 11/8/7 9/7/7 31/28/7 33/27/7
f 13/12/3 15/22/3 37/35/3 35/34/3
f 14/14/4 12/13/4 34/44/4 36/43/4
f 15/22/3 17/21/3 39/36/3 37/35/3
f 16/15/4 14/14/4 36/43/4 38/42/4
f 17/21/3 19/20/3 41/37/3 39/36/3
f 18/16/5 16/15/5 38/42/5 40/41/5
f 19/20/3 21/19/3 43/38/3 41/37/3
f 20/17/4 18/16/4 40/41/4 42/40/4
f 21/19/6 22/18/6 44/39/6 43/38/6
f 22/18/7 20/17/7 42/40/7 44/39/7
f 12/13/8 13/12/8 35/34/8 34/44/8
f 1/3/8 2/2/8 24/33/8 23/32/8
f 48/45/9 50/46/9 52/47/9 54/48/9 55/49/9 53/50/9 51/51/9 49/52/9 47/53/9 45/54/9 46/55/9
f 57/56/9 59/57/9 61/58/9 63/59/9 65/60/9 66/61/9 64/62/9 62/63/9 60/64/9 58/65/9 56/66/9
f 70/67/10 68/68/10 67/69/10 69/70/10 71/71/10 73/72/10 75/73/10 77/74/10 76/75/10 74/76/10 72/77/10
f 79/78/10 78/79/10 80/80/10 82/81/10 84/82/10 86/83/10 88/84/10 87/85/10 85/86/10 83/87/10 81/88/10
f 46/55/11 68/68/11 70/67/11 48/45/11
f 47/53/12 69/70/12 67/69/12 45/54/12
f 48/45/13 70/67/13 72/77/13 50/46/13
f 49/52/14 71/71/14 69/70/14 47/53/14
f 50/46/13 72/77/13 74/76/13 52/47/13
f 51/51/14 73/72/14 71/71/14 49/52/14
f 52/47/15 74/76/15 76/75/15 54/48/15
f 53/50/16 75/73/16 73/72/16 51/51/16
f 54/48/17 76/75/17 77/74/17 55/49/17
f 55/49/18 77/74/18 75/73/18 53/50/18
f 57/56/11 79/78/11 81/88/11 59/57/11
f 58/65/12 80/80/12 78/79/12 56/66/12
f 59/57/13 81/88/13 83/87/13 61/58/13
f 60/64/14 82/81/14 80/80/14 58/65/14
f 61/58/13 83/87/13 85/86/13 63/59/13
f 62/63/14 84/82/14 82/81/14 60/64/14
f 63/59/15 85/86/15 87/85/15 65/60/15
f 64/62/16 86/83/16 84/82/16 62/63/16
f 65/60/17 87/85/17 88/84/17 66/61/17
f 66/61/18 88/84/18 86/83/18 64/62/18
f 56/66/8 78/79/8 79/78/8 57/56/8
f 45/54/8 67/69/8 68/68/8 46/55/8
