# Blender v2.93.3 OBJ File: 'untitled.blend'
# www.blender.org
mtllib door_gem.mtl
o DoorGem_Cylinder.001
v 141.190231 29.228489 -119.021667
v 143.389740 29.228489 -119.694122
v 141.307739 27.728489 -118.637306
v 143.507248 27.728489 -119.309761
v 141.628784 26.630413 -117.587212
v 143.828293 26.630413 -118.259666
v 142.067352 26.228489 -116.152756
v 144.266846 26.228489 -116.825211
v 142.505905 26.630413 -114.718300
v 144.705414 26.630413 -115.390755
v 142.826950 27.728489 -113.668205
v 145.026459 27.728489 -114.340660
v 142.944458 29.228489 -113.283844
v 145.143967 29.228489 -113.956299
v 142.826950 30.728489 -113.668205
v 145.026459 30.728489 -114.340660
v 142.505905 31.826565 -114.718300
v 144.705414 31.826565 -115.390755
v 142.067352 32.228489 -116.152756
v 144.266846 32.228489 -116.825211
v 141.628784 31.826565 -117.587212
v 143.828293 31.826565 -118.259666
v 141.307739 30.728489 -118.637306
v 143.507248 30.728489 -119.309761
v 142.348740 28.478489 -119.165718
v 142.568024 27.179451 -118.448486
v 142.947815 26.429451 -117.206215
v 143.386383 26.429451 -115.771751
v 143.766174 27.179451 -114.529480
v 143.985458 28.478489 -113.812248
v 143.985458 29.978489 -113.812248
v 143.766174 31.277527 -114.529480
v 143.386383 32.027527 -115.771751
v 142.947815 32.027527 -117.206215
v 144.266846 29.228489 -116.825211
v 142.568024 31.277527 -118.448486
v 142.348740 29.978489 -119.165718
v 142.067352 29.228489 -116.152756
v 142.067001 26.728489 -116.152756
v 143.876007 28.110451 -114.838455
v 141.376038 28.110451 -114.026154
v 139.830933 28.110451 -116.152756
v 141.376038 28.110451 -118.279358
v 143.876007 28.110451 -117.467056
v 142.757965 30.346527 -114.026154
v 140.257996 30.346527 -114.838455
v 140.257996 30.346527 -117.467056
v 142.757965 30.346527 -118.279358
v 144.303070 30.346527 -116.152756
v 142.067001 31.728489 -116.152756
vt 0.916667 0.500000
vt 0.916667 1.000000
vt 0.875000 0.750000
vt 0.833333 0.500000
vt 0.833333 1.000000
vt 0.791667 0.750000
vt 0.750000 0.500000
vt 0.750000 1.000000
vt 0.708333 0.750000
vt 0.666667 0.500000
vt 0.666667 1.000000
vt 0.625000 0.750000
vt 0.583333 0.500000
vt 0.583333 1.000000
vt 0.541667 0.750000
vt 0.500000 0.500000
vt 0.500000 1.000000
vt 0.458333 0.750000
vt 0.416667 0.500000
vt 0.416667 1.000000
vt 0.375000 0.750000
vt 0.333333 0.500000
vt 0.333333 1.000000
vt 0.291667 0.750000
vt 0.250000 0.500000
vt 0.250000 1.000000
vt 0.208333 0.750000
vt 0.370000 0.457846
vt 0.250000 0.490000
vt 0.250000 0.250000
vt 0.166667 0.500000
vt 0.166667 1.000000
vt 0.125000 0.750000
vt 0.083333 0.500000
vt 0.083333 1.000000
vt 0.041667 0.750000
vt 0.750000 0.490000
vt 0.870000 0.457846
vt 0.750000 0.250000
vt 1.000000 0.500000
vt 1.000000 1.000000
vt 0.958333 0.750000
vt 0.130000 0.457846
vt 0.042154 0.370000
vt 0.010000 0.250000
vt 0.042154 0.130000
vt 0.130000 0.042154
vt 0.250000 0.010000
vt 0.370000 0.042154
vt 0.457846 0.130000
vt 0.490000 0.250000
vt 0.457846 0.370000
vt 0.000000 1.000000
vt 0.000000 0.500000
vt 0.957846 0.370000
vt 0.990000 0.250000
vt 0.957846 0.130000
vt 0.870000 0.042154
vt 0.750000 0.010000
vt 0.630000 0.042154
vt 0.542154 0.130000
vt 0.510000 0.250000
vt 0.542154 0.370000
vt 0.630000 0.457846
vt 0.181819 0.000000
vt 0.272728 0.157461
vt 0.090910 0.157461
vt 0.363637 0.000000
vt 0.454546 0.157461
vt 0.909091 0.000000
vt 1.000000 0.157461
vt 0.818182 0.157461
vt 0.727273 0.000000
vt 0.636364 0.157461
vt 0.545455 0.000000
vt 0.363637 0.314921
vt 0.181819 0.314921
vt 0.909091 0.314921
vt 0.727273 0.314921
vt 0.545455 0.314921
vt 0.000000 0.314921
vt 0.272728 0.472382
vt 0.090910 0.472382
vt 0.818182 0.472382
vt 0.636364 0.472382
vt 0.454546 0.472382
vn -0.2067 -0.7071 -0.6762
vn -0.0757 -0.9659 -0.2475
vn 0.0757 -0.9659 0.2475
vn 0.2067 -0.7071 0.6762
vn 0.2824 -0.2588 0.9237
vn 0.2824 0.2588 0.9237
vn 0.2067 0.7071 0.6762
vn 0.0757 0.9659 0.2475
vn -0.0757 0.9659 -0.2475
vn 0.9563 0.0000 -0.2924
vn -0.2067 0.7071 -0.6762
vn -0.2824 0.2588 -0.9237
vn -0.9563 0.0000 0.2924
vn -0.2824 -0.2588 -0.9237
vn 0.1876 -0.7946 0.5774
vn 0.6071 -0.7947 0.0000
vn -0.4911 -0.7947 0.3568
vn -0.4911 -0.7947 -0.3568
vn 0.1876 -0.7946 -0.5774
vn 0.9822 -0.1876 0.0000
vn 0.3035 -0.1876 0.9342
vn -0.7946 -0.1876 0.5774
vn -0.7946 -0.1876 -0.5774
vn 0.3035 -0.1876 -0.9342
vn 0.7946 0.1876 0.5774
vn -0.3035 0.1876 0.9342
vn -0.9822 0.1876 0.0000
vn -0.3035 0.1876 -0.9342
vn 0.7946 0.1876 -0.5774
vn 0.4911 0.7947 0.3568
vn -0.1876 0.7946 0.5774
vn -0.6071 0.7947 0.0000
vn -0.1876 0.7946 -0.5774
vn 0.4911 0.7947 -0.3568
usemtl None
s off
f 3/1/1 4/2/1 26/3/1
f 5/4/2 6/5/2 27/6/2
f 7/7/3 8/8/3 28/9/3
f 9/10/4 10/11/4 29/12/4
f 11/13/5 12/14/5 30/15/5
f 13/16/6 14/17/6 31/18/6
f 15/19/7 16/20/7 32/21/7
f 17/22/8 18/23/8 33/24/8
f 19/25/9 20/26/9 34/27/9
f 4/28/10 2/29/10 35/30/10
f 21/31/11 22/32/11 36/33/11
f 23/34/12 24/35/12 37/36/12
f 1/37/13 3/38/13 38/39/13
f 1/40/14 2/41/14 25/42/14
f 2/41/14 4/2/14 25/42/14
f 4/2/14 3/1/14 25/42/14
f 3/1/14 1/40/14 25/42/14
f 4/2/1 6/5/1 26/3/1
f 6/5/1 5/4/1 26/3/1
f 5/4/1 3/1/1 26/3/1
f 6/5/2 8/8/2 27/6/2
f 8/8/2 7/7/2 27/6/2
f 7/7/2 5/4/2 27/6/2
f 8/8/3 10/11/3 28/9/3
f 10/11/3 9/10/3 28/9/3
f 9/10/3 7/7/3 28/9/3
f 10/11/4 12/14/4 29/12/4
f 12/14/4 11/13/4 29/12/4
f 11/13/4 9/10/4 29/12/4
f 12/14/5 14/17/5 30/15/5
f 14/17/5 13/16/5 30/15/5
f 13/16/5 11/13/5 30/15/5
f 14/17/6 16/20/6 31/18/6
f 16/20/6 15/19/6 31/18/6
f 15/19/6 13/16/6 31/18/6
f 16/20/7 18/23/7 32/21/7
f 18/23/7 17/22/7 32/21/7
f 17/22/7 15/19/7 32/21/7
f 18/23/8 20/26/8 33/24/8
f 20/26/8 19/25/8 33/24/8
f 19/25/8 17/22/8 33/24/8
f 20/26/9 22/32/9 34/27/9
f 22/32/9 21/31/9 34/27/9
f 21/31/9 19/25/9 34/27/9
f 2/29/10 24/43/10 35/30/10
f 24/43/10 22/44/10 35/30/10
f 22/44/10 20/45/10 35/30/10
f 20/45/10 18/46/10 35/30/10
f 18/46/10 16/47/10 35/30/10
f 16/47/10 14/48/10 35/30/10
f 14/48/10 12/49/10 35/30/10
f 12/49/10 10/50/10 35/30/10
f 10/50/10 8/51/10 35/30/10
f 8/51/10 6/52/10 35/30/10
f 6/52/10 4/28/10 35/30/10
f 22/32/11 24/35/11 36/33/11
f 24/35/11 23/34/11 36/33/11
f 23/34/11 21/31/11 36/33/11
f 24/35/12 2/53/12 37/36/12
f 2/53/12 1/54/12 37/36/12
f 1/54/12 23/34/12 37/36/12
f 3/38/13 5/55/13 38/39/13
f 5/55/13 7/56/13 38/39/13
f 7/56/13 9/57/13 38/39/13
f 9/57/13 11/58/13 38/39/13
f 11/58/13 13/59/13 38/39/13
f 13/59/13 15/60/13 38/39/13
f 15/60/13 17/61/13 38/39/13
f 17/61/13 19/62/13 38/39/13
f 19/62/13 21/63/13 38/39/13
f 21/63/13 23/64/13 38/39/13
f 23/64/13 1/37/13 38/39/13
f 39/65/15 40/66/15 41/67/15
f 40/66/16 39/68/16 44/69/16
f 39/70/17 41/71/17 42/72/17
f 39/73/18 42/72/18 43/74/18
f 39/75/19 43/74/19 44/69/19
f 40/66/20 44/69/20 49/76/20
f 41/67/21 40/66/21 45/77/21
f 42/72/22 41/71/22 46/78/22
f 43/74/23 42/72/23 47/79/23
f 44/69/24 43/74/24 48/80/24
f 40/66/25 49/76/25 45/77/25
f 41/67/26 45/77/26 46/81/26
f 42/72/27 46/78/27 47/79/27
f 43/74/28 47/79/28 48/80/28
f 44/69/29 48/80/29 49/76/29
f 45/77/30 49/76/30 50/82/30
f 46/81/31 45/77/31 50/83/31
f 47/79/32 46/78/32 50/84/32
f 48/80/33 47/79/33 50/85/33
f 49/76/34 48/80/34 50/86/34
