# Blender v2.93.3 OBJ File: 'untitled.blend'
# www.blender.org
mtllib pit.mtl
o Cut_Cylinder
v 338.958282 -8.542557 -315.228577
v 338.958282 -16.235020 -319.369690
v 338.958282 -8.542557 -319.369690
v 353.958282 -16.235020 -315.350464
v 353.958282 -8.542557 -315.350464
v 364.939056 -16.235020 -304.369690
v 364.939056 -8.542557 -304.369690
v 368.958282 -16.235020 -289.369690
v 368.958282 -8.542557 -289.369690
v 364.939056 -16.235020 -274.369690
v 364.939056 -8.542557 -274.369690
v 353.958282 -16.235020 -263.388916
v 353.958282 -8.542557 -263.388916
v 338.958282 -16.235020 -259.369690
v 338.958282 -8.542557 -259.369690
v 323.958282 -16.235020 -263.388916
v 323.958282 -8.542557 -263.388916
v 312.977509 -16.235020 -274.369690
v 312.977509 -8.542557 -274.369690
v 308.958282 -16.235020 -289.369690
v 308.958282 -8.542557 -289.369690
v 312.977509 -16.235020 -304.369690
v 312.977509 -8.542557 -304.369690
v 323.958282 -16.235020 -315.350464
v 323.958282 -8.542557 -315.350464
v 351.887726 -8.542557 -311.764160
v 338.958282 -8.542557 -315.228577
v 361.352753 -8.542557 -302.299133
v 364.817169 -8.542557 -289.369690
v 361.352753 -8.542557 -276.440247
v 351.887726 -8.542557 -266.975220
v 338.958282 -8.542557 -263.510803
v 326.028839 -8.542557 -266.975220
v 316.563812 -8.542557 -276.440247
v 313.099396 -8.542557 -289.369690
v 316.563812 -8.542557 -302.299133
v 326.028839 -8.542557 -311.764160
v 338.958282 -8.542557 -315.228577
v 338.958282 -34.642555 -315.228577
v 351.887726 -8.542557 -311.764160
v 361.352753 -8.542557 -302.299133
v 364.817169 -8.542557 -289.369690
v 361.352753 -8.542557 -276.440247
v 351.887726 -8.542557 -266.975220
v 338.958282 -8.542557 -263.510803
v 326.028839 -8.542557 -266.975220
v 316.563812 -8.542557 -276.440247
v 313.099396 -8.542557 -289.369690
v 316.563812 -8.542557 -302.299133
v 326.028839 -8.542557 -311.764160
v 351.887726 -8.542557 -311.764160
v 361.352753 -8.542557 -302.299133
v 364.817169 -8.542557 -289.369690
v 361.352753 -8.542557 -276.440247
v 351.887726 -8.542557 -266.975220
v 338.958282 -8.542557 -263.510803
v 326.028839 -8.542557 -266.975220
v 316.563812 -8.542557 -276.440247
v 313.099396 -8.542557 -289.369690
v 316.563812 -8.542557 -302.299133
v 326.028839 -8.542557 -311.764160
v 338.958282 -34.642555 -289.369690
v 351.887726 -34.642555 -311.764160
v 361.352753 -34.642555 -302.299133
v 364.817169 -34.642555 -289.369690
v 361.352753 -34.642555 -276.440247
v 351.887726 -34.642555 -266.975220
v 338.958282 -34.642555 -263.510803
v 326.028839 -34.642555 -266.975220
v 316.563812 -34.642555 -276.440247
v 313.099396 -34.642555 -289.369690
v 316.563812 -34.642555 -302.299133
v 326.028839 -34.642555 -311.764160
vt 0.070844 0.353436
vt 0.043129 0.250000
vt 0.043129 0.250000
vt 0.070844 0.353436
vt 1.000000 0.500000
vt 1.000000 1.000000
vt 0.916667 1.000000
vt 0.916667 0.500000
vt 0.456871 0.250000
vt 0.429156 0.353436
vt 0.429156 0.353436
vt 0.456871 0.250000
vt 0.833333 1.000000
vt 0.833333 0.500000
vt 0.250000 0.043129
vt 0.353436 0.070844
vt 0.353436 0.070844
vt 0.250000 0.043129
vt 0.750000 1.000000
vt 0.750000 0.500000
vt 0.070844 0.146564
vt 0.070844 0.146564
vt 0.666667 1.000000
vt 0.666667 0.500000
vt 0.353436 0.429156
vt 0.353436 0.429156
vt 0.583333 1.000000
vt 0.583333 0.500000
vt 0.250000 0.456871
vt 0.146564 0.429156
vt 0.146564 0.429156
vt 0.250000 0.456871
vt 0.500000 1.000000
vt 0.500000 0.500000
vt 0.429156 0.146564
vt 0.429156 0.146564
vt 0.416667 1.000000
vt 0.416667 0.500000
vt 0.146564 0.070844
vt 0.146564 0.070844
vt 0.333333 1.000000
vt 0.333333 0.500000
vt 0.250000 1.000000
vt 0.250000 0.500000
vt 0.166667 1.000000
vt 0.166667 0.500000
vt 0.083333 1.000000
vt 0.083333 0.500000
vt 0.000000 1.000000
vt 0.000000 0.500000
vt 0.370000 0.457846
vt 0.250000 0.490000
vt 0.457846 0.370000
vt 0.490000 0.250000
vt 0.457846 0.130000
vt 0.370000 0.042154
vt 0.250000 0.010000
vt 0.130000 0.042154
vt 0.042154 0.130000
vt 0.010000 0.250000
vt 0.042154 0.370000
vt 0.130000 0.457846
vt 0.146564 0.070844
vt 0.070844 0.146564
vt 0.250000 0.456871
vt 0.353436 0.429156
vt 0.070844 0.353436
vt 0.146564 0.429156
vt 0.456871 0.250000
vt 0.429156 0.146564
vt 0.250000 0.043129
vt 0.043129 0.250000
vt 0.429156 0.353436
vt 0.353436 0.070844
vt 0.146564 0.070844
vt 0.070844 0.146564
vt 0.250000 0.456871
vt 0.353436 0.429156
vt 0.070844 0.353436
vt 0.146564 0.429156
vt 0.456871 0.250000
vt 0.429156 0.146564
vt 0.250000 0.043129
vt 0.043129 0.250000
vt 0.429156 0.353436
vt 0.353436 0.070844
vt 0.250000 0.250000
vn 0.0000 0.0000 1.0000
vn 0.2588 0.0000 -0.9659
vn 0.7071 0.0000 -0.7071
vn 0.9659 0.0000 -0.2588
vn 0.9659 0.0000 0.2588
vn 0.7071 0.0000 0.7071
vn 0.2588 0.0000 0.9659
vn -0.2588 0.0000 0.9659
vn -0.7071 0.0000 0.7071
vn -0.9659 0.0000 0.2588
vn -0.9659 0.0000 -0.2588
vn -0.7071 0.0000 -0.7071
vn -0.2588 0.0000 -0.9659
vn 0.0000 1.0000 0.0000
usemtl None
s off
f 36/1/1 35/2/1 48/3/1 49/4/1
f 2/5/2 3/6/2 5/7/2 4/8/2
f 29/9/1 28/10/1 41/11/1 42/12/1
f 4/8/3 5/7/3 7/13/3 6/14/3
f 32/15/1 31/16/1 44/17/1 45/18/1
f 6/14/4 7/13/4 9/19/4 8/20/4
f 35/2/1 34/21/1 47/22/1 48/3/1
f 8/20/5 9/19/5 11/23/5 10/24/5
f 28/10/1 26/25/1 40/26/1 41/11/1
f 10/24/6 11/23/6 13/27/6 12/28/6
f 27/29/1 37/30/1 50/31/1 38/32/1
f 12/28/7 13/27/7 15/33/7 14/34/7
f 31/16/1 30/35/1 43/36/1 44/17/1
f 14/34/8 15/33/8 17/37/8 16/38/8
f 34/21/1 33/39/1 46/40/1 47/22/1
f 16/38/9 17/37/9 19/41/9 18/42/9
f 26/25/1 27/29/1 38/32/1 40/26/1
f 18/42/10 19/41/10 21/43/10 20/44/10
f 37/30/1 36/1/1 49/4/1 50/31/1
f 20/44/11 21/43/11 23/45/11 22/46/11
f 30/35/1 29/9/1 42/12/1 43/36/1
f 22/46/12 23/45/12 25/47/12 24/48/12
f 33/39/1 32/15/1 45/18/1 46/40/1
f 24/48/13 25/47/13 3/49/13 2/50/13
f 27/29/14 26/25/14 5/51/14 3/52/14
f 26/25/14 28/10/14 7/53/14 5/51/14
f 28/10/14 29/9/14 9/54/14 7/53/14
f 29/9/14 30/35/14 11/55/14 9/54/14
f 30/35/14 31/16/14 13/56/14 11/55/14
f 31/16/14 32/15/14 15/57/14 13/56/14
f 32/15/14 33/39/14 17/58/14 15/57/14
f 33/39/14 34/21/14 19/59/14 17/58/14
f 34/21/14 35/2/14 21/60/14 19/59/14
f 35/2/14 36/1/14 23/61/14 21/60/14
f 36/1/14 37/30/14 25/62/14 23/61/14
f 37/30/14 27/29/14 3/52/14 25/62/14
f 47/22/1 46/40/1 57/63/1 58/64/1
f 40/26/1 38/32/1 1/65/1 51/66/1
f 50/31/1 49/4/1 60/67/1 61/68/1
f 43/36/1 42/12/1 53/69/1 54/70/1
f 46/40/1 45/18/1 56/71/1 57/63/1
f 49/4/1 48/3/1 59/72/1 60/67/1
f 42/12/1 41/11/1 52/73/1 53/69/1
f 45/18/1 44/17/1 55/74/1 56/71/1
f 48/3/1 47/22/1 58/64/1 59/72/1
f 41/11/1 40/26/1 51/66/1 52/73/1
f 38/32/1 50/31/1 61/68/1 1/65/1
f 44/17/1 43/36/1 54/70/1 55/74/1
f 58/64/3 57/63/3 69/75/3 70/76/3
f 51/66/8 1/65/8 39/77/8 63/78/8
f 61/68/6 60/67/6 72/79/6 73/80/6
f 54/70/11 53/69/11 65/81/11 66/82/11
f 57/63/2 56/71/2 68/83/2 69/75/2
f 60/67/5 59/72/5 71/84/5 72/79/5
f 53/69/10 52/73/10 64/85/10 65/81/10
f 56/71/13 55/74/13 67/86/13 68/83/13
f 59/72/4 58/64/4 70/76/4 71/84/4
f 52/73/9 51/66/9 63/78/9 64/85/9
f 1/65/7 61/68/7 73/80/7 39/77/7
f 55/74/12 54/70/12 66/82/12 67/86/12
f 62/87/14 63/78/14 39/77/14
f 62/87/14 64/85/14 63/78/14
f 62/87/14 65/81/14 64/85/14
f 62/87/14 66/82/14 65/81/14
f 62/87/14 67/86/14 66/82/14
f 62/87/14 68/83/14 67/86/14
f 62/87/14 69/75/14 68/83/14
f 62/87/14 70/76/14 69/75/14
f 62/87/14 71/84/14 70/76/14
f 62/87/14 72/79/14 71/84/14
f 62/87/14 73/80/14 72/79/14
f 62/87/14 39/77/14 73/80/14
