# Blender v2.93.3 OBJ File: 'vertex_colour.blend'
# www.blender.org
mtllib counter_zone.mtl
o CounterArea_Grid.018
v 113.032425 -1.630771 -151.494995
v 55.302273 -1.630771 -132.203751
v 75.279259 -1.630771 -143.571579
v 65.347717 -1.630771 -138.836273
v 97.302643 -1.630771 -151.098602
v 87.659019 -1.630771 -149.997620
v 96.802643 -1.630771 -155.848618
v 85.409027 -1.630771 -154.247620
v 53.302273 -1.630771 -141.703735
v 94.302643 -1.630771 -164.348602
v 82.909019 -1.630771 -162.747620
v 93.302643 -1.630771 -172.848618
v 81.909027 -1.630771 -171.247620
v 63.347717 -1.630771 -148.336273
v 73.279259 -1.630771 -153.071594
v 50.802273 -1.630771 -150.203751
v 60.847721 -1.630771 -156.836273
v 70.779266 -1.630771 -161.571594
v 49.802277 -1.630771 -158.703735
v 59.847721 -1.630771 -165.336273
v 69.779266 -1.630771 -170.071594
v 112.782425 -1.630771 -158.494995
v 112.282425 -1.630771 -167.994995
v 110.282425 -1.630771 -175.994995
v 91.302650 -1.630771 -182.348618
v 79.909027 -1.630771 -180.747620
v 47.802277 -1.630771 -168.203735
v 57.847725 -1.630771 -174.836273
v 67.779266 -1.630771 -179.571594
v 105.282425 -1.630771 -184.494995
v 89.802650 -1.630771 -192.848602
v 78.409027 -1.630771 -191.247604
v 46.302277 -1.630771 -178.703751
v 56.347725 -1.630771 -185.336273
v 66.279266 -1.630771 -190.071594
v 99.782425 -1.630771 -193.494995
v 87.302650 -1.630771 -201.848618
v 76.909035 -1.630771 -202.747620
v 49.302277 -1.630771 -186.703735
v 55.347721 -1.630771 -194.836288
v 64.779266 -1.630771 -200.571594
v 96.282433 -1.630771 -197.994995
v 113.032425 6.369228 -151.494995
v 55.302273 6.369229 -132.203751
v 75.279259 6.369229 -143.571579
v 65.347717 6.369229 -138.836273
v 97.302643 6.369228 -151.098602
v 87.659019 6.369228 -149.997620
v 96.802643 6.369228 -155.848618
v 85.409027 6.369228 -154.247620
v 53.302273 6.369229 -141.703735
v 94.302643 6.369228 -164.348602
v 82.909019 6.369228 -162.747620
v 93.302643 6.369228 -172.848618
v 81.909027 6.369228 -171.247620
v 63.347717 6.369229 -148.336273
v 73.279259 6.369229 -153.071594
v 50.802273 6.369229 -150.203751
v 60.847721 6.369229 -156.836273
v 70.779266 6.369229 -161.571594
v 49.802277 6.369229 -158.703735
v 59.847721 6.369229 -165.336273
v 69.779266 6.369229 -170.071594
v 112.782425 6.369228 -158.494995
v 112.282425 6.369228 -167.994995
v 110.282425 6.369228 -175.994995
v 91.302650 6.369228 -182.348618
v 79.909027 6.369228 -180.747620
v 47.802277 6.369229 -168.203735
v 57.847725 6.369229 -174.836273
v 67.779266 6.369229 -179.571594
v 105.282425 6.369228 -184.494995
v 89.802650 6.369228 -192.848602
v 78.409027 6.369228 -191.247604
v 46.302277 6.369229 -178.703751
v 56.347725 6.369229 -185.336273
v 66.279266 6.369229 -190.071594
v 99.782425 6.369228 -193.494995
v 87.302650 6.369228 -201.848618
v 76.909035 6.369228 -202.747620
v 49.302277 6.369229 -186.703735
v 55.347721 6.369229 -194.836288
v 64.779266 6.369229 -200.571594
v 96.282433 6.369228 -197.994995
vt 0.416667 0.833333
vt 0.333333 0.791667
vt 0.333333 0.791667
vt 0.416667 0.833333
vt 0.333333 0.791667
vt 0.416667 0.833333
vt 0.333333 0.791667
vt 0.416667 0.833333
vt 0.000000 0.000000
vt 0.000000 0.000000
vt 0.000000 0.000000
vt 0.000000 0.000000
vt 0.208333 0.666667
vt 0.166667 0.583333
vt 0.166667 0.583333
vt 0.208333 0.666667
vt 0.000000 0.000000
vt 0.000000 0.000000
vt 0.166667 0.583333
vt 0.208333 0.666667
vt 0.000000 0.000000
vt 0.000000 0.000000
vt 0.000000 0.000000
vt 0.000000 0.000000
vt 0.000000 0.000000
vt 0.000000 0.000000
vt 0.000000 0.000000
vt 0.000000 0.000000
vt 0.416667 0.833333
vt 0.000000 0.000000
vt 0.333333 0.791667
vt 0.000000 0.000000
vt 0.000000 0.000000
vt 0.166667 0.583333
vt 0.208333 0.666667
vt 0.000000 0.000000
vt 0.333333 0.791667
vt 0.166667 0.583333
vt 0.208333 0.666667
vt 0.416667 0.833333
vt 0.000000 0.000000
vt 0.000000 0.000000
vt 0.000000 0.000000
vt 0.333333 0.791667
vt 0.166667 0.583333
vt 0.208333 0.666667
vt 0.416667 0.833333
vt 0.000000 0.000000
vt 0.000000 0.000000
vt 0.416667 0.833333
vt 0.416667 0.833333
vt 0.333333 0.791667
vt 0.333333 0.791667
vt 0.416667 0.833333
vt 0.333333 0.791667
vt 0.416667 0.833333
vt 0.333333 0.791667
vt 0.000000 0.000000
vt 0.000000 0.000000
vt 0.000000 0.000000
vt 0.000000 0.000000
vt 0.208333 0.666667
vt 0.208333 0.666667
vt 0.166667 0.583333
vt 0.166667 0.583333
vt 0.000000 0.000000
vt 0.000000 0.000000
vt 0.208333 0.666667
vt 0.166667 0.583333
vt 0.000000 0.000000
vt 0.000000 0.000000
vt 0.000000 0.000000
vt 0.000000 0.000000
vt 0.000000 0.000000
vt 0.000000 0.000000
vt 0.000000 0.000000
vt 0.000000 0.000000
vt 0.000000 0.000000
vt 0.416667 0.833333
vt 0.333333 0.791667
vt 0.000000 0.000000
vt 0.000000 0.000000
vt 0.208333 0.666667
vt 0.166667 0.583333
vt 0.333333 0.791667
vt 0.000000 0.000000
vt 0.208333 0.666667
vt 0.166667 0.583333
vt 0.000000 0.000000
vt 0.416667 0.833333
vt 0.000000 0.000000
vt 0.333333 0.791667
vt 0.000000 0.000000
vt 0.208333 0.666667
vt 0.166667 0.583333
vt 0.000000 0.000000
vt 0.416667 0.833333
vt 0.000000 0.000000
vn 0.0000 -1.0000 -0.0000
vn 0.0000 1.0000 -0.0000
vn 0.9701 0.0000 -0.2425
vn 0.4607 0.0000 0.8876
vn 0.8619 0.0000 -0.5070
vn 0.8533 0.0000 -0.5214
vn -0.9932 0.0000 0.1168
vn 0.5510 0.0000 0.8345
vn -0.9363 0.0000 -0.3511
vn 0.0862 0.0000 -0.9963
vn -0.9785 0.0000 0.2060
vn 0.1134 0.0000 0.9935
vn 0.9994 0.0000 -0.0357
vn -0.8025 0.0000 -0.5966
vn -0.9594 0.0000 0.2822
vn -0.5196 0.0000 -0.8544
vn 0.7894 0.0000 -0.6139
vn 0.0252 0.0000 0.9997
vn -0.1766 0.0000 -0.9843
vn 0.4304 0.0000 0.9026
vn -0.9899 0.0000 0.1414
vn 0.9986 0.0000 -0.0526
vn 0.3944 0.0000 -0.9190
usemtl VertexColour
s off
f 5/1/1 6/2/1 8/3/1 7/4/1
f 7/4/1 8/3/1 11/5/1 10/6/1
f 10/6/1 11/5/1 13/7/1 12/8/1
f 14/9/1 17/10/1 18/11/1 15/12/1
f 14/13/1 9/14/1 16/15/1 17/16/1
f 17/10/1 20/17/1 21/18/1 18/11/1
f 17/16/1 16/15/1 19/19/1 20/20/1
f 15/12/1 3/21/1 4/22/1 14/9/1
f 2/23/1 9/24/1 14/9/1 4/22/1
f 8/3/1 6/2/1 3/21/1 15/12/1
f 11/5/1 8/3/1 15/12/1 18/11/1
f 13/7/1 11/5/1 18/11/1 21/18/1
f 22/25/1 1/26/1 5/1/1 7/4/1
f 10/6/1 23/27/1 22/25/1 7/4/1
f 24/28/1 23/27/1 10/6/1 12/8/1
f 24/28/1 12/8/1 25/29/1 30/30/1
f 12/8/1 13/7/1 26/31/1 25/29/1
f 20/17/1 28/32/1 29/33/1 21/18/1
f 13/7/1 21/18/1 29/33/1 26/31/1
f 20/20/1 19/19/1 27/34/1 28/35/1
f 26/31/1 29/33/1 35/36/1 32/37/1
f 28/35/1 27/34/1 33/38/1 34/39/1
f 30/30/1 25/29/1 31/40/1 36/41/1
f 28/32/1 34/42/1 35/36/1 29/33/1
f 25/29/1 26/31/1 32/37/1 31/40/1
f 32/37/1 35/36/1 41/43/1 38/44/1
f 34/39/1 33/38/1 39/45/1 40/46/1
f 36/41/1 31/40/1 37/47/1 42/48/1
f 34/42/1 40/49/1 41/43/1 35/36/1
f 31/40/1 32/37/1 38/44/1 37/47/1
f 47/50/2 49/51/2 50/52/2 48/53/2
f 49/51/2 52/54/2 53/55/2 50/52/2
f 52/54/2 54/56/2 55/57/2 53/55/2
f 56/58/2 57/59/2 60/60/2 59/61/2
f 56/62/2 59/63/2 58/64/2 51/65/2
f 59/61/2 60/60/2 63/66/2 62/67/2
f 59/63/2 62/68/2 61/69/2 58/64/2
f 57/59/2 56/58/2 46/70/2 45/71/2
f 44/72/2 46/70/2 56/58/2 51/73/2
f 50/52/2 57/59/2 45/71/2 48/53/2
f 53/55/2 60/60/2 57/59/2 50/52/2
f 55/57/2 63/66/2 60/60/2 53/55/2
f 64/74/2 49/51/2 47/50/2 43/75/2
f 52/54/2 49/51/2 64/74/2 65/76/2
f 66/77/2 54/56/2 52/54/2 65/76/2
f 66/77/2 72/78/2 67/79/2 54/56/2
f 54/56/2 67/79/2 68/80/2 55/57/2
f 62/67/2 63/66/2 71/81/2 70/82/2
f 55/57/2 68/80/2 71/81/2 63/66/2
f 62/68/2 70/83/2 69/84/2 61/69/2
f 68/80/2 74/85/2 77/86/2 71/81/2
f 70/83/2 76/87/2 75/88/2 69/84/2
f 72/78/2 78/89/2 73/90/2 67/79/2
f 70/82/2 71/81/2 77/86/2 76/91/2
f 67/79/2 73/90/2 74/85/2 68/80/2
f 74/85/2 80/92/2 83/93/2 77/86/2
f 76/87/2 82/94/2 81/95/2 75/88/2
f 78/89/2 84/96/2 79/97/2 73/90/2
f 76/91/2 77/86/2 83/93/2 82/98/2
f 73/90/2 79/97/2 80/92/2 74/85/2
f 23/27/3 24/28/3 66/77/3 65/76/3
f 3/21/4 6/2/4 48/53/4 45/71/4
f 24/28/5 30/30/5 72/78/5 66/77/5
f 30/30/6 36/41/6 78/89/6 72/78/6
f 19/19/7 16/15/7 58/64/7 61/69/7
f 2/23/8 4/22/8 46/70/8 44/72/8
f 39/45/9 33/38/9 75/88/9 81/95/9
f 37/47/10 38/44/10 80/92/10 79/97/10
f 9/24/11 2/23/11 44/72/11 51/73/11
f 6/2/12 5/1/12 47/50/12 48/53/12
f 1/26/13 22/25/13 64/74/13 43/75/13
f 40/46/14 39/45/14 81/95/14 82/94/14
f 16/15/15 9/14/15 51/65/15 58/64/15
f 41/43/16 40/49/16 82/98/16 83/93/16
f 36/41/17 42/48/17 84/96/17 78/89/17
f 5/1/18 1/26/18 43/75/18 47/50/18
f 27/34/11 19/19/11 61/69/11 69/84/11
f 38/44/19 41/43/19 83/93/19 80/92/19
f 4/22/20 3/21/20 45/71/20 46/70/20
f 33/38/21 27/34/21 69/84/21 75/88/21
f 22/25/22 23/27/22 65/76/22 64/74/22
f 42/48/23 37/47/23 79/97/23 84/96/23
